<svg width="32" height="32" viewBox="0 0 32 32" fill="none" xmlns="http://www.w3.org/2000/svg">
<path d="M14.6889 22.3999H16.9111V14.3999H14.6889V22.3999ZM15.733 11.8666C16.0666 11.8666 16.3463 11.7558 16.5723 11.5344C16.7982 11.3129 16.9111 11.0384 16.9111 10.711C16.9111 10.371 16.7983 10.086 16.5726 9.85604C16.347 9.62604 16.0673 9.51104 15.7338 9.51104C15.4002 9.51104 15.1204 9.62604 14.8945 9.85604C14.6685 10.086 14.5556 10.371 14.5556 10.711C14.5556 11.0384 14.6684 11.3129 14.8941 11.5344C15.1198 11.7558 15.3994 11.8666 15.733 11.8666ZM15.7393 29.0666C13.8988 29.0666 12.1691 28.7166 10.5504 28.0166C8.93164 27.3166 7.51855 26.3629 6.31112 25.1555C5.10372 23.948 4.15002 22.5344 3.45002 20.9146C2.75002 19.2947 2.40002 17.5639 2.40002 15.7221C2.40002 13.8804 2.75002 12.1495 3.45002 10.5297C4.15002 8.90984 5.10372 7.4999 6.31112 6.2999C7.51855 5.0999 8.93218 4.1499 10.552 3.4499C12.1719 2.7499 13.9027 2.3999 15.7445 2.3999C17.5862 2.3999 19.317 2.7499 20.9369 3.4499C22.5568 4.1499 23.9667 5.0999 25.1667 6.2999C26.3667 7.4999 27.3167 8.91101 28.0167 10.5332C28.7167 12.1555 29.0667 13.8868 29.0667 15.7273C29.0667 17.5678 28.7167 19.2974 28.0167 20.9162C27.3167 22.535 26.3667 23.9467 25.1667 25.1514C23.9667 26.356 22.5556 27.3097 20.9334 28.0125C19.3111 28.7152 17.5798 29.0666 15.7393 29.0666ZM15.7445 26.8444C18.8333 26.8444 21.4556 25.7629 23.6112 23.5999C25.7667 21.4369 26.8445 18.811 26.8445 15.7221C26.8445 12.6332 25.7681 10.011 23.6153 7.85544C21.4625 5.69988 18.8352 4.6221 15.7334 4.6221C12.6519 4.6221 10.0296 5.69849 7.86669 7.85127C5.70371 10.0041 4.62222 12.6314 4.62222 15.7332C4.62222 18.8147 5.70371 21.4369 7.86669 23.5999C10.0296 25.7629 12.6556 26.8444 15.7445 26.8444Z" fill="#3A9034"/>
</svg>
