<svg width="200" height="196" viewBox="0 0 200 196" fill="none" xmlns="http://www.w3.org/2000/svg">
  <g clip-path="url(#clip0_1110_3359)">
    <path d="M126.968 44.3464H73.0769C71.8488 44.3479 70.6715 44.8359 69.8031 45.7034C68.9347 46.5709 68.4462 47.7471 68.4447 48.974V168.629L67.8271 168.817L54.6067 172.862C53.9801 173.053 53.3034 172.987 52.725 172.68C52.1466 172.373 51.7138 171.849 51.5217 171.224L12.197 42.8995C12.0057 42.2735 12.0709 41.5973 12.3784 41.0194C12.6859 40.4415 13.2105 40.0091 13.8369 39.8175L34.2095 33.5856L93.2704 15.5255L113.643 9.29361C113.953 9.19829 114.279 9.16498 114.602 9.19559C114.925 9.2262 115.238 9.32013 115.525 9.472C115.811 9.62388 116.065 9.83071 116.272 10.0807C116.478 10.3306 116.633 10.6188 116.728 10.9287L126.78 43.7293L126.968 44.3464Z" fill="#F2F2F2"/>
    <path d="M138.728 43.7296L126.613 4.19733C126.412 3.53865 126.082 2.9261 125.643 2.39469C125.205 1.86328 124.666 1.42341 124.057 1.10024C123.448 0.777063 122.781 0.576904 122.095 0.511207C121.409 0.445511 120.716 0.515564 120.057 0.717357L91.4144 9.47592L32.3566 27.5391L3.71399 36.3007C2.3834 36.7089 1.26928 37.6278 0.616183 38.8558C-0.036918 40.0837 -0.175646 41.5204 0.230456 42.8504L41.6364 177.956C41.9663 179.029 42.632 179.969 43.5357 180.637C44.4395 181.305 45.5337 181.666 46.6579 181.667C47.1782 181.667 47.6955 181.589 48.1926 181.436L67.8271 175.432L68.4447 175.241V174.596L67.8271 174.784L48.0104 180.846C46.836 181.204 45.5674 181.082 44.4831 180.506C43.3987 179.931 42.5872 178.949 42.2263 177.777L0.823508 42.6684C0.644732 42.0874 0.582424 41.4769 0.640149 40.8719C0.697875 40.2669 0.874495 39.6791 1.15991 39.1424C1.44532 38.6056 1.83392 38.1304 2.30344 37.7439C2.77297 37.3574 3.31419 37.0672 3.89613 36.89L32.5388 28.1284L91.5967 10.0683L120.239 1.30661C120.681 1.17204 121.14 1.10343 121.601 1.103C122.591 1.10522 123.555 1.4242 124.351 2.01323C125.147 2.60225 125.733 3.43037 126.023 4.37627L138.083 43.7296L138.274 44.3467H138.916L138.728 43.7296Z" fill="#3F3D56"/>
    <path d="M37.8858 39.9184C37.2905 39.918 36.7111 39.727 36.2325 39.3735C35.7539 39.02 35.4013 38.5226 35.2264 37.9542L31.2488 24.9747C31.1419 24.6261 31.1048 24.2598 31.1396 23.8968C31.1745 23.5338 31.2805 23.1813 31.4518 22.8593C31.623 22.5372 31.8561 22.2521 32.1376 22.0201C32.4192 21.788 32.7438 21.6137 33.0928 21.507L87.4255 4.88957C88.1303 4.6747 88.8916 4.74798 89.5425 5.09333C90.1933 5.43867 90.6803 6.02786 90.8968 6.73158L94.8744 19.7112C95.0894 20.4154 95.0159 21.1759 94.6703 21.8261C94.3246 22.4762 93.7349 22.9628 93.0306 23.1791L38.6977 39.7965C38.4346 39.8772 38.161 39.9183 37.8858 39.9184Z" fill="#1979BE"/>
    <path d="M58.7223 14.353C62.1334 14.353 64.8986 11.5906 64.8986 8.18287C64.8986 4.77518 62.1334 2.0127 58.7223 2.0127C55.3112 2.0127 52.546 4.77518 52.546 8.18287C52.546 11.5906 55.3112 14.353 58.7223 14.353Z" fill="#1979BE"/>
    <path d="M58.7223 12.0907C60.8823 12.0907 62.6333 10.3414 62.6333 8.18351C62.6333 6.02566 60.8823 4.27637 58.7223 4.27637C56.5623 4.27637 54.8113 6.02566 54.8113 8.18351C54.8113 10.3414 56.5623 12.0907 58.7223 12.0907Z" fill="white"/>
    <path d="M186.103 180.09H81.7238C81.0279 180.089 80.3607 179.813 79.8686 179.321C79.3765 178.829 79.0997 178.163 79.0989 177.468V52.5217C79.0997 51.8265 79.3765 51.1599 79.8686 50.6683C80.3607 50.1767 81.0279 49.9002 81.7238 49.8994H186.103C186.799 49.9002 187.467 50.1768 187.959 50.6684C188.451 51.16 188.728 51.8265 188.728 52.5217V177.468C188.727 178.163 188.451 178.829 187.959 179.321C187.466 179.813 186.799 180.089 186.103 180.09Z" fill="#E6E6E6"/>
    <path d="M138.083 43.7295H73.0769C71.6851 43.7315 70.351 44.2847 69.3669 45.2678C68.3827 46.2509 67.829 47.5838 67.827 48.9741V174.784L68.4447 174.596V48.9741C68.4462 47.7473 68.9347 46.5711 69.8031 45.7036C70.6714 44.836 71.8488 44.348 73.0769 44.3465H138.274L138.083 43.7295ZM194.75 43.7295H73.0769C71.6851 43.7315 70.351 44.2847 69.3669 45.2678C68.3827 46.2509 67.829 47.5838 67.827 48.9741V190.271C67.829 191.661 68.3827 192.994 69.3669 193.977C70.351 194.961 71.6851 195.514 73.0769 195.516H194.75C196.142 195.514 197.476 194.961 198.46 193.977C199.444 192.994 199.998 191.661 200 190.271V48.9741C199.998 47.5838 199.444 46.2509 198.46 45.2678C197.476 44.2847 196.142 43.7315 194.75 43.7295ZM199.382 190.271C199.381 191.498 198.892 192.674 198.024 193.542C197.156 194.409 195.978 194.897 194.75 194.899H73.0769C71.8488 194.897 70.6714 194.409 69.8031 193.542C68.9347 192.674 68.4462 191.498 68.4447 190.271V48.9741C68.4462 47.7473 68.9347 46.5711 69.8031 45.7036C70.6714 44.836 71.8488 44.348 73.0769 44.3465H194.75C195.978 44.348 197.156 44.836 198.024 45.7036C198.892 46.5711 199.381 47.7473 199.382 48.9741V190.271Z" fill="#3F3D56"/>
    <path d="M162.325 57.3033H105.503C104.766 57.3025 104.059 57.0097 103.538 56.4892C103.017 55.9686 102.724 55.2629 102.723 54.5267V40.9524C102.724 40.2162 103.017 39.5105 103.538 38.9899C104.059 38.4694 104.766 38.1766 105.503 38.1758H162.325C163.061 38.1766 163.768 38.4694 164.289 38.9899C164.81 39.5105 165.103 40.2162 165.104 40.9524V54.5267C165.103 55.2629 164.81 55.9686 164.289 56.4892C163.768 57.0097 163.061 57.3025 162.325 57.3033Z" fill="#1979BE"/>
    <path d="M133.914 39.1021C137.325 39.1021 140.09 36.3396 140.09 32.9319C140.09 29.5242 137.325 26.7617 133.914 26.7617C130.502 26.7617 127.737 29.5242 127.737 32.9319C127.737 36.3396 130.502 39.1021 133.914 39.1021Z" fill="#1979BE"/>
    <path d="M133.914 36.6903C135.991 36.6903 137.676 35.0076 137.676 32.932C137.676 30.8564 135.991 29.1738 133.914 29.1738C131.836 29.1738 130.152 30.8564 130.152 32.932C130.152 35.0076 131.836 36.6903 133.914 36.6903Z" fill="white"/>
  </g>
  <defs>
    <clipPath id="clip0_1110_3359">
      <rect width="200" height="195.031" fill="white" transform="translate(0 0.484375)"/>
    </clipPath>
  </defs>
</svg>