<svg xmlns="http://www.w3.org/2000/svg" width="96" height="99" viewBox="0 0 96 99" fill="none">
  <g clip-path="url(#clip0_74_6999)">
    <path d="M38.97 79.8034C38.7919 79.5051 38.0215 79.8245 37.8798 79.5538C37.7387 79.284 38.4545 78.873 38.8635 77.934C38.9373 77.7646 39.4021 76.6975 39.058 76.3683C38.4058 75.7441 35.4214 78.3198 34.3769 77.4769C34.1477 77.2919 33.9876 76.9226 33.2939 76.3231C33.0179 76.0846 32.851 75.9769 32.6895 76.017C32.4604 76.0738 32.4422 76.3785 32.1965 76.9776C31.8279 77.876 31.61 77.8217 31.3953 78.5385C31.2359 79.0707 31.2723 79.38 31.0847 79.4403C30.8193 79.5256 30.575 78.9612 30.2386 79.0117C29.8954 79.0633 29.6878 79.7204 29.6223 80.2125C29.4993 81.1358 29.8406 81.745 30.0298 82.3857C30.2354 83.0819 30.3574 84.1407 29.8826 85.6396L25.1833 98.7925C26.2208 96.0936 29.2247 88.695 30.487 85.9457C30.8514 85.152 31.2537 84.347 32.0798 84.0293C32.8752 83.7234 33.9675 83.906 35.3601 83.5727C35.5227 83.5338 35.9741 83.4197 36.0309 83.156C36.0778 82.938 35.8124 82.8163 35.8532 82.6121C35.9079 82.3382 36.4299 82.3349 37.0714 82.0189C37.5238 81.7961 37.8056 81.5311 38.048 81.3032C38.121 81.2345 39.2071 80.2006 38.97 79.8034Z" fill="#F2F2F2"/>
    <path d="M20.4816 86.7278C20.2829 86.7286 20.2184 87.1964 20.0437 87.1874C19.8697 87.1784 19.8732 86.7107 19.5273 86.2404C19.4649 86.1556 19.0718 85.621 18.8098 85.6938C18.3133 85.8317 18.7247 88.03 18.0069 88.296C17.8494 88.3544 17.6208 88.3259 17.1244 88.4912C16.9269 88.5569 16.8256 88.6072 16.7988 88.6975C16.7607 88.8257 16.906 88.9224 17.1311 89.2151C17.4686 89.654 17.379 89.7446 17.6711 90.0561C17.888 90.2874 18.0514 90.3589 18.0271 90.4677C17.9926 90.6217 17.6433 90.578 17.5712 90.7566C17.4976 90.9388 17.7624 91.2296 17.9866 91.4035C18.4073 91.7299 18.8068 91.7393 19.1779 91.8319C19.5812 91.9325 20.1395 92.1785 20.7431 92.8425L25.8856 98.9288C24.8515 97.6442 22.0628 94.0449 21.0687 92.6362C20.7817 92.2295 20.5 91.801 20.5814 91.3066C20.6598 90.8305 21.0652 90.3506 21.3023 89.5755C21.33 89.485 21.4039 89.232 21.29 89.1282C21.1958 89.0424 21.0591 89.1367 20.97 89.0579C20.8505 88.9522 20.9994 88.6967 21.0284 88.2928C21.0488 88.0079 20.9992 87.794 20.9566 87.6101C20.9437 87.5547 20.7463 86.7268 20.4816 86.7278Z" fill="#F2F2F2"/>
    <path d="M24.4474 87.6122L24.3276 86.5502L24.3824 86.4697C24.6356 86.0974 24.7646 85.7338 24.7662 85.3886C24.7664 85.3338 24.7638 85.2789 24.7613 85.223C24.7509 85.0014 24.738 84.7261 24.8826 84.405C24.9636 84.2261 25.1913 83.8117 25.5335 83.863C25.6257 83.8758 25.6954 83.9178 25.7483 83.9671C25.756 83.9548 25.764 83.9425 25.7726 83.9291C25.8792 83.7676 25.9636 83.6984 26.0449 83.6317C26.1073 83.5804 26.1719 83.5276 26.273 83.4025C26.3174 83.3476 26.352 83.2994 26.3812 83.2589C26.4697 83.1363 26.5854 82.9901 26.7893 82.9927C27.0071 83.003 27.1212 83.1819 27.1968 83.3004C27.3318 83.5117 27.393 83.664 27.4335 83.765C27.4482 83.8019 27.465 83.8435 27.4735 83.8563C27.5437 83.9589 28.1144 83.863 28.3294 83.8281C28.8124 83.7481 29.2303 83.6789 29.4024 83.9814C29.5258 84.1978 29.4342 84.484 29.1219 84.8548C29.0245 84.9702 28.921 85.0579 28.8292 85.1266C28.9053 85.1717 28.9734 85.2409 29.0011 85.3497C29.0661 85.6071 28.8433 85.865 28.3392 86.1174C28.2141 86.1804 28.0455 86.2645 27.8093 86.3051C27.6981 86.324 27.5979 86.3286 27.5123 86.3312C27.5104 86.3804 27.4988 86.4338 27.4686 86.4886C27.3801 86.6502 27.1958 86.7271 26.9181 86.7086C26.6125 86.6927 26.3608 86.6348 26.1388 86.584C25.945 86.5399 25.778 86.5025 25.6469 86.5112C25.4037 86.5307 25.2163 86.724 24.9964 86.9748L24.4474 87.6122Z" fill="#F2F2F2"/>
    <path d="M25.003 81.2885L23.9992 81.673L23.9069 81.6409C23.4802 81.492 23.0934 81.4602 22.757 81.5463C22.7035 81.5599 22.6507 81.5763 22.5969 81.593C22.3838 81.6591 22.1189 81.7413 21.7697 81.6839C21.5749 81.6514 21.1136 81.5377 21.0768 81.1959C21.0659 81.1041 21.0891 81.0264 21.1237 80.9631C21.1097 80.9588 21.0957 80.9542 21.0806 80.9494C20.8962 80.8879 20.8074 80.8244 20.7219 80.7632C20.6561 80.7162 20.5883 80.6676 20.4408 80.6021C20.3761 80.5733 20.3204 80.5523 20.2735 80.5346C20.1317 80.4806 19.9601 80.4065 19.9109 80.2099C19.8656 79.998 20.0109 79.843 20.1071 79.7403C20.2786 79.557 20.4114 79.4595 20.4995 79.395C20.5317 79.3715 20.5679 79.3448 20.5782 79.3334C20.6603 79.2399 20.4221 78.7158 20.3336 78.5181C20.1332 78.0743 19.9598 77.6903 20.2108 77.4481C20.3902 77.2747 20.6921 77.2901 21.1323 77.4962C21.2694 77.5605 21.381 77.6377 21.4712 77.7085C21.4959 77.6239 21.546 77.5409 21.6449 77.4868C21.879 77.359 22.1867 77.5076 22.5602 77.928C22.6534 78.0323 22.7781 78.1729 22.8774 78.3896C22.9241 78.4917 22.954 78.5867 22.9782 78.6684C23.0266 78.6577 23.0815 78.6553 23.1426 78.6704C23.3224 78.7145 23.444 78.8721 23.4965 79.1436C23.5585 79.4413 23.5659 79.6979 23.5728 79.924C23.579 80.1215 23.5849 80.2915 23.6267 80.4153C23.7073 80.6439 23.9431 80.775 24.2431 80.9227L25.003 81.2885Z" fill="#F2F2F2"/>
    <path d="M24.4474 78.1598L24.3276 77.0978L24.3824 77.0173C24.6356 76.645 24.7646 76.2814 24.7662 75.9362C24.7664 75.8814 24.7638 75.8265 24.7613 75.7706C24.7509 75.5491 24.738 75.2737 24.8826 74.9526C24.9636 74.7737 25.1913 74.3593 25.5335 74.4106C25.6257 74.4234 25.6954 74.4655 25.7483 74.5147C25.756 74.5024 25.764 74.4901 25.7726 74.4767C25.8792 74.3152 25.9636 74.246 26.0449 74.1793C26.1073 74.128 26.1719 74.0752 26.273 73.9501C26.3174 73.8952 26.352 73.847 26.3812 73.8065C26.4697 73.6839 26.5854 73.5378 26.7893 73.5403C27.0071 73.5506 27.1212 73.7295 27.1968 73.848C27.3318 74.0593 27.393 74.2116 27.4335 74.3126C27.4482 74.3496 27.465 74.3911 27.4735 74.4039C27.5437 74.5065 28.1144 74.4106 28.3294 74.3757C28.8124 74.2957 29.2303 74.2265 29.4024 74.529C29.5258 74.7454 29.4342 75.0316 29.1219 75.4024C29.0245 75.5178 28.921 75.6055 28.8292 75.6742C28.9053 75.7193 28.9734 75.7885 29.0011 75.8973C29.0661 76.1547 28.8433 76.4127 28.3392 76.665C28.2141 76.728 28.0455 76.8121 27.8093 76.8527C27.6981 76.8716 27.5979 76.8763 27.5123 76.8788C27.5104 76.928 27.4988 76.9814 27.4686 77.0363C27.3801 77.1978 27.1958 77.2747 26.9181 77.2563C26.6125 77.2404 26.3608 77.1824 26.1388 77.1316C25.945 77.0875 25.778 77.0501 25.6469 77.0588C25.4037 77.0783 25.2163 77.2716 24.9964 77.5224L24.4474 78.1598Z" fill="#F2F2F2"/>
    <path d="M25.5413 98.7753L25.3172 98.6358L25.056 98.6656C25.0519 98.6415 25.0377 98.5861 25.0163 98.4994C24.8994 98.0245 24.5429 96.5794 24.2455 94.3035C24.038 92.7148 23.9206 91.0814 23.8963 89.4481C23.8721 87.8121 23.95 86.5737 24.0125 85.5783C24.0597 84.8275 24.117 84.1126 24.1733 83.4162C24.323 81.5557 24.4642 79.7982 24.3591 77.8526C24.3359 77.4182 24.2871 76.5141 23.7554 75.552C23.4469 74.9941 23.0221 74.4987 22.4924 74.0802L22.8218 73.6689C23.4064 74.1315 23.8764 74.6802 24.219 75.2997C24.8085 76.3664 24.8617 77.3515 24.8872 77.8249C24.9941 79.8049 24.8513 81.5793 24.7001 83.4578C24.6443 84.1516 24.587 84.8634 24.54 85.6111C24.4781 86.5973 24.4009 87.825 24.4249 89.4399C24.4487 91.0537 24.5648 92.6671 24.7695 94.2358C25.0632 96.483 25.4145 97.9066 25.5299 98.3743C25.5914 98.624 25.6043 98.6763 25.5413 98.7753Z" fill="#F2F2F2"/>
    <path d="M21.523 74.9147C21.5013 74.9147 21.4794 74.9142 21.4572 74.9126C21.007 74.8885 20.5902 74.6208 20.218 74.1172C20.0435 73.8803 19.9542 73.61 19.7761 73.0711C19.7485 72.988 19.6142 72.5664 19.5327 71.9864C19.4792 71.6075 19.486 71.449 19.5616 71.309C19.6455 71.1531 19.7812 71.0444 19.934 70.971C19.9273 70.9208 19.9327 70.869 19.9547 70.8162C20.0448 70.5972 20.2843 70.6259 20.4139 70.6398C20.4794 70.648 20.5613 70.6587 20.6495 70.6541C20.7884 70.6475 20.863 70.6064 20.976 70.5449C21.0842 70.4859 21.2187 70.4126 21.4182 70.3721C21.8116 70.2905 22.1412 70.4013 22.2498 70.4377C22.8216 70.6269 23.1034 71.0685 23.4297 71.5798C23.4947 71.6823 23.718 72.0557 23.8654 72.5675C23.9717 72.9367 23.9567 73.1008 23.9247 73.2229C23.8597 73.4736 23.7061 73.6172 23.3161 73.9341C22.9088 74.2659 22.7044 74.4321 22.5289 74.5331C22.1203 74.7675 21.8637 74.9147 21.523 74.9147Z" fill="#F2F2F2"/>
    <path d="M46.2849 97.8765L47.6693 97.8764L48.3278 92.572L46.2847 92.5722L46.2849 97.8765Z" fill="#FFB6B6"/>
    <path d="M51.0277 97.8455C51.0708 97.9176 51.0935 98.1504 51.0935 98.2342C51.0935 98.492 50.8832 98.701 50.6237 98.701H46.3366C46.1596 98.701 46.0161 98.5584 46.0161 98.3826V98.2052C46.0161 98.2052 45.804 97.6723 46.2406 97.0155C46.2406 97.0155 46.7833 97.5298 47.5942 96.7243L47.8333 96.2939L49.5643 97.5515L50.5237 97.6688C50.7336 97.6945 50.9197 97.6648 51.0277 97.8455Z" fill="#2F2E41"/>
    <path d="M42.066 97.8765L43.4503 97.8764L44.1088 92.572L42.0657 92.5722L42.066 97.8765Z" fill="#FFB6B6"/>
    <path d="M46.8087 97.8455C46.8518 97.9176 46.8745 98.1504 46.8745 98.2342C46.8745 98.492 46.6642 98.701 46.4047 98.701H42.1176C41.9406 98.701 41.7971 98.5584 41.7971 98.3826V98.2052C41.7971 98.2052 41.585 97.6723 42.0217 97.0155C42.0217 97.0155 42.5643 97.5298 43.3752 96.7243L43.6143 96.2939L45.3453 97.5515L46.3047 97.6688C46.5146 97.6945 46.7007 97.6648 46.8087 97.8455Z" fill="#2F2E41"/>
    <path d="M47.8838 74.9695L49.3605 80.6499L48.6221 95.2371L45.1415 95.4685L44.9306 87.0713L44.5087 95.7154L40.9226 94.9745L40.7117 75.9574L47.8838 74.9695Z" fill="#2F2E41"/>
    <path d="M33.5894 55.8439C33.113 55.0134 32.2954 54.5843 31.7634 54.8856C31.2313 55.1869 31.1864 56.1043 31.6631 56.9351C31.849 57.2696 32.1127 57.5549 32.4324 57.7674L34.4958 61.2611L36.1255 60.2642L33.9183 56.9259C33.8972 56.5443 33.7845 56.1733 33.5894 55.8439Z" fill="#FFB6B6"/>
    <path d="M42.9668 68.1775C42.9668 68.1775 41.0112 70.8552 39.815 69.8983C38.6189 68.9415 32.0105 58.1854 32.0105 58.1854L34.6331 56.7891L42.9668 68.1775Z" fill="#6C63FF"/>
    <path d="M41.1335 64.9109L43.6649 61.1389L46.1962 62.1867L45.5634 65.5396L41.1335 64.9109Z" fill="#FFB6B6"/>
    <path d="M41.3446 64.0726L45.7744 63.863L48.7277 64.7013L49.3605 80.2083L40.5008 79.3701V71.1925L39.2351 67.0064L41.3446 64.0726Z" fill="#6C63FF"/>
    <path d="M48.6555 74.5327C48.4998 74.0817 48.4378 73.6055 48.478 73.1304C48.5913 71.7896 48.6126 69.1626 47.2369 67.9758L46.4599 67.1396C46.4438 67.1222 46.4256 67.1073 46.4091 67.0903L47.6948 64.0883L46.9181 63.7603L45.7249 66.5466C45.1956 66.2267 44.5851 66.0495 43.9537 66.0495C43.2244 66.0495 42.5272 66.2858 41.9512 66.7017L41.2234 64.0531L40.4093 64.2739L41.3192 67.2945C41.2862 67.3346 41.25 67.3715 41.2187 67.4133L40.7741 68.006C40.6659 68.1503 40.5464 68.2843 40.417 68.4102C40.1441 68.6757 39.6117 69.3203 39.6066 70.3127C39.6048 70.6522 39.5346 70.9878 39.4305 71.3111L38.902 72.9515C38.8524 73.1055 38.8135 73.2623 38.787 73.4219C38.5541 74.8265 37.7477 81.4442 43.2593 81.3118C48.3973 81.1883 48.7355 78.0804 48.7055 77.0481C48.699 76.8241 48.7193 76.6019 48.7613 76.3818C48.8384 75.978 48.9077 75.2635 48.6555 74.5327Z" fill="#3F3D56"/>
    <path d="M71.8667 7.54736L72.3471 14.9167L66.3054 16.2939L66.7263 10.3354L71.8667 7.54736Z" fill="#FFB6B6"/>
    <path d="M72.3267 97.1096L69.6033 97.1093L68.3079 86.6743L72.3272 86.6746L72.3267 97.1096Z" fill="#FFB6B6"/>
    <path d="M62.9962 97.0481C62.9114 97.19 62.8667 97.6479 62.8667 97.8129C62.8667 98.32 63.2805 98.7311 63.791 98.7311H72.2247C72.573 98.7311 72.8553 98.4506 72.8553 98.1047V97.7559C72.8553 97.7559 73.2725 96.7075 72.4135 95.4154C72.4135 95.4154 71.346 96.4271 69.7507 94.8424L69.2803 93.9958L65.8751 96.4698L63.9877 96.7006C63.5748 96.7511 63.2086 96.6928 62.9962 97.0481Z" fill="#2F2E41"/>
    <path d="M79.7097 97.1096L76.9864 97.1093L75.6909 86.6743L79.7102 86.6746L79.7097 97.1096Z" fill="#FFB6B6"/>
    <path d="M70.3793 97.0481C70.2945 97.19 70.2498 97.6479 70.2498 97.8129C70.2498 98.32 70.6636 98.7311 71.1741 98.7311H79.6078C79.956 98.7311 80.2383 98.4506 80.2383 98.1047V97.7559C80.2383 97.7559 80.6556 96.7075 79.7966 95.4154C79.7966 95.4154 78.729 96.4271 77.1338 94.8424L76.6634 93.9958L73.2582 96.4698L71.3708 96.7006C70.9578 96.7511 70.5917 96.6928 70.3793 97.0481Z" fill="#2F2E41"/>
    <path d="M81.4243 47.5178C81.4243 47.5178 83.7447 50.4516 83.3228 52.128C82.9009 53.8045 79.9477 92.3626 79.9477 92.3626L75.7288 92.1531L73.1974 57.5765L72.5463 92.3626L68.5566 92.1531L63.4939 48.9847L81.4243 47.5178Z" fill="#2F2E41"/>
    <path d="M57.0332 56.8721C56.6343 58.3909 55.5221 59.4176 54.5491 59.1653C53.5761 58.9129 53.111 57.4772 53.5102 55.9579C53.6613 55.3488 53.9571 54.7845 54.3727 54.3122L56.1447 47.8979L59.157 48.7882L57.0903 55.017C57.2207 55.631 57.2011 56.2671 57.0332 56.8721Z" fill="#FFB6B6"/>
    <path d="M66.959 13.6629C70.2879 13.6629 72.9866 10.9821 72.9866 7.67509C72.9866 4.3681 70.2879 1.68726 66.959 1.68726C63.63 1.68726 60.9314 4.3681 60.9314 7.67509C60.9314 10.9821 63.63 13.6629 66.959 13.6629Z" fill="#FFB6B6"/>
    <path d="M66.2362 15.2462L72.5646 13.9889L79.5258 17.5513L81.0024 40.3928L82.901 48.9846L63.283 49.1942L64.1268 37.6686L62.8611 19.4373L66.2362 15.2462Z" fill="#E6E6E6"/>
    <path d="M64.7597 20.0659C64.7597 20.0659 61.3846 19.0181 60.1189 20.9041C58.8532 22.7901 56.5328 39.7641 56.5328 39.7641L54.2124 52.5469L58.4313 53.1756L65.3925 30.7532L64.7597 20.0659Z" fill="#E6E6E6"/>
    <path d="M95.4592 49.5254C96.1469 50.9386 95.9703 52.4367 95.0649 52.8713C94.1594 53.3059 92.8682 52.5125 92.1805 51.0987C91.898 50.5377 91.7548 49.9176 91.763 49.2903L88.9253 43.2658L91.7996 42.0032L94.2919 48.0764C94.7919 48.4598 95.1922 48.9567 95.4592 49.5254Z" fill="#FFB6B6"/>
    <path d="M76.8838 17.7684C76.8838 17.7684 79.9149 15.9593 81.5927 17.4955C83.2705 19.0316 89.5561 34.9828 89.5561 34.9828L94.8464 46.8611L90.8959 48.4607L78.8066 28.3024L76.8838 17.7684Z" fill="#E6E6E6"/>
    <path d="M91.4734 98.7506C91.4734 98.8889 91.3616 99 91.2223 99H0.665332C0.526114 99 0.414307 98.8889 0.414307 98.7506C0.414307 98.6835 0.439633 98.6249 0.481811 98.5809H19.4079C19.8108 98.5809 20.2053 98.5536 20.5934 98.5012H91.2223C91.3616 98.5012 91.4734 98.6123 91.4734 98.7506Z" fill="#3F3D56"/>
    <path d="M54.3959 57.5323C54.7723 56.6525 55.5344 56.1324 56.0979 56.3705C56.6615 56.6086 56.813 57.5146 56.4363 58.3946C56.2907 58.7482 56.062 59.062 55.7692 59.3097L54.1268 63.0173L52.3918 62.2145L54.1952 58.6448C54.1717 58.2633 54.2405 57.8819 54.3959 57.5323Z" fill="#FFB6B6"/>
    <path d="M43.426 63.9237C45.5688 63.9237 47.3059 62.1981 47.3059 60.0694C47.3059 57.9407 45.5688 56.2151 43.426 56.2151C41.2832 56.2151 39.5461 57.9407 39.5461 60.0694C39.5461 62.1981 41.2832 63.9237 43.426 63.9237Z" fill="#FFB6B6"/>
    <path d="M48.3059 64.7013L52.1029 63.2344L53.3686 58.8337L56.1109 59.8815L54.0015 66.1682L48.3059 68.3297V64.7013Z" fill="#6C63FF"/>
    <path d="M42.9157 64.3549L45.2297 62.4845C45.2297 62.4845 45.0107 59.6815 45.8426 59.4293C46.6745 59.1772 47.5421 58.1703 47.5421 58.1703C47.5421 58.1703 46.1652 55.0805 43.7417 55.5494C41.3181 56.0183 41.8711 55.3051 40.3776 56.0908C38.8841 56.8765 38.5338 57.9249 38.7155 59.0389C38.8972 60.1529 38.3564 62.9205 40.1654 63.063C41.9743 63.2055 42.9157 64.3549 42.9157 64.3549Z" fill="#2F2E41"/>
    <path d="M63.3082 9.01566C62.8683 8.21881 63.0967 7.83842 62.6999 7.52691C62.6999 7.5269 62.5402 7.40155 61.3379 7.24189C61.223 5.28767 60.9044 5.0265 60.9044 5.02649C60.5372 4.72549 59.953 4.76746 59.5807 4.90418C58.7931 5.19334 58.8205 5.95513 58.2975 6.05899C57.5751 6.20246 59.5446 4.97562 59.5216 3.67785C59.5028 2.61924 60.2661 1.65309 60.5319 1.72851C60.7955 1.80328 61.5024 1.04072 61.8477 1.08075C62.0835 1.10809 63.0835 0.767526 63.3408 0.82078C63.6218 0.878944 64.5189 1.43851 64.5668 1.33073C64.8998 0.581805 64.8374 0.361716 65.0851 0.159562C65.5241 -0.198652 66.1689 0.126238 67.2032 0.355265C69.3311 0.82649 69.7634 0.15137 70.8279 0.716708C71.3656 1.00229 71.7794 1.69022 72.5851 3.05442C73.7119 4.96224 74.2753 5.91615 74.1946 6.9702C74.1124 8.04514 73.594 7.93535 73.236 9.50795C72.8375 11.2585 73.3165 12.1115 72.6757 12.6396C72.1805 13.0478 68.0739 13.0792 67.6146 12.65C66.8281 11.9152 68.0573 10.3902 67.2223 9.13855C66.7098 8.37021 65.5879 7.95741 65.0334 8.27309C64.4065 8.63003 64.6386 9.84219 64.2115 9.9215C63.8458 9.98941 63.3849 9.15452 63.3082 9.01566Z" fill="#2F2E41"/>
    <path d="M34.0938 57.7285C34.9335 57.0238 34.7105 55.3901 33.5959 54.0793C33.1079 53.5056 32.53 53.0889 31.964 52.8607L31.3134 52.1149L22.9121 41.6577C22.9121 41.6577 18.2596 31.255 16.8862 30.1312C15.5128 29.0073 13.897 29.5924 13.897 29.5924L12.6362 31.142L20.4926 45.6666L28.533 53.705L29.6184 54.8292C29.7503 55.4217 30.0673 56.0574 30.5553 56.6311C31.6699 57.9418 33.2542 58.4331 34.0938 57.7285Z" fill="#FFB6B6"/>
    <path d="M18.2352 32.0652L20.3406 35.1325L23.363 39.5763L17.9322 41.4426L13.1372 33.269L18.2352 32.0652Z" fill="#E6E6E6"/>
    <path d="M20.3729 21.6261L18.848 27.4012L13.0347 26.2651C13.0347 26.2651 15.3219 22.0995 14.7501 20.2061L20.3729 21.6261Z" fill="#FFB6B6"/>
    <path d="M14.2361 96.7994L17.7368 96.7991L19.4022 83.385L14.2354 83.3854L14.2361 96.7994Z" fill="#FFB6B6"/>
    <path d="M26.2302 96.7206C26.3392 96.9029 26.3967 97.4915 26.3967 97.7036C26.3967 98.3555 25.8648 98.8839 25.2085 98.8839H14.3671C13.9194 98.8839 13.5565 98.5234 13.5565 98.0787V97.6303C13.5565 97.6303 13.0202 96.2827 14.1244 94.6216C14.1244 94.6216 15.4967 95.9223 17.5473 93.8851L18.1521 92.7969L22.5294 95.9771L24.9557 96.2738C25.4865 96.3387 25.9571 96.2637 26.2302 96.7206Z" fill="#2F2E41"/>
    <path d="M23.9565 57.9787L19.1325 90.5884H13.0803L13.8851 71.974L14.3086 62.1864L13.0803 57.5275C13.0803 57.5275 12.5202 56.492 12.0484 55.2367C11.5166 53.8201 11.0966 52.1218 11.7202 51.3165C11.9496 51.0196 12.5461 50.7999 13.3568 50.6362C13.8521 50.5357 14.4286 50.4574 15.051 50.3966C18.6301 50.0448 23.7211 50.2646 23.7211 50.2646L23.8506 54.5073L23.9223 56.8765L23.9565 57.9787Z" fill="#2F2E41"/>
    <path d="M8.06934 95.2044L11.5329 95.7099L15.1447 82.6791L10.0328 81.9329L8.06934 95.2044Z" fill="#FFB6B6"/>
    <path d="M19.9474 96.8595C20.0286 97.0557 19.9993 97.6464 19.9682 97.8562C19.8728 98.5011 19.2691 98.9471 18.6199 98.8523L7.89371 97.2857C7.45081 97.221 7.14454 96.8119 7.20966 96.3719L7.27531 95.9283C7.27531 95.9283 6.94202 94.5175 8.27767 93.0337C8.27767 93.0337 9.44499 94.5188 11.7721 92.7996L12.5297 91.8103L16.3948 95.5892L18.7519 96.2334C19.2675 96.3743 19.7442 96.3681 19.9474 96.8595Z" fill="#2F2E41"/>
    <path d="M24.0324 52.5402L23.3708 58.2007L19.7625 70.129L13.8227 89.7669L7.83545 88.8929L13.2089 60.9706L12.6769 56.1827C12.6769 56.1827 12.5036 55.7067 12.305 55.01C11.9107 53.6316 11.4162 51.3868 11.9602 50.2418C12.0337 50.0861 12.1259 49.9511 12.24 49.8417C12.454 49.6356 12.8888 49.5104 13.4715 49.444C15.9067 49.1706 20.9221 49.9526 23.1538 50.3365L24.0324 52.5402Z" fill="#2F2E41"/>
    <path d="M19.4198 25.6971L25.9956 33.9337L24.8152 42.5209L23.8036 51.2588L11.891 49.46C11.891 49.46 14.4641 43.3063 14.75 43.0222C15.0359 42.7382 15.7541 43.4397 15.2521 42.5209C14.75 41.6021 14.1782 41.6021 14.6547 41.1288C15.1312 40.6554 10.938 34.5017 10.938 31.1881C10.938 27.8746 12.9393 25.2238 12.9393 25.2238L19.4198 25.6971Z" fill="#E6E6E6"/>
    <path d="M17.8856 22.7169C20.3321 22.7169 22.3154 20.7467 22.3154 18.3163C22.3154 15.886 20.3321 13.9158 17.8856 13.9158C15.4391 13.9158 13.4558 15.886 13.4558 18.3163C13.4558 20.7467 15.4391 22.7169 17.8856 22.7169Z" fill="#FFB6B6"/>
    <path d="M17.6786 26.73C17.6786 26.73 18.3414 21.5197 18.4588 20.0045C18.5761 18.4893 20.7291 16.1236 20.7291 16.1236L22.2543 17.3474C22.2543 17.3474 23.5449 17.3474 22.665 15.4826C21.785 13.6177 20.1425 13.3263 20.1425 13.3263C20.1425 13.3263 19.9665 10.8787 16.916 11.1701C13.8655 11.4615 12.5162 13.9091 12.5162 13.9091C12.5162 13.9091 12.3402 10.8204 10.4043 13.0932C8.46841 15.366 7.3538 16.2984 9.40702 17.056C11.4602 17.8136 12.9855 17.2309 12.9855 17.2309C12.9855 17.2309 10.9909 17.6388 11.3429 19.0375C11.6949 20.4361 6.7085 26.7883 8.99638 27.4876C11.2843 28.1869 16.388 29.8769 16.9746 28.7697C17.5613 27.6624 17.6786 26.73 17.6786 26.73Z" fill="#2F2E41"/>
    <path d="M35.9391 58.1649C36.7846 57.4673 36.5755 55.8317 35.4719 54.5117C34.9888 53.9339 34.4144 53.5124 33.8503 53.2796L33.2061 52.5283L24.8933 42.0016C24.8933 42.0016 20.3288 31.5605 18.9649 30.4253C17.601 29.2901 15.9803 29.8617 15.9803 29.8617L14.7065 31.4007L22.4401 45.9902L30.4124 54.0952L31.4883 55.2284C31.6152 55.822 31.9268 56.4603 32.4099 57.0381C33.5135 58.3581 35.0935 58.8625 35.9391 58.1649Z" fill="#FFB6B6"/>
    <path d="M14.2239 29.0525C14.2239 29.0525 16.2589 39.5432 18.5745 41.0897L23.189 37.5153C23.189 37.5153 23.5928 37.498 22.8413 36.6547C22.0897 35.8113 22.2821 34.0003 22.2821 34.0003C22.2821 34.0003 22.6203 34.435 21.8844 33.8316C21.1486 33.2281 21.8336 29.0784 21.8336 29.0784L14.2239 29.0525Z" fill="#E6E6E6"/>
    <path d="M47.8335 72.3345C47.7362 72.3345 47.6487 72.2674 47.6275 72.169L47.3955 71.0986C47.0546 69.5245 45.6855 68.3749 44.0661 68.3031C42.5658 68.2363 41.1755 69.1191 40.6057 70.4988L40.0237 71.9081C39.9796 72.0153 39.8567 72.0663 39.7485 72.0225C39.6408 71.9785 39.5893 71.8561 39.6336 71.7491L40.2155 70.3398C40.8529 68.7969 42.4059 67.8115 44.0851 67.8844C45.8958 67.9647 47.4266 69.2502 47.8079 71.0104L48.0399 72.0808C48.0644 72.194 47.9919 72.3054 47.8782 72.3298C47.8631 72.333 47.8481 72.3345 47.8335 72.3345Z" fill="#FFB6B6"/>
    <path d="M48.0824 75.7426C48.0762 75.7426 48.0698 75.7423 48.0634 75.7418L40.2574 75.0503C40.1414 75.04 40.0557 74.9383 40.066 74.823C40.0765 74.7077 40.1779 74.6231 40.2949 74.6328L48.1009 75.3243C48.2169 75.3347 48.3026 75.4364 48.2923 75.5517C48.2824 75.6607 48.1905 75.7426 48.0824 75.7426Z" fill="#FFB6B6"/>
  </g>
  <defs>
    <clipPath id="clip0_74_6999">
      <rect width="95.4643" height="99" fill="white" transform="translate(0.414307)"/>
    </clipPath>
  </defs>
</svg>