<svg xmlns="http://www.w3.org/2000/svg" width="100" height="100" viewBox="0 0 100 100" fill="none">
  <g clip-path="url(#clip0_74_6891)">
    <path opacity="0.1" d="M-6.36816 53.9771C-4.18678 63.2919 0.431078 71.3438 7.72792 75.2518C22.8958 83.3627 57.1007 79.1785 82.6277 74.373C95.527 71.9528 107.236 65.266 115.869 55.3893L-6.36816 53.9771Z" fill="#6C63FF"/>
    <path opacity="0.1" d="M127.499 10.132H113.493C113.172 10.132 112.864 10.0047 112.637 9.77795C112.41 9.55124 112.282 9.24375 112.282 8.92312C112.282 8.6025 112.41 8.295 112.637 8.06829C112.864 7.84157 113.172 7.7142 113.493 7.7142H115.914C115.6 7.70408 115.301 7.57222 115.083 7.34649C114.864 7.12076 114.742 6.81887 114.742 6.50466C114.742 6.19045 114.864 5.88855 115.083 5.66283C115.301 5.4371 115.6 5.30523 115.914 5.29511H114.185C113.871 5.28499 113.572 5.15312 113.354 4.92739C113.135 4.70167 113.013 4.39977 113.013 4.08556C113.013 3.77135 113.135 3.46946 113.354 3.24373C113.572 3.018 113.871 2.88614 114.185 2.87602H121.496C119.873 2.1228 117.977 1.58676 115.792 1.30555C95.858 -1.25163 88.7408 0.440606 86.2302 2.18431C83.1328 4.33099 79.6772 5.91024 75.9842 6.67099C63.685 9.20558 40.6837 12.2561 19.8361 5.69432C9.47451 2.43036 1.77432 7.94393 -2.84229 17.1533H129.931C129.757 14.4769 129.238 12.0063 128.286 9.84205C128.067 10.03 127.788 10.1329 127.499 10.132Z" fill="#6C63FF"/>
    <path opacity="0.1" d="M-7.55689 34.535C-8.09486 39.9521 -7.91233 45.4165 -7.01405 50.7858L115.963 55.28C119.386 51.3455 122.261 46.9659 124.507 42.2606L-7.55689 34.535ZM41.082 46.1271H38.6606C38.9815 46.1271 39.2893 46.2545 39.5163 46.4812C39.7432 46.7079 39.8707 47.0154 39.8707 47.336C39.8707 47.6566 39.7432 47.9641 39.5163 48.1908C39.2893 48.4176 38.9815 48.5449 38.6606 48.5449H24.6538C24.3328 48.5449 24.025 48.4176 23.7981 48.1908C23.5712 47.9641 23.4437 47.6566 23.4437 47.336C23.4437 47.0154 23.5712 46.7079 23.7981 46.4812C24.025 46.2545 24.3328 46.1271 24.6538 46.1271H27.0751C26.7608 46.117 26.4627 45.9851 26.2439 45.7594C26.0252 45.5336 25.9028 45.2318 25.9028 44.9175C25.9028 44.6033 26.0252 44.3014 26.2439 44.0757C26.4627 43.85 26.7608 43.7181 27.0751 43.708H25.3461C25.0318 43.6979 24.7337 43.566 24.5149 43.3403C24.2961 43.1146 24.1738 42.8127 24.1738 42.4985C24.1738 42.1842 24.2961 41.8824 24.5149 41.6566C24.7337 41.4309 25.0318 41.299 25.3461 41.2889H39.353C39.6673 41.299 39.9654 41.4309 40.1842 41.6566C40.403 41.8824 40.5253 42.1842 40.5253 42.4985C40.5253 42.8127 40.403 43.1146 40.1842 43.3403C39.9654 43.566 39.6673 43.6979 39.353 43.708H41.082C41.3964 43.7181 41.6944 43.85 41.9132 44.0757C42.132 44.3014 42.2543 44.6033 42.2543 44.9175C42.2543 45.2318 42.132 45.5336 41.9132 45.7594C41.6944 45.9851 41.3964 46.117 41.082 46.1271Z" fill="#6C63FF"/>
    <path opacity="0.1" d="M129.937 17.2338L-4.32384 20.4977C-5.95737 24.6919 -7.03424 29.4309 -7.53687 34.3482H127.585C128.467 31.461 129.119 28.5089 129.536 25.5192C129.938 22.6306 130.099 19.8361 129.937 17.2338ZM19.7204 27.9245H17.299C17.4579 27.9245 17.6153 27.9557 17.7621 28.0165C17.9089 28.0772 18.0423 28.1663 18.1547 28.2786C18.267 28.3908 18.3562 28.5241 18.417 28.6708C18.4778 28.8174 18.5091 28.9746 18.5091 29.1334C18.5091 29.2921 18.4778 29.4493 18.417 29.596C18.3562 29.7427 18.267 29.876 18.1547 29.9882C18.0423 30.1005 17.9089 30.1895 17.7621 30.2503C17.6153 30.311 17.4579 30.3423 17.299 30.3423H3.29216C2.97124 30.3423 2.66345 30.2149 2.43652 29.9882C2.20959 29.7615 2.0821 29.454 2.0821 29.1334C2.0821 28.8128 2.20959 28.5053 2.43652 28.2786C2.66345 28.0518 2.97124 27.9245 3.29216 27.9245H5.71356C5.39921 27.9144 5.10113 27.7825 4.88235 27.5568C4.66357 27.331 4.54124 27.0291 4.54124 26.7149C4.54124 26.4007 4.66357 26.0988 4.88235 25.8731C5.10113 25.6474 5.39921 25.5155 5.71356 25.5054H3.98453C3.67019 25.4953 3.3721 25.3634 3.15332 25.1377C2.93454 24.9119 2.81222 24.61 2.81222 24.2958C2.81222 23.9816 2.93454 23.6797 3.15332 23.454C3.3721 23.2283 3.67019 23.0964 3.98453 23.0863H17.9914C18.3057 23.0964 18.6038 23.2283 18.8226 23.454C19.0414 23.6797 19.1637 23.9816 19.1637 24.2958C19.1637 24.61 19.0414 24.9119 18.8226 25.1377C18.6038 25.3634 18.3057 25.4953 17.9914 25.5054H19.7204C20.0348 25.5155 20.3329 25.6474 20.5516 25.8731C20.7704 26.0988 20.8927 26.4007 20.8927 26.7149C20.8927 27.0291 20.7704 27.331 20.5516 27.5568C20.3329 27.7825 20.0348 27.9144 19.7204 27.9245Z" fill="#6C63FF"/>
    <path opacity="0.1" d="M62.9651 99.2857C87.1732 99.2857 106.798 98.2245 106.798 96.9155C106.798 95.6066 87.1732 94.5454 62.9651 94.5454C38.7571 94.5454 19.1326 95.6066 19.1326 96.9155C19.1326 98.2245 38.7571 99.2857 62.9651 99.2857Z" fill="#6C63FF"/>
    <path d="M99.3538 79.4873C99.3538 79.4873 100.044 80.3899 99.0346 81.747C98.0256 83.104 97.1937 84.2577 97.5267 85.1076C97.5267 85.1076 99.0484 82.578 100.291 82.5429C101.534 82.5077 100.716 81.0088 99.3538 79.4873Z" fill="#6C63FF"/>
    <path opacity="0.1" d="M99.3538 79.4873C99.4134 79.5746 99.4607 79.6697 99.4946 79.7698C100.703 81.1896 101.347 82.514 100.186 82.5466C99.1025 82.578 97.8045 84.5113 97.4941 84.9996C97.504 85.0376 97.5162 85.0749 97.5306 85.1113C97.5306 85.1113 99.0523 82.5818 100.295 82.5466C101.538 82.5115 100.716 81.0088 99.3538 79.4873Z" fill="black"/>
    <path d="M95.7073 79.4873C95.7073 79.4873 95.0174 80.3899 96.0264 81.747C97.0355 83.104 97.866 84.2577 97.5343 85.1076C97.5343 85.1076 96.0114 82.578 94.7699 82.5429C93.5284 82.5077 94.3439 81.0088 95.7073 79.4873Z" fill="#6C63FF"/>
    <path opacity="0.1" d="M95.7073 79.4873C95.6472 79.5743 95.5998 79.6694 95.5666 79.7698C94.3578 81.1896 93.7132 82.514 94.8755 82.5466C95.9574 82.578 97.2629 84.5113 97.567 84.9996C97.557 85.0373 97.5444 85.0737 97.5306 85.1113C97.5306 85.1113 96.0076 82.5818 94.7662 82.5466C93.5247 82.5115 94.3439 81.0088 95.7073 79.4873Z" fill="black"/>
    <path d="M94.4243 80.6372C94.4243 80.9548 94.4595 81.2121 94.5035 81.2121C94.5475 81.2121 94.5839 80.9548 94.5839 80.6372C94.5839 80.3196 94.5387 80.4689 94.4947 80.4689C94.4507 80.4689 94.4243 80.3196 94.4243 80.6372Z" fill="#FFD037"/>
    <path d="M93.9832 81.0163C94.2621 81.1682 94.5059 81.2598 94.5273 81.2209C94.5486 81.182 94.3388 81.0276 94.0598 80.8757C93.7809 80.7238 93.8915 80.8342 93.8701 80.8757C93.8487 80.9171 93.7042 80.8644 93.9832 81.0163Z" fill="#FFD037"/>
    <path d="M94.644 84.9934C94.644 84.9934 96.5741 84.9332 97.1572 84.5202C97.7402 84.1071 100.126 83.6113 100.271 84.2691C100.415 84.9269 103.171 87.5694 100.992 87.587C98.8133 87.6046 95.9295 87.2481 95.349 86.8953C94.7684 86.5426 94.644 84.9934 94.644 84.9934Z" fill="#A8A8A8"/>
    <path opacity="0.2" d="M101.03 87.3623C98.8512 87.3799 95.9674 87.0234 95.3869 86.6706C94.9446 86.4007 94.7687 85.4354 94.7096 84.991H94.6455C94.6455 84.991 94.7712 86.5451 95.3479 86.8991C95.9247 87.2531 98.8123 87.6084 100.991 87.5908C101.619 87.5908 101.838 87.3624 101.825 87.0309C101.738 87.2343 101.498 87.3586 101.03 87.3623Z" fill="black"/>
    <path d="M25.9732 85.699C26.2038 85.5109 26.372 85.2575 26.4557 84.9721C26.5173 84.6847 26.3942 84.3444 26.119 84.2327C25.8098 84.1147 25.4794 84.3294 25.2281 84.5453C24.9768 84.7612 24.6915 85.0085 24.3635 84.9621C24.5322 84.8095 24.6584 84.6158 24.7297 84.4C24.8011 84.1841 24.8152 83.9535 24.7707 83.7306C24.7564 83.6382 24.7173 83.5514 24.6576 83.4795C24.4854 83.2962 24.1751 83.374 23.969 83.5184C23.3156 83.9779 23.1334 84.8654 23.1296 85.6626C23.0643 85.3751 23.1196 85.0751 23.1183 84.7838C23.117 84.4926 23.0354 84.1561 22.7866 84.0017C22.6322 83.9194 22.4589 83.8787 22.2839 83.8837C21.9899 83.8724 21.6632 83.9026 21.4622 84.116C21.2108 84.3834 21.2774 84.8303 21.4948 85.1203C21.7122 85.4103 22.0414 85.5986 22.3443 85.8007C22.588 85.9454 22.7959 86.1432 22.9524 86.3794C22.9702 86.4129 22.9853 86.4477 22.9977 86.4836H24.8385C25.2504 86.2744 25.6321 86.0104 25.9732 85.699Z" fill="#6C63FF"/>
    <path d="M11.343 87.6799C11.343 87.6799 9.57624 81.6905 11.6734 77.2829C12.5662 75.4394 12.8361 73.3562 12.4424 71.3463C12.2483 70.3944 11.9669 69.4623 11.6018 68.5619" stroke="#535461" stroke-width="1.42857" stroke-miterlimit="10"/>
    <path d="M12.9023 65.775C12.9023 66.5094 11.5729 68.6385 11.5729 68.6385C11.5729 68.6385 10.2422 66.5044 10.2422 65.775C10.2528 65.4297 10.3976 65.102 10.6459 64.8615C10.8942 64.621 11.2264 64.4865 11.5723 64.4865C11.9181 64.4865 12.2504 64.621 12.4986 64.8615C12.7469 65.102 12.8917 65.4297 12.9023 65.775Z" fill="#6C63FF"/>
    <path d="M15.1014 69.841C14.7031 70.4574 12.4275 71.522 12.4275 71.522C12.4275 71.522 12.469 69.0112 12.8685 68.3961C13.0649 68.1108 13.3649 67.9132 13.7048 67.8455C14.0447 67.7778 14.3976 67.8452 14.6885 68.0334C14.9794 68.2217 15.1853 68.5159 15.2624 68.8535C15.3396 69.191 15.2818 69.5454 15.1014 69.841Z" fill="#6C63FF"/>
    <path d="M15.0059 76.7896C14.35 77.1197 11.8481 76.8913 11.8481 76.8913C11.8481 76.8913 13.1525 74.7459 13.8084 74.4157C13.9648 74.3329 14.1362 74.2822 14.3125 74.2664C14.4888 74.2506 14.6665 74.2702 14.8352 74.3239C15.0038 74.3776 15.1601 74.4643 15.2947 74.5791C15.4294 74.6939 15.5398 74.8343 15.6195 74.9922C15.6991 75.1502 15.7465 75.3224 15.7587 75.4988C15.7709 75.6752 15.7478 75.8523 15.6906 76.0197C15.6335 76.1871 15.5435 76.3414 15.4259 76.4736C15.3083 76.6058 15.1655 76.7132 15.0059 76.7896Z" fill="#6C63FF"/>
    <path d="M13.7482 82.0307C13.1576 82.4676 10.6533 82.6584 10.6533 82.6584C10.6533 82.6584 11.5756 80.3247 12.1612 79.8878C12.3006 79.7737 12.4618 79.689 12.6349 79.6389C12.8081 79.5889 12.9896 79.5745 13.1685 79.5966C13.3474 79.6188 13.5199 79.677 13.6756 79.7678C13.8313 79.8586 13.9669 79.98 14.0741 80.1248C14.1814 80.2695 14.2582 80.4345 14.2997 80.6097C14.3412 80.785 14.3467 80.9668 14.3157 81.1442C14.2848 81.3216 14.2181 81.4909 14.1196 81.6418C14.0212 81.7927 13.8932 81.922 13.7432 82.0219L13.7482 82.0307Z" fill="#6C63FF"/>
    <path d="M9.63527 71.6638C10.1618 72.1747 12.6171 72.7057 12.6171 72.7057C12.6171 72.7057 12.0152 70.2691 11.4862 69.7569C11.362 69.63 11.2136 69.5293 11.0498 69.4607C10.886 69.392 10.7101 69.3568 10.5325 69.3572C10.3549 69.3575 10.1792 69.3934 10.0156 69.4626C9.8521 69.5319 9.70411 69.6332 9.58037 69.7605C9.45664 69.8878 9.35967 70.0385 9.29517 70.2039C9.23068 70.3692 9.19997 70.5458 9.20485 70.7232C9.20973 70.9005 9.25011 71.0751 9.3236 71.2367C9.39709 71.3982 9.50221 71.5434 9.63276 71.6638H9.63527Z" fill="#6C63FF"/>
    <path d="M8.24186 77.8114C8.89778 78.1416 11.3996 77.9131 11.3996 77.9131C11.3996 77.9131 10.0953 75.7689 9.43936 75.4375C9.12525 75.2872 8.76469 75.266 8.43508 75.3783C8.10546 75.4906 7.83305 75.7276 7.67631 76.0383C7.51958 76.349 7.49101 76.7087 7.59675 77.0402C7.70248 77.3717 7.93409 77.6486 8.24186 77.8114Z" fill="#6C63FF"/>
    <path d="M7.70918 83.9728C8.29977 84.4084 10.8028 84.6005 10.8028 84.6005C10.8028 84.6005 9.88177 82.2668 9.29496 81.8299C9.01078 81.6405 8.6646 81.5676 8.32807 81.6262C7.99155 81.6848 7.69046 81.8704 7.48716 82.1447C7.28386 82.4189 7.19391 82.7608 7.23595 83.0995C7.27798 83.4381 7.44877 83.7477 7.71295 83.964L7.70918 83.9728Z" fill="#6C63FF"/>
    <path d="M12.9023 65.775C12.9023 66.5094 11.5729 68.6385 11.5729 68.6385C11.5729 68.6385 10.2422 66.5044 10.2422 65.775C10.2528 65.4297 10.3976 65.102 10.6459 64.8615C10.8942 64.621 11.2264 64.4865 11.5723 64.4865C11.9181 64.4865 12.2504 64.621 12.4986 64.8615C12.7469 65.102 12.8917 65.4297 12.9023 65.775Z" fill="#6C63FF"/>
    <path d="M15.1014 69.841C14.7031 70.4574 12.4275 71.522 12.4275 71.522C12.4275 71.522 12.469 69.0112 12.8685 68.3961C13.0649 68.1108 13.3649 67.9132 13.7048 67.8455C14.0447 67.7778 14.3976 67.8452 14.6885 68.0334C14.9794 68.2217 15.1853 68.5159 15.2624 68.8535C15.3396 69.191 15.2818 69.5454 15.1014 69.841Z" fill="#6C63FF"/>
    <path d="M15.0059 76.7896C14.35 77.1197 11.8481 76.8913 11.8481 76.8913C11.8481 76.8913 13.1525 74.7459 13.8084 74.4157C13.9648 74.3329 14.1362 74.2822 14.3125 74.2664C14.4888 74.2506 14.6665 74.2702 14.8352 74.3239C15.0038 74.3776 15.1601 74.4643 15.2947 74.5791C15.4294 74.6939 15.5398 74.8343 15.6195 74.9922C15.6991 75.1502 15.7465 75.3224 15.7587 75.4988C15.7709 75.6752 15.7478 75.8523 15.6906 76.0197C15.6335 76.1871 15.5435 76.3414 15.4259 76.4736C15.3083 76.6058 15.1655 76.7132 15.0059 76.7896Z" fill="#6C63FF"/>
    <path d="M13.7482 82.0307C13.1576 82.4676 10.6533 82.6584 10.6533 82.6584C10.6533 82.6584 11.5756 80.3247 12.1612 79.8878C12.3006 79.7737 12.4618 79.689 12.6349 79.6389C12.8081 79.5889 12.9896 79.5745 13.1685 79.5966C13.3474 79.6188 13.5199 79.677 13.6756 79.7678C13.8313 79.8586 13.9669 79.98 14.0741 80.1248C14.1814 80.2695 14.2582 80.4345 14.2997 80.6097C14.3412 80.785 14.3467 80.9668 14.3157 81.1442C14.2848 81.3216 14.2181 81.4909 14.1196 81.6418C14.0212 81.7927 13.8932 81.922 13.7432 82.0219L13.7482 82.0307Z" fill="#6C63FF"/>
    <path d="M9.63527 71.6638C10.1618 72.1747 12.6171 72.7057 12.6171 72.7057C12.6171 72.7057 12.0152 70.2691 11.4862 69.7569C11.362 69.63 11.2136 69.5293 11.0498 69.4607C10.886 69.392 10.7101 69.3568 10.5325 69.3572C10.3549 69.3575 10.1792 69.3934 10.0156 69.4626C9.8521 69.5319 9.70411 69.6332 9.58037 69.7605C9.45664 69.8878 9.35967 70.0385 9.29517 70.2039C9.23068 70.3692 9.19997 70.5458 9.20485 70.7232C9.20973 70.9005 9.25011 71.0751 9.3236 71.2367C9.39709 71.3982 9.50221 71.5434 9.63276 71.6638H9.63527Z" fill="#6C63FF"/>
    <path d="M8.24186 77.8114C8.89778 78.1416 11.3996 77.9131 11.3996 77.9131C11.3996 77.9131 10.0953 75.7689 9.43936 75.4375C9.12525 75.2872 8.76469 75.266 8.43508 75.3783C8.10546 75.4906 7.83305 75.7276 7.67631 76.0383C7.51958 76.349 7.49101 76.7087 7.59675 77.0402C7.70248 77.3717 7.93409 77.6486 8.24186 77.8114Z" fill="#6C63FF"/>
    <path d="M7.70918 83.9728C8.29977 84.4084 10.8028 84.6005 10.8028 84.6005C10.8028 84.6005 9.88177 82.2668 9.29496 81.8299C9.01078 81.6405 8.6646 81.5676 8.32807 81.6262C7.99155 81.6848 7.69046 81.8704 7.48716 82.1447C7.28386 82.4189 7.19391 82.7608 7.23595 83.0995C7.27798 83.4381 7.44877 83.7477 7.71295 83.964L7.70918 83.9728Z" fill="#6C63FF"/>
    <path d="M7.16504 87.3032C7.16504 87.3032 9.31627 86.8764 9.88926 86.3077C10.4623 85.739 13.0432 84.7435 13.3297 85.454C13.6162 86.1646 17.1999 88.5824 14.7622 89.0092C12.3245 89.4361 9.02852 89.5779 8.31228 89.2929C7.59604 89.008 7.16504 87.3032 7.16504 87.3032Z" fill="#A8A8A8"/>
    <path opacity="0.2" d="M14.766 88.7431C12.3295 89.1699 9.03229 89.3118 8.31605 89.0281C7.7707 88.8109 7.39122 87.7727 7.24169 87.2869L7.16504 87.3032C7.16504 87.3032 7.59604 89.0092 8.31228 89.2929C9.02852 89.5767 12.3257 89.4348 14.7622 89.0092C15.4659 88.8837 15.6669 88.5962 15.5915 88.2309C15.535 88.4682 15.29 88.6514 14.766 88.7431Z" fill="black"/>
    <path d="M83.1517 32.8881C83.8265 32.1349 83.5626 30.9611 83.5626 30.9611C83.5626 30.9611 80.3785 22.8539 80.0254 22.7648C79.6723 22.6757 78.7864 20.6307 78.7864 20.6307C78.7864 20.6307 70.2958 12.5675 69.9905 12.5675C69.6851 12.5675 66.5852 10.3404 66.1881 10.2965C65.7911 10.2526 65.1703 10.0291 64.5069 9.66882C63.8434 9.30853 57.1208 9.71401 56.8557 10.0253C56.5905 10.3367 55.3478 10.5601 55.3478 10.5601C55.3478 10.5601 52.8271 10.6932 52.4728 11.1389C52.1184 11.5845 49.5111 11.8205 49.5111 11.8205C49.5111 11.8205 48.2281 12.2976 49.9697 13.5642C49.4118 13.6521 48.7597 13.7199 48.0975 13.7676C47.9316 13.7789 47.7632 13.7902 47.5948 13.799H47.4956C47.3844 13.4631 47.1675 13.172 46.8773 12.9692C46.6876 12.8663 46.4916 12.7753 46.2905 12.6968C45.9791 12.5313 45.6874 12.3313 45.421 12.1005C44.1318 11.0762 42.7562 10.1656 41.3095 9.37883C41.0862 9.23915 40.8371 9.14566 40.5769 9.10391C40.0379 9.05244 39.5566 9.4303 39.0289 9.55709C38.1015 9.77929 37.1666 9.21438 36.2129 9.20559C35.0217 9.19429 33.9373 10.1208 33.5741 11.2631C33.4397 11.6862 33.3794 12.157 33.0891 12.4921C32.7121 12.9303 32.0751 12.9943 31.5586 13.2541C31.1844 13.4491 30.8708 13.7429 30.652 14.1034C30.4331 14.4639 30.3173 14.8775 30.3171 15.2991V15.3092C30.3171 15.3757 30.3171 15.4423 30.3284 15.5088C30.3875 16.0461 30.6363 16.542 30.8185 17.0516C31.0057 17.5739 31.124 18.1183 31.1703 18.6711C31.171 18.6769 31.171 18.6828 31.1703 18.6886C31.1779 18.7803 31.1842 18.8719 31.1879 18.9648C31.1879 18.9836 31.1879 19.0037 31.1879 19.0238C31.1879 19.1117 31.1879 19.2008 31.1879 19.29C31.1879 19.7695 31.1716 20.2528 31.1729 20.7324V20.7575V20.9747C31.1729 20.9922 31.1729 21.0098 31.1729 21.0274C31.1729 21.0914 31.1729 21.1529 31.1804 21.2207V21.2885C31.1804 21.3475 31.1892 21.4078 31.1955 21.4668C31.1955 21.4919 31.1955 21.5182 31.2018 21.5433C31.2018 21.6011 31.2156 21.6576 31.2231 21.7141L31.2344 21.7944C31.2432 21.8509 31.2533 21.9074 31.2633 21.9639L31.2784 22.0417C31.291 22.102 31.306 22.1673 31.3211 22.2225C31.3274 22.2438 31.3312 22.2639 31.3362 22.2853C31.3588 22.3689 31.384 22.4493 31.4116 22.5263C31.5997 23.0534 31.9104 23.5284 32.318 23.9123C32.7256 24.2961 33.2185 24.5779 33.7563 24.7345C33.9588 24.7903 34.1683 24.8165 34.3783 24.8123C34.7553 24.8035 35.1159 24.6868 35.3396 24.4294C35.3949 24.4922 35.4489 24.555 35.5067 24.6177C36.3263 25.5082 37.3487 26.1881 38.4872 26.5998C39.6258 27.0114 40.8469 27.1428 42.047 26.9826C43.2472 26.8225 44.391 26.3756 45.3815 25.6798C46.372 24.984 47.1799 24.0599 47.7368 22.9858C47.8688 22.9569 47.9994 22.9305 48.1314 22.9054C48.3601 22.8627 48.59 22.8226 48.8212 22.7799L49.0436 22.7447L49.1316 22.7297C50.2625 22.5514 51.3607 22.4321 52.1473 22.353L49.0386 22.7384C49.0386 22.7384 48.2847 26.3552 48.0673 26.7556C47.8499 27.1561 48.8212 27.8239 48.8212 27.8239C48.8212 27.8239 49.6619 28.8483 49.6619 29.1609C49.6619 29.4735 50.6344 30.3635 50.8996 30.8531C50.9333 30.9152 50.9756 30.9723 51.0252 31.0226C50.829 31.0985 50.6477 31.2086 50.4899 31.3477C49.8755 31.929 50.0803 32.9483 49.7988 33.7468C49.6229 34.2489 49.2547 34.6556 48.9004 35.0511C48.7731 35.1802 48.6664 35.3279 48.5837 35.4892C48.5377 35.5961 48.5092 35.7097 48.4996 35.8256C48.4933 35.8899 48.4907 35.9544 48.492 36.019V36.0416C48.492 36.0918 48.492 36.1407 48.5021 36.1897C48.5021 36.211 48.5021 36.2324 48.5021 36.2537C48.5636 36.7785 48.7421 37.2856 48.7961 37.8104C48.8501 38.3351 48.7848 38.8636 48.8929 39.3746C48.9303 39.5527 48.9885 39.7259 49.0663 39.8905L47.2669 41.8991C47.2669 41.8991 47.2556 41.9983 47.2518 42.1615C45.7515 43.4056 43.4318 45.7531 44.2599 47.8232C44.3504 48.05 44.4342 48.2672 44.5112 48.4747C43.9018 48.8626 43.7008 49.3233 44.6143 49.7828C44.7588 49.8556 44.8983 49.9184 45.0352 49.9749C45.5039 51.3495 45.6874 51.7324 46.4727 50.7193C46.5569 50.6088 46.6549 50.4682 46.7617 50.3163C47.8675 50.2937 48.5071 49.7828 48.5071 49.7828C48.5071 49.7828 51.602 49.6045 52.4024 50.0954C52.8033 50.3465 53.7457 50.3967 54.58 50.3904C54.5689 51.2884 54.6108 52.1863 54.7057 53.0794C54.7057 53.0794 54.5725 56.8656 54.9269 57.6678C55.2812 58.47 55.4772 59.8509 55.4772 59.8509C55.4772 59.8509 54.8829 61.1866 55.236 61.8996C55.5891 62.6127 54.9269 63.637 54.9269 63.637V66.2645L55.1782 66.247C55.1593 66.424 55.1354 66.6098 55.104 66.7868C55.0312 67.1973 54.9218 67.5651 54.7534 67.6843C54.3111 68.0019 54.2672 69.6929 54.2672 69.6929C54.2672 69.6929 53.5597 71.7429 53.6917 72.0995C53.8236 72.456 52.8523 73.1678 53.0734 73.7026C53.2946 74.2374 53.747 77.6218 54.1403 78.5985C54.5336 79.5752 53.3386 79.3116 53.3386 79.3116L53.6917 81.8499C53.6917 81.8499 54.046 84.4334 53.7809 84.6117C53.5157 84.79 51.9903 86.0817 53.0395 86.8387C53.1212 86.8977 53.2041 86.9517 53.2908 87.0032C53.2955 87.1204 53.2925 87.2378 53.282 87.3547C53.2619 87.5543 53.2117 87.7137 53.0998 87.7313C52.7882 87.7765 52.1687 88.0878 52.038 87.9548C51.9073 87.8217 51.1584 88.2912 50.4045 88.4444L50.3002 88.4607L49.3213 88.2096C47.9051 87.6706 46.3504 87.6132 44.8983 88.0464C44.8983 88.0464 44.1883 88.1569 43.844 88.6866C43.6693 88.9578 43.5927 89.3394 43.7485 89.8717C44.221 91.4459 47.4415 91.9882 47.4415 91.9882C47.4415 91.9882 48.5574 92.218 49.8981 92.5218C49.8541 92.5218 49.8089 92.5218 49.7637 92.5218C49.3936 92.5192 49.0361 92.6553 48.7616 92.9033C48.4871 93.1512 48.3156 93.493 48.281 93.861C48.2463 94.2291 48.3511 94.5968 48.5745 94.8915C48.798 95.1862 49.1239 95.3865 49.4879 95.4529C49.8519 95.5192 50.2277 95.4469 50.5409 95.25C50.8541 95.0532 51.0821 94.7462 51.1799 94.3896C51.2776 94.033 51.238 93.6528 51.0689 93.324C50.8997 92.9951 50.6134 92.7416 50.2663 92.6134C51.7741 92.9599 53.4441 93.3817 54.1227 93.6792C54.6279 93.8693 55.1455 94.0245 55.672 94.1437C55.698 94.4553 55.8228 94.7504 56.0282 94.9862C56.2337 95.222 56.5091 95.3862 56.8144 95.4548C57.1197 95.5234 57.439 95.4929 57.7257 95.3677C58.0125 95.2426 58.2518 95.0293 58.4088 94.7588C60.4607 95.1869 62.4373 95.5497 62.4373 95.5497L65.7383 95.6037H65.7609C65.3719 95.6064 64.9998 95.763 64.7261 96.0392C64.4524 96.3154 64.2995 96.6888 64.3008 97.0775C64.3021 97.4661 64.4576 97.8384 64.7332 98.1128C65.0087 98.3872 65.3819 98.5412 65.771 98.5412C66.16 98.5412 66.5332 98.3872 66.8088 98.1128C67.0843 97.8384 67.2398 97.4661 67.2411 97.0775C67.2425 96.6888 67.0895 96.3154 66.8158 96.0392C66.5422 95.763 66.17 95.6064 65.781 95.6037L70.7784 95.6853C70.7184 95.8885 70.7029 96.1022 70.7331 96.3119C70.7632 96.5215 70.8383 96.7222 70.9531 96.9003C71.0679 97.0784 71.2198 97.2297 71.3984 97.3438C71.577 97.458 71.7782 97.5323 71.9881 97.5617C72.1981 97.5912 72.412 97.5751 72.6151 97.5145C72.8183 97.4539 73.006 97.3503 73.1655 97.2107C73.325 97.0711 73.4524 96.8988 73.5392 96.7056C73.626 96.5123 73.6701 96.3026 73.6684 96.0908C73.6682 95.9697 73.653 95.8491 73.6232 95.7318L78.0312 95.8033L78.9108 94.8367C78.96 94.7428 78.9895 94.6398 78.9975 94.5341C79.0239 94.2165 78.8593 93.7345 77.7334 93.5298C77.6505 93.5148 75.3535 93.5512 73.3241 93.5851V92.7892C73.3241 92.7892 73.2676 92.351 73.2324 91.8351C73.2224 91.6832 73.2136 91.525 73.2098 91.3694C73.3246 91.4479 73.4521 91.5061 73.5868 91.5413C74.4274 91.6757 75.5772 89.2252 75.5772 89.2252C75.5772 89.2252 75.5772 87.8443 75.8423 86.7308C76.1074 85.6173 76.5962 81.875 76.5962 81.875L77.6593 77.377C77.6593 77.377 78.0991 68.2003 77.8779 67.8438C77.6568 67.4873 78.1443 66.8633 78.1443 66.8633C78.1443 66.8633 78.4974 64.9037 77.9671 64.2359C77.4369 63.568 78.2762 62.8989 78.2762 62.8989C78.2762 62.8989 78.4974 60.5827 77.8779 59.6927C77.2584 58.8026 78.1682 58.1787 78.1682 58.1787L78.3893 54.5708C79.3179 53.6355 80.1573 48.068 80.2025 46.8653C80.2142 46.1884 80.3647 45.521 80.6449 44.9045C80.6449 44.9045 81.2631 43.9692 81.3523 43.3453C81.4415 42.7214 82.1062 41.4309 82.1062 41.4309L83.256 37.1538C83.7197 35.4289 83.6015 34.1535 83.2937 33.2446C83.2484 33.1166 83.2007 32.9998 83.1517 32.8881ZM62.3795 33.1392C63.0869 33.5848 62.8658 33.7179 63.087 33.9853C63.3081 34.2527 63.1309 34.2075 62.9538 34.6531C62.7766 35.0988 62.9098 34.9657 62.9977 35.4553C63.0857 35.9449 63.043 35.9449 63.043 35.9449L63.2641 35.9763L62.9563 38.0439C62.4536 38.3715 62.2237 38.9992 62.1194 39.647C61.8229 39.2603 61.5238 38.8586 61.2561 38.4845C61.3479 38.2799 61.3303 38.0363 61.3328 37.8066C61.3429 37.0534 61.6243 36.3341 61.7537 35.5921C61.8859 34.8374 61.8616 34.0636 61.6821 33.3187C61.6177 33.0384 61.5185 32.7672 61.3868 32.5115C61.6733 32.7023 62.0365 32.9283 62.3795 33.1442V33.1392ZM63.1749 76.792C63.1749 76.792 63.7341 76.4154 64.2769 76.0727C64.4591 77.3946 64.6313 78.7692 64.7532 80.012C64.5584 79.5802 64.4227 79.2864 64.4227 79.2864C64.2232 79.0469 64.1037 78.7511 64.0809 78.4403C64.0595 77.9558 63.1749 76.7971 63.1749 76.7971V76.792ZM59.8588 31.0063C59.9845 31.0239 60.1629 31.1833 60.3313 31.3741C60.1755 31.2486 60.0184 31.123 59.8576 31.005L59.8588 31.0063ZM51.7654 47.4867C51.2552 47.6474 49.5262 47.6236 48.4983 47.5633C48.8828 46.9068 49.2648 46.2389 49.6041 45.6401C49.8042 45.6919 50.0079 45.7284 50.2135 45.7493L53.5798 42.7954C54.8461 43.2391 56.2273 43.2303 57.4877 42.7703L57.5795 42.9134C57.6184 42.9762 57.6599 43.039 57.7051 43.1093L57.6209 42.9724C57.6209 42.9724 56.3216 43.7458 56.4536 44.1023C56.5855 44.4588 56.2777 45.3489 55.7914 46.3029C55.6657 46.5415 55.5564 46.7775 55.4508 47.0147C54.3501 47.1177 52.2755 47.3261 51.7654 47.4867ZM58.1524 88.6427L58.1336 88.2899C58.3472 88.2435 58.4879 88.2008 58.4879 88.2008C58.4438 87.6773 58.3699 87.1568 58.2668 86.6416C58.1336 86.1068 58.2027 86.2851 58.7204 85.8884C59.2381 85.4917 58.7204 80.9925 58.7204 80.9925C58.7204 80.9925 58.9717 80.6799 59.3701 81.4821C59.7684 82.2843 60.168 82.7739 60.3012 82.8178C60.4344 82.8617 59.7696 83.7543 60.3012 84.6004C60.6312 85.1477 60.8558 85.7519 60.9634 86.3818C60.9634 86.3818 60.6103 87.7966 61.1405 88.4255C61.2122 88.4988 61.2976 88.5573 61.3919 88.5975C61.3919 88.7142 61.3919 88.8385 61.3919 88.9553C61.3919 89.19 61.3919 89.3909 61.3805 89.4336C61.3754 89.4637 61.3626 89.4919 61.3433 89.5156C61.324 89.5392 61.2989 89.5575 61.2704 89.5686C61.242 89.5798 61.2111 89.5833 61.1809 89.579C61.1506 89.5747 61.122 89.5627 61.0978 89.544C60.9609 89.4549 60.0926 89.6545 60.1516 90.2132C59.9463 90.4556 59.7135 90.6733 59.458 90.8622L58.253 90.5508L58.1524 88.6427Z" fill="url(#paint0_linear_74_6891)"/>
    <path d="M47.2995 42.4942C47.2995 42.4942 46.8786 45.9402 50.2173 46.2929L50.7199 43.9077L49.6682 42.4942L48.1615 41.9845L47.2995 42.4942Z" fill="#6C63FF"/>
    <path opacity="0.1" d="M48.1615 41.9845L47.2995 42.4929C47.2995 42.4929 46.8786 45.9389 50.2173 46.2917" fill="black"/>
    <path d="M53.3573 23.0097C53.3573 23.0097 51.1043 23.1478 48.845 23.5219C48.6138 23.5612 48.3838 23.603 48.1551 23.6474C48.0219 23.6725 47.8913 23.6989 47.7606 23.7277C46.5769 23.9713 45.4988 24.2876 44.8705 24.6919C44.1166 25.1752 43.8652 23.8734 43.8414 22.0644C43.8313 21.4279 43.8527 20.7299 43.8866 20.0244C43.9306 19.2084 43.9947 18.3824 44.0625 17.6392C44.212 15.9922 44.3842 14.7117 44.3842 14.7117C44.3842 14.7117 45.1733 14.7117 46.2276 14.6753L46.5668 14.6627C46.8973 14.6502 47.2479 14.6326 47.601 14.6113C47.7681 14.6025 47.9365 14.5924 48.1036 14.5799C48.7721 14.5322 49.4318 14.4644 49.9885 14.3765C50.5815 14.2811 51.0628 14.1606 51.3242 13.9999C52.5179 13.2894 53.3573 23.0097 53.3573 23.0097Z" fill="#F8BDC5"/>
    <path d="M63.3961 35.734L62.9563 38.6502C62.9563 38.6502 61.9975 39.8428 62.1232 40.5057C62.2488 41.1685 63.3546 70.4612 63.3546 70.4612C63.3546 70.4612 65.5222 82.8316 64.7695 84.4222C64.0168 86.0127 64.7255 89.7248 64.7255 89.7248L69.2366 89.0181L70.7444 34.9381L63.3961 35.734Z" fill="#474463"/>
    <path opacity="0.1" d="M63.3961 35.734L62.9563 38.6502C62.9563 38.6502 61.9975 39.8428 62.1232 40.5057C62.2488 41.1685 63.3546 70.4612 63.3546 70.4612C63.3546 70.4612 65.5222 82.8316 64.7695 84.4222C64.0168 86.0127 64.7255 89.7248 64.7255 89.7248L69.2366 89.0181L70.7444 34.9381L63.3961 35.734Z" fill="black"/>
    <path d="M73.3467 90.4755C73.2034 90.7128 73.2148 91.4108 73.255 92.0046C73.2902 92.5155 73.3467 92.9499 73.3467 92.9499V95.9539C73.3467 95.9539 68.5265 94.2755 65.8727 92.508C64.7782 91.7786 64.4666 91.1007 64.5269 90.5584C64.6149 89.7863 65.4568 89.2829 65.8727 89.2829C66.2698 89.2829 67.5238 88.5912 68.5517 87.9799C69.3596 87.5016 70.0306 87.0735 70.0306 87.0735C70.0306 87.0735 73.6118 90.0336 73.3467 90.4755Z" fill="#575988"/>
    <path opacity="0.1" d="M73.3468 90.4755C73.2035 90.7128 73.2148 91.4108 73.2551 92.0046C72.1832 91.5024 68.8646 88.2862 68.5518 87.9799C69.3597 87.5016 70.0307 87.0735 70.0307 87.0735C70.0307 87.0735 73.6119 90.0336 73.3468 90.4755Z" fill="black"/>
    <path d="M83.2534 37.7664L82.1036 42.0083C82.1036 42.0083 81.4402 43.2888 81.3497 43.9076C81.2592 44.5265 80.6422 45.4543 80.6422 45.4543C80.363 46.0649 80.2125 46.7264 80.1999 47.3976C80.156 48.5914 79.3203 54.1138 78.3867 55.0415L78.1656 58.6206C78.1656 58.6206 77.286 59.2382 77.9004 60.127C78.5149 61.0158 78.2988 63.3081 78.2988 63.3081C78.2988 63.3081 77.4581 63.9709 77.9897 64.6338C78.5212 65.2966 78.1656 67.2412 78.1656 67.2412C78.1656 67.2412 77.6793 67.8588 77.9004 68.2128C78.1216 68.5668 77.6818 77.6682 77.6818 77.6682L76.6187 82.1298C76.6187 82.1298 76.1312 85.8419 75.8648 86.9466C75.5984 88.0514 75.5997 89.4197 75.5997 89.4197C75.5997 89.4197 74.4499 91.8501 73.6093 91.7183C72.7687 91.5865 68.7012 87.6082 68.7012 87.6082L69.2754 74.1758C69.2754 74.1758 69.7617 68.4764 69.4526 67.3717C69.1435 66.267 68.9223 60.7446 68.9223 60.7446L68.3028 52.0412L62.1181 42.3209C62.1181 42.3209 61.6695 39.4925 62.9512 38.6539L63.1836 37.1262L63.3935 35.7377L70.7355 34.9418L81.9679 32.0269C81.9679 32.0269 82.8337 32.5604 83.2873 33.8923C83.5977 34.7899 83.7171 36.0553 83.2534 37.7664Z" fill="#474463"/>
    <path d="M63.7103 42.2355C63.7103 42.2355 58.4918 48.6379 58.7129 46.849C58.8512 45.7254 58.1374 44.3533 57.582 43.4858C57.2541 42.9699 56.9827 42.6322 56.9827 42.6322C56.9827 42.6322 60.1668 36.801 60.344 37.5957C60.4005 37.8467 60.7687 38.4229 61.2424 39.0808C62.2414 40.4592 63.7103 42.2355 63.7103 42.2355Z" fill="#FFC1C8"/>
    <path opacity="0.3" d="M73.3467 95.3287V95.9564C73.3467 95.9564 68.5265 94.2779 65.8727 92.5104C64.7782 91.781 64.4666 91.1031 64.5269 90.5608C65.9921 91.3015 68.7175 92.7137 69.5431 93.3502C70.2442 93.89 72.0562 94.7449 73.3467 95.3287Z" fill="white"/>
    <path d="M72.212 97.7128C73.026 97.7128 73.6859 97.0535 73.6859 96.2402C73.6859 95.427 73.026 94.7677 72.212 94.7677C71.3979 94.7677 70.738 95.427 70.738 96.2402C70.738 97.0535 71.3979 97.7128 72.212 97.7128Z" fill="#474463"/>
    <path d="M57.1561 95.6452C57.9701 95.6452 58.63 94.9859 58.63 94.1726C58.63 93.3594 57.9701 92.7001 57.1561 92.7001C56.342 92.7001 55.6821 93.3594 55.6821 94.1726C55.6821 94.9859 56.342 95.6452 57.1561 95.6452Z" fill="#474463"/>
    <path d="M79.0201 94.6961C79.0118 94.8009 78.9823 94.903 78.9334 94.9961L78.0538 95.9539L65.7596 95.7568L62.4536 95.7029C62.4536 95.7029 55.4948 94.4374 54.1389 93.8474C52.7831 93.2574 47.4528 92.1778 47.4528 92.1778C47.4528 92.1778 44.2335 91.638 43.761 90.0776C43.6014 89.549 43.6819 89.1712 43.8565 88.9025C44.1996 88.3765 44.9108 88.2661 44.9108 88.2661C46.3635 87.8374 47.9167 87.8947 49.3339 88.4293L69.9414 93.7256L70.2606 93.8073C70.2606 93.8073 77.6065 93.6704 77.7547 93.6968C78.8819 93.9027 79.0465 94.381 79.0201 94.6961Z" fill="#6C63FF"/>
    <path opacity="0.3" d="M79.0201 94.6961C77.7836 94.5354 75.6274 94.2982 75.072 94.5266C75.072 94.5266 71.1502 94.0421 65.7546 95.7569L62.4536 95.7029C62.4536 95.7029 55.4948 94.4375 54.1389 93.8475C52.7831 93.2575 47.4528 92.1778 47.4528 92.1778C47.4528 92.1778 44.2335 91.638 43.761 90.0776C43.6014 89.5491 43.6819 89.1712 43.8565 88.9026C44.0764 89.5428 44.4999 90.4705 45.1759 90.7304C46.2377 91.1384 50.6017 91.9694 50.6017 91.9694L59.2393 94.0822C59.2393 94.0822 64.2266 95.1631 66.168 94.4588C66.9634 94.1726 68.4562 93.9178 69.9377 93.7182L70.2568 93.7998C70.2568 93.7998 77.6027 93.6629 77.751 93.6893C78.8819 93.9027 79.0465 94.381 79.0201 94.6961Z" fill="white"/>
    <path d="M67.0916 93.1056C67.0811 93.2907 67.058 93.4748 67.0225 93.6567C67.0225 93.6567 62.137 93.8312 59.5937 93.4546C58.8913 93.3504 58.4942 93.1257 58.2969 92.8571C58.2089 92.7301 58.1543 92.583 58.1383 92.4294C58.1222 92.2758 58.1453 92.1207 58.2052 91.9783C58.2333 91.8965 58.2691 91.8174 58.312 91.7423C58.5018 91.4109 58.7933 91.1761 58.9529 91.2075C59.3952 91.2966 60.1541 90.3903 60.1541 90.3903C60.0938 89.8366 60.9646 89.637 61.1003 89.7274C61.1245 89.746 61.1532 89.7581 61.1834 89.7624C61.2136 89.7667 61.2445 89.7631 61.2729 89.752C61.3014 89.7409 61.3265 89.7226 61.3458 89.699C61.3651 89.6753 61.3779 89.647 61.3831 89.617C61.3918 89.5755 61.3944 89.3759 61.3944 89.1424C61.3944 88.7533 61.3831 88.2637 61.3831 88.2637L66.2937 88.86L66.4885 89.7977C66.6669 90.6338 66.9157 91.7825 67.0225 92.1754C67.0967 92.4795 67.1201 92.7939 67.0916 93.1056Z" fill="#474463"/>
    <path opacity="0.1" d="M67.0915 93.1056C67.0811 93.2906 67.058 93.4747 67.0224 93.6567C67.0224 93.6567 62.1369 93.8312 59.5936 93.4546C58.8912 93.3504 58.4942 93.1256 58.2969 92.857C58.949 92.8181 59.7972 92.7967 60.3224 92.9248C61.0714 93.1106 65.551 93.1106 67.0915 93.1056Z" fill="black"/>
    <path d="M58.3069 91.7398C58.3123 91.7851 58.3051 91.831 58.2863 91.8726C58.2675 91.9142 58.2377 91.9499 58.2001 91.9758C57.5819 92.4528 54.6151 91.9344 54.6151 91.9344C54.6151 91.9344 48.5535 91.5577 47.6475 90.9401C47.5657 90.8864 47.4974 90.8147 47.4477 90.7305C47.0707 90.05 48.4354 88.9077 48.5535 88.9077C48.6716 88.9077 50.3014 88.6855 50.4107 88.6641C51.1646 88.5122 51.9186 88.0452 52.0442 88.1783C52.1699 88.3114 52.7981 88.0013 53.1047 87.9574C53.2166 87.941 53.2681 87.7829 53.2869 87.5807C53.3046 87.3072 53.2954 87.0327 53.2593 86.761L58.1008 88.0628L58.1436 88.8336L58.283 91.3996L58.3006 91.7147C58.3037 91.7228 58.3058 91.7312 58.3069 91.7398Z" fill="#474463"/>
    <path opacity="0.1" d="M54.6203 91.9342C54.6203 91.9342 48.5587 91.5576 47.6527 90.94C47.5709 90.8863 47.5025 90.8146 47.4529 90.7303C48.6805 90.8308 50.7275 91.0003 51.0969 91.0944C51.6284 91.2199 54.6153 91.4032 54.6153 91.4032H58.2882L58.3058 91.7183C58.4654 92.6071 54.6203 91.9342 54.6203 91.9342Z" fill="black"/>
    <path d="M49.775 95.6452C50.589 95.6452 51.2489 94.9859 51.2489 94.1726C51.2489 93.3594 50.589 92.7001 49.775 92.7001C48.9609 92.7001 48.301 93.3594 48.301 94.1726C48.301 94.9859 48.9609 95.6452 49.775 95.6452Z" fill="#474463"/>
    <path d="M65.7835 98.7019C66.5975 98.7019 67.2575 98.0426 67.2575 97.2294C67.2575 96.4161 66.5975 95.7568 65.7835 95.7568C64.9695 95.7568 64.3096 96.4161 64.3096 97.2294C64.3096 98.0426 64.9695 98.7019 65.7835 98.7019Z" fill="#474463"/>
    <path d="M50.7926 44.0848C50.7926 44.0848 50.5137 44.5869 50.094 45.3326C49.0887 47.1052 47.2806 50.2474 46.5027 51.2416C45.397 52.6552 45.4862 51.3308 44.2912 48.3706C43.4041 46.1687 46.1346 43.6492 47.5947 42.5043C48.0973 42.1063 48.4492 41.8766 48.4492 41.8766L50.7926 44.0848Z" fill="#F8BDC5"/>
    <path d="M56.1431 47.4867C56.1431 47.4867 52.4726 47.7955 51.7652 48.0165C51.0578 48.2374 48.0068 48.1043 47.7442 48.0165C47.4816 47.9286 42.2593 49.1212 44.648 50.3138C47.0368 51.5064 48.5434 50.3138 48.5434 50.3138C48.5434 50.3138 51.6395 50.1368 52.4387 50.6239C53.2379 51.1109 56.1531 50.8448 56.1531 50.8448L56.1431 47.4867Z" fill="#FFC1C8"/>
    <path opacity="0.1" d="M48.5183 20.4473C48.9707 21.6035 48.6879 22.6103 48.1551 23.6435C46.8207 23.8946 45.5654 24.2398 44.8667 24.688C42.8763 25.9697 44.3804 14.7028 44.3804 14.7028C44.3804 14.7028 45.343 14.7028 46.5631 14.6538C46.1937 16.3385 47.5935 18.0872 48.5183 20.4473Z" fill="black"/>
    <path d="M48.6315 20.1963C48.6291 22.0468 47.945 23.8317 46.7096 25.2105C45.4742 26.5893 43.774 27.4655 41.9333 27.6719C40.0926 27.8784 38.2402 27.4007 36.7295 26.3299C35.2189 25.2591 34.1556 23.6702 33.7426 21.8663C33.3296 20.0624 33.5957 18.1697 34.4901 16.5493C35.3846 14.9289 36.8449 13.6941 38.5924 13.0806C40.3399 12.4671 42.2523 12.5177 43.9648 13.2227C45.6773 13.9278 47.0701 15.2381 47.8775 16.9035C48.3751 17.93 48.6329 19.0559 48.6315 20.1963Z" fill="#F8BDC5"/>
    <path opacity="0.1" d="M83.2899 33.8887C83.0512 34.2357 82.6936 34.4835 82.2846 34.5854C80.5594 35.0712 68.3971 37.9874 67.6017 37.8104C66.8993 37.6548 63.8848 37.2217 63.1899 37.1225L63.3998 35.7341L70.7419 34.9382L81.9743 32.0232C81.9743 32.0232 82.8363 32.5567 83.2899 33.8887Z" fill="black"/>
    <path opacity="0.1" d="M53.3573 23.0095C51.9197 23.0956 50.4875 23.2548 49.0661 23.4866C49.0863 23.4219 49.0837 23.3524 49.0586 23.2895L51.9989 22.9267C51.9989 22.9267 51.5692 16.0221 49.9884 14.3676C50.5815 14.2722 51.0628 14.1516 51.3242 13.991C52.5179 13.2892 53.3573 23.0095 53.3573 23.0095Z" fill="black"/>
    <path d="M49.5109 12.6403C49.5109 12.6403 52.1208 12.4055 52.4739 11.9636C52.827 11.5217 55.3489 11.3899 55.3489 11.3899C55.3489 11.3899 56.5866 11.169 56.8568 10.8589C57.127 10.5488 63.8433 10.1521 64.5067 10.5061C65.1702 10.8601 65.7897 11.0798 66.188 11.125C66.5863 11.1702 69.6812 13.3772 69.9904 13.3772C70.2995 13.3772 78.7863 21.3751 78.7863 21.3751C78.7863 21.3751 79.6659 23.4075 80.0252 23.4954C80.3846 23.5833 83.5637 31.6252 83.5637 31.6252C83.5637 31.6252 84.006 33.5685 82.282 34.0556C80.558 34.5426 68.3945 37.4576 67.5991 37.2806C66.8037 37.1036 63.0441 36.5738 63.0441 36.5738C63.0441 36.5738 63.0881 36.5738 63.0001 36.088C62.9122 35.6022 62.779 35.734 62.9549 35.2921C63.1308 34.8502 63.3092 34.8941 63.0881 34.6293C62.8669 34.3644 63.0881 34.2313 62.3806 33.7894C61.6732 33.3475 60.8728 32.8617 60.8325 32.7299C60.7923 32.5981 60.1691 31.713 59.86 31.6691C59.5509 31.6252 50.8818 29.1948 50.8818 29.1948L48.8475 28.5319C48.8475 28.5319 47.8749 27.8691 48.0935 27.4724C48.3122 27.0757 49.0649 23.4866 49.0649 23.4866L52.1749 23.1037C52.1749 23.1037 51.7112 15.6217 49.9696 14.3664C48.228 13.111 49.5109 12.6403 49.5109 12.6403Z" fill="#6C63FF"/>
    <path opacity="0.1" d="M50.7927 44.0848C50.7927 44.0848 50.5137 44.5869 50.094 45.3326C50.0287 43.0278 48.4153 42.5808 47.5947 42.5043C48.0974 42.1063 48.4492 41.8766 48.4492 41.8766L50.7927 44.0848Z" fill="black"/>
    <path d="M48.6315 27.3394L48.8452 28.532C48.8452 28.532 49.6858 29.5488 49.6858 29.8576C49.6858 30.1664 50.6584 31.0502 50.9248 31.536C51.1912 32.0219 52.1185 32.111 51.7641 32.9508C51.4098 33.7907 49.3767 40.1968 49.3767 40.1968L47.2983 42.4941C47.2983 42.4941 50.7476 42.1841 50.2161 46.2929L54.6831 42.4012L58.1814 36.0428C58.1814 36.0428 54.7761 29.5927 54.6442 29.063C54.5122 28.5332 48.6315 27.3394 48.6315 27.3394Z" fill="#6C63FF"/>
    <path opacity="0.1" d="M58.9741 29.549C58.9741 29.549 61.8039 27.5605 61.8039 27.3395C61.8039 27.1186 58.9741 29.549 58.9741 29.549Z" fill="black"/>
    <path opacity="0.1" d="M63.7102 32.0231C63.7102 32.0231 65.2181 31.6691 65.3437 30.8745C65.4694 30.0798 63.7102 32.0231 63.7102 32.0231Z" fill="black"/>
    <path opacity="0.1" d="M64.9441 34.0555C64.9441 34.0555 67.0677 33.0047 66.9785 32.8227C66.8892 32.6407 64.9441 34.0555 64.9441 34.0555Z" fill="black"/>
    <path opacity="0.1" d="M76.3098 27.3256C76.3098 27.3256 75.4302 27.8993 75.6916 28.4366C75.953 28.9739 76.3098 27.3256 76.3098 27.3256Z" fill="black"/>
    <path opacity="0.1" d="M78.9146 27.5603C78.9146 27.5603 76.4091 29.9455 76.9758 29.9907C77.5425 30.0359 78.9146 27.5603 78.9146 27.5603Z" fill="black"/>
    <path opacity="0.1" d="M73.2148 64.5409C73.2148 64.5409 76.4429 65.1598 76.5309 65.3807C76.6189 65.6017 73.2148 64.5409 73.2148 64.5409Z" fill="black"/>
    <path opacity="0.1" d="M74.3645 66.6613C74.3645 66.6613 76.0885 67.722 76.1325 68.0309C76.1765 68.3397 74.3645 66.6613 74.3645 66.6613Z" fill="black"/>
    <path opacity="0.1" d="M73.9663 69.0477C73.9663 69.0477 74.2314 70.2403 74.6738 70.4173C75.1161 70.5943 73.9663 69.0477 73.9663 69.0477Z" fill="black"/>
    <path opacity="0.1" d="M47.885 16.8646C47.885 16.8771 47.885 16.8909 47.8787 16.9035C47.8184 17.2964 47.6576 17.722 47.2881 17.8526C47.0649 17.9153 46.8264 17.8934 46.6184 17.791C45.9901 17.5161 45.431 16.8558 44.7599 17.0152C44.4408 17.0906 44.2171 17.3328 44.0588 17.6304C43.949 17.8445 43.8647 18.0708 43.8075 18.3045C43.6818 18.7966 43.5813 19.3314 43.7735 19.7996C43.8052 19.8762 43.843 19.9501 43.8866 20.0206C44.0651 20.3055 44.3164 20.5478 44.4923 20.8353C44.7109 21.1943 44.7675 21.7329 44.427 21.9789C44.3415 22.0351 44.2446 22.0715 44.1434 22.0856C44.0421 22.0997 43.939 22.0912 43.8414 22.0605C43.5919 21.9822 43.3521 21.8761 43.1264 21.7442C42.6816 21.512 42.1212 21.3676 41.699 21.6362C41.5532 21.7266 41.4363 21.8572 41.2969 21.9526C41.007 22.132 40.663 22.2035 40.3255 22.1547C39.5264 22.0731 39.2273 21.5672 38.6166 21.1755C38.1693 20.8868 37.2344 20.7638 36.968 21.3538C36.7971 21.7304 37.051 22.2049 36.8838 22.5891C36.7167 22.9732 36.1852 23.0912 35.9389 23.4477C35.6147 23.9172 35.9163 24.5964 35.6788 25.1174C35.6424 25.1981 35.5937 25.2726 35.5343 25.3383C34.2027 23.9049 33.4794 22.0114 33.5165 20.0561C33.5536 18.1008 34.3482 16.2361 35.7331 14.854C37.1181 13.472 38.9856 12.6804 40.9427 12.6456C42.8999 12.6109 44.7944 13.3357 46.2276 14.6677L46.5669 14.6551C46.8974 14.6426 47.2479 14.625 47.601 14.6037C47.6845 14.7803 47.7498 14.9649 47.7958 15.1548C47.9325 15.7141 47.9628 16.2941 47.885 16.8646Z" fill="black"/>
    <path d="M36.7883 21.1781C36.6162 21.5547 36.87 22.0292 36.7041 22.4121C36.5383 22.795 36.003 22.9143 35.7592 23.2708C35.4337 23.7416 35.7353 24.4207 35.4991 24.9404C35.2277 25.5342 34.4084 25.6271 33.7801 25.4539C33.2434 25.3007 32.7508 25.0222 32.3431 24.6413C31.9354 24.2604 31.6242 23.788 31.4354 23.2633C31.0094 22.0518 31.2846 20.7186 31.174 19.4394C31.1269 18.8912 31.0086 18.3515 30.8222 17.8338C30.64 17.3317 30.3912 16.837 30.3321 16.3035C30.2898 15.8508 30.3843 15.3959 30.6034 14.9973C30.8224 14.5988 31.156 14.275 31.561 14.0677C32.0787 13.8166 32.7158 13.7451 33.0928 13.3145C33.3818 12.9806 33.4434 12.5148 33.5778 12.0943C33.941 10.9644 35.0254 10.043 36.2166 10.0543C37.1691 10.0618 38.1014 10.623 39.0325 10.402C39.559 10.2765 40.0378 9.89988 40.5806 9.95387C40.8406 9.99471 41.0897 10.0874 41.3132 10.2263C42.7584 11.0062 44.1336 11.9092 45.4234 12.9253C45.6902 13.1549 45.9823 13.3532 46.2942 13.5166C46.495 13.5948 46.691 13.6849 46.881 13.7865C47.2869 14.0376 47.4992 14.5159 47.6148 14.9804C47.7536 15.5393 47.7852 16.1195 47.7078 16.6902C47.6525 17.0931 47.4942 17.5451 47.1109 17.6794C46.8871 17.7418 46.648 17.719 46.4399 17.6154C45.8117 17.343 45.2538 16.6826 44.5828 16.8408C44.0349 16.9663 43.771 17.5865 43.6278 18.1301C43.5021 18.6222 43.3991 19.157 43.5938 19.6265C43.7547 20.0156 44.0965 20.3006 44.3113 20.6609C44.5262 21.0212 44.5878 21.5597 44.246 21.8045C43.869 22.0769 43.3576 21.787 42.9442 21.571C42.5019 21.3388 41.939 21.1944 41.518 21.4618C41.3735 21.5522 41.2566 21.6828 41.1159 21.7794C40.8258 21.9571 40.4827 22.0281 40.1458 21.9803C39.3454 21.8987 39.0464 21.3928 38.4369 21.0011C37.9883 20.7098 37.056 20.5868 36.7883 21.1781Z" fill="#474463"/>
    <path opacity="0.1" d="M61.2436 39.0745C61.2097 39.2628 60.9508 39.2842 60.8981 39.4674C60.3954 41.2388 59.2897 42.8318 57.5833 43.4846C57.2553 42.9687 56.9839 42.631 56.9839 42.631C56.9839 42.631 60.168 36.7998 60.3452 37.5944C60.4017 37.8417 60.7699 38.4167 61.2436 39.0745Z" fill="black"/>
    <path d="M61.3378 37.8543C61.3381 39.0079 60.9959 40.1357 60.3546 41.095C59.7132 42.0543 58.8015 42.802 57.7348 43.2437C56.6681 43.6853 55.4942 43.801 54.3617 43.5761C53.2291 43.3512 52.1888 42.7958 51.3722 41.9801C50.5556 41.1645 49.9995 40.1253 49.7741 38.9939C49.5488 37.8624 49.6643 36.6897 50.1061 35.6239C50.548 34.558 51.2962 33.6471 52.2563 33.0061C53.2164 32.3652 54.3451 32.0231 55.4998 32.0231C56.2672 32.0203 57.0275 32.1692 57.737 32.4612C58.4465 32.7532 59.0911 33.1826 59.6338 33.7247C60.1764 34.2667 60.6064 34.9106 60.8988 35.6194C61.1913 36.3281 61.3405 37.0877 61.3378 37.8543Z" fill="#FFC1C8"/>
    <path opacity="0.1" d="M58.1111 88.0665L58.1538 88.8373C57.6424 88.9502 56.6698 89.0984 56.1031 88.7519C55.3705 88.3037 54.2886 88.1945 53.2972 87.5844C53.3149 87.3109 53.3056 87.0363 53.2695 86.7646L58.1111 88.0665Z" fill="black"/>
    <path opacity="0.1" d="M66.4884 89.8001C66.4545 89.9721 66.423 90.0775 66.423 90.0775C66.423 90.0775 62.5214 89.6783 61.3968 89.1397C61.3968 88.7506 61.3855 88.261 61.3855 88.261L66.2961 88.8573L66.4884 89.8001Z" fill="black"/>
    <path d="M65.6075 72.2728C65.3424 72.9796 65.2092 73.1126 65.4756 73.4654C65.742 73.8181 65.6075 75.6748 65.1853 75.8506C64.7631 76.0263 63.1748 77.0871 63.1748 77.0871C63.1748 77.0871 64.0544 78.2358 64.0808 78.7191C64.1039 79.0279 64.2235 79.3216 64.4226 79.5589C64.4226 79.5589 65.7847 82.4752 66.0561 83.4029C66.3275 84.3306 66.5763 85.7881 66.5763 85.7881C66.5763 85.7881 66.1001 87.1137 66.4293 87.8657C66.7585 88.6177 66.4293 89.7211 66.4293 89.7211C66.4293 89.7211 61.6783 89.2353 61.1518 88.6114C60.6253 87.9875 60.9758 86.584 60.9758 86.584C60.8673 85.9585 60.6422 85.359 60.3124 84.8164C59.7809 83.9766 60.438 83.094 60.3124 83.0489C60.1867 83.0037 59.7809 82.5191 59.3813 81.7244C58.9817 80.9298 58.7329 81.2374 58.7329 81.2374C58.7329 81.2374 59.2506 85.7002 58.7329 86.0981C58.2152 86.4961 58.1448 86.3191 58.278 86.8514C58.3812 87.3623 58.455 87.8786 58.4992 88.398C58.4992 88.398 56.9071 88.8838 56.1117 88.398C55.3163 87.9121 54.1188 87.823 53.0671 87.0723C52.0153 86.3216 53.5433 85.0399 53.8084 84.8629C54.0736 84.6859 53.7205 82.1236 53.7205 82.1236L53.3661 79.6054C53.3661 79.6054 54.5598 79.8703 54.1678 78.8986C53.7758 77.927 53.3221 74.5689 53.101 74.0391C52.8798 73.5093 53.8549 72.8013 53.7205 72.4485C53.586 72.0958 54.2947 70.0633 54.2947 70.0633C54.2947 70.0633 54.34 68.3849 54.781 68.0698C54.9494 67.9518 55.0587 67.5852 55.1316 67.1798C55.2089 66.7012 55.2547 66.2181 55.2685 65.7336C55.2685 65.7336 65.3952 65.0268 67.0312 65.9985C67.7675 66.4353 67.716 67.24 67.4082 68.0548C67.0312 69.049 66.2572 70.0633 66.0624 70.4312C65.6967 71.1091 65.8727 71.566 65.6075 72.2728Z" fill="#575988"/>
    <path opacity="0.1" d="M67.3956 68.0548C66.1391 68.4075 64.4653 68.926 64.1927 69.2235C63.7503 69.7106 62.2462 66.4843 62.2462 66.4843C62.2462 66.4843 62.3355 68.9097 60.3451 67.8953C58.6223 67.0166 55.8416 67.1321 55.1228 67.1798C55.2001 66.7012 55.2459 66.2181 55.2598 65.7336C55.2598 65.7336 65.3864 65.0268 67.0224 65.9985C67.7588 66.4353 67.7073 67.24 67.3956 68.0548Z" fill="black"/>
    <path d="M62.2462 41.3455C62.2462 41.3455 63.1258 40.2848 63.308 40.6827C63.4902 41.0807 64.5281 41.8753 64.5281 41.8753C64.5281 41.8753 64.8259 42.803 65.3499 42.9361C65.8739 43.0692 69.8095 48.3706 69.8095 48.3706L68.3933 51.2416L67.2436 58.2227C67.2436 58.2227 67.2938 59.3274 66.9809 59.7291C66.6681 60.1308 65.4731 60.0379 66.0272 60.5238C66.5814 61.0096 67.3768 61.4515 67.8191 63.6622C68.2614 65.8729 68.7916 67.1521 68.7916 67.1521C68.7916 67.1521 64.6349 68.2129 64.1926 68.6987C63.7503 69.1845 62.2462 65.9595 62.2462 65.9595C62.2462 65.9595 62.3354 68.3836 60.345 67.3705C58.3547 66.3575 54.9494 66.6663 54.9494 66.6663V64.0551C54.9494 64.0551 55.6128 63.0383 55.2598 62.3315C54.9067 61.6247 55.501 60.2991 55.501 60.2991C55.501 60.2991 55.3037 58.9295 54.9494 58.1348C54.595 57.3402 54.7282 53.5841 54.7282 53.5841C54.7282 53.5841 54.4593 51.1537 54.7044 49.9159C54.9123 48.8431 55.2795 47.8073 55.7938 46.8428C56.2801 45.8962 56.5879 45.0125 56.456 44.6584C56.3241 44.3044 57.6233 43.5387 57.6233 43.5387L58.3433 44.7024L58.5268 45.3979C58.5268 45.3979 62.3354 42.6712 62.2462 41.3455Z" fill="#DCE6F2"/>
    <path d="M68.6107 47.4867C68.6107 47.4867 71.0874 49.9158 71.3526 50.3138C71.6177 50.7117 72.5061 52.7806 71.3563 53.4083C70.2066 54.0359 65.7018 55.0038 65.2545 54.6699C64.8071 54.336 62.1131 55.0465 62.1131 55.0465C62.1131 55.0465 57.6071 56.1512 58.5796 54.3397C59.5522 52.5283 61.853 52.8333 61.853 52.8333C61.853 52.8333 65.5699 52.827 65.9669 52.4567C66.364 52.0864 69.3597 51.2917 68.6811 49.6547C68.0026 48.0177 68.6107 47.4867 68.6107 47.4867Z" fill="#FFC1C8"/>
    <path opacity="0.1" d="M61.3378 58.3557C61.3378 58.3557 55.569 63.3483 56.1432 63.3483C56.7175 63.3483 61.3378 58.3557 61.3378 58.3557Z" fill="black"/>
    <path opacity="0.1" d="M65.1853 60.3882C65.1853 60.3882 63.352 60.8288 63.7064 61.095C64.0607 61.3611 65.1853 60.3882 65.1853 60.3882Z" fill="black"/>
    <path opacity="0.1" d="M58.7205 48.2814C58.7205 48.2814 61.0087 48.486 60.6053 49.2016C60.2019 49.9171 58.7205 48.2814 58.7205 48.2814Z" fill="black"/>
    <path opacity="0.1" d="M57.2942 69.7395C57.2942 69.7395 56.9838 70.6383 57.2942 71.1204C57.6046 71.6025 57.2942 72.7524 57.2942 72.7524V76.7696C57.2942 76.7696 57.2515 79.6858 58.3108 80.7014L57.2942 69.7395Z" fill="black"/>
    <path opacity="0.1" d="M54.2646 82.2579C54.2646 82.2579 54.8829 83.1631 54.9721 83.4945C55.0613 83.8259 54.2646 82.2579 54.2646 82.2579Z" fill="black"/>
    <path opacity="0.1" d="M54.4192 80.4464C54.4192 80.4464 55.8567 80.1815 56.0778 80.3359C56.299 80.4903 54.4192 80.4464 54.4192 80.4464Z" fill="black"/>
    <path opacity="0.1" d="M53.9994 85.8583C53.9994 85.8583 53.5785 85.9022 54.4191 86.3604C55.2598 86.8186 56.8958 87.3986 56.9172 87.2003C56.9385 87.0019 53.9994 85.8583 53.9994 85.8583Z" fill="black"/>
    <path opacity="0.1" d="M60.1528 81.462C60.3011 81.462 62.152 81.3516 62.0452 81.639C61.9384 81.9265 60.1528 81.462 60.1528 81.462Z" fill="black"/>
    <path opacity="0.1" d="M62.6672 78.8771C62.6672 78.8771 63.0869 78.149 63.2415 78.4578C63.396 78.7666 62.6672 78.8771 62.6672 78.8771Z" fill="black"/>
    <path opacity="0.1" d="M61.3378 37.8542C61.3384 38.3964 61.2632 38.936 61.1141 39.4573C60.8703 39.6783 60.4494 39.6808 60.1491 39.5163C59.7972 39.323 59.5673 38.9715 59.3386 38.6376C59.1099 38.3036 58.8498 37.9697 58.4753 37.8266C58.0016 37.6483 57.4613 37.8266 57.0491 38.1229C56.637 38.4191 56.3078 38.8108 55.9182 39.1271C55.5287 39.4435 55.0324 39.6996 54.536 39.6218C54.2156 39.5728 53.9316 39.392 53.6564 39.2175C53.2795 38.9803 52.8749 38.6112 52.4614 38.4518C52.048 38.2923 51.7075 38.5773 51.3142 38.5773C51.0013 38.6903 50.6608 38.9476 50.7236 39.2728C50.7573 39.3934 50.8117 39.5072 50.8845 39.6092C51.0107 39.8577 51.0606 40.1381 51.0277 40.4148C50.9948 40.6916 50.8807 40.9525 50.6998 41.1646C50.1789 40.4123 49.8425 39.5482 49.7176 38.6421C49.5928 37.7359 49.683 36.8131 49.981 35.9482C50.2791 35.0833 50.7765 34.3006 51.4332 33.6632C52.09 33.0259 52.8875 32.5518 53.7615 32.2792C54.6355 32.0067 55.5614 31.9433 56.4644 32.0942C57.3674 32.2452 58.2223 32.6062 58.9598 33.1481C59.6974 33.69 60.2971 34.3977 60.7104 35.2139C61.1237 36.0301 61.339 36.932 61.339 37.8467L61.3378 37.8542Z" fill="black"/>
    <path d="M51.313 38.4079C51.0001 38.5209 50.6595 38.7783 50.7211 39.1046C50.756 39.2246 50.8108 39.3379 50.8832 39.4398C51.2501 40.0939 50.9398 41.0329 50.2549 41.3367C50.1476 41.3925 50.025 41.4119 49.9056 41.3919C49.811 41.3626 49.7248 41.3109 49.6543 41.2413C49.286 40.9124 49.032 40.4749 48.9293 39.9922C48.8212 39.49 48.8878 38.9578 48.8325 38.4418C48.7772 37.9259 48.6 37.4174 48.5385 36.8977C48.4949 36.6408 48.5223 36.3769 48.6176 36.1344C48.7005 35.9744 48.8073 35.828 48.9343 35.7001C49.2874 35.3072 49.6556 34.9054 49.8327 34.4071C50.1129 33.6137 49.9094 32.6031 50.5226 32.0219C50.8066 31.7557 51.2036 31.6566 51.5555 31.4883C51.8868 31.3126 52.2039 31.1116 52.5042 30.887C53.6414 30.1062 55.0236 29.5061 56.3756 29.7823C56.9158 29.913 57.4331 30.1246 57.9099 30.41C58.7955 30.8977 59.6364 31.4623 60.423 32.0972C60.7632 32.3485 61.0602 32.6534 61.3026 32.9998C61.4832 33.2964 61.6131 33.6209 61.6871 33.9602C61.8677 34.7002 61.8925 35.4697 61.76 36.2198C61.6343 36.9555 61.3491 37.6698 61.3378 38.4167C61.3378 38.6678 61.3579 38.9389 61.2285 39.1549C61.0211 39.4988 60.5072 39.5315 60.1554 39.3407C59.8035 39.1498 59.5736 38.7958 59.3461 38.4619C59.1187 38.128 58.8573 37.794 58.4829 37.6522C58.0092 37.4727 57.4688 37.6522 57.0567 37.9472C56.6445 38.2422 56.3166 38.6351 55.9258 38.9515C55.535 39.2678 55.0462 39.5239 54.5436 39.4461C54.2231 39.3971 53.9392 39.2176 53.664 39.0431C53.287 38.8046 52.8824 38.4355 52.4702 38.2774C52.0581 38.1192 51.705 38.4079 51.313 38.4079Z" fill="#794F6A"/>
    <path d="M64.723 47.4867C64.723 47.4867 58.2228 53.4949 59.5484 56.499C60.8741 59.5031 66.7108 54.2017 66.7108 54.2017L68.7917 49.3911L64.723 47.4867Z" fill="#F8BDC5"/>
    <g opacity="0.1">
      <path d="M50.2523 40.9803C50.1454 41.0362 50.0232 41.0556 49.9042 41.0356C49.8092 41.0065 49.7228 40.9543 49.6529 40.8837C49.2846 40.5551 49.0302 40.1182 48.9266 39.6358C48.8198 39.1274 48.8864 38.6002 48.8311 38.0842C48.7758 37.5683 48.5974 37.0611 48.5371 36.5401C48.5371 36.515 48.5371 36.4886 48.5308 36.4623C48.5172 36.606 48.5193 36.7508 48.5371 36.8941C48.5974 37.4138 48.7758 37.916 48.8311 38.4382C48.8864 38.9605 48.8198 39.4814 48.9266 39.9886C49.0299 40.4714 49.2843 40.9089 49.6529 41.2377C49.7232 41.3075 49.8095 41.3592 49.9042 41.3883C50.0232 41.4084 50.1454 41.389 50.2523 41.3331C50.7926 41.0933 51.098 40.4619 51.0263 39.8844C51.0001 40.1174 50.9155 40.3401 50.7801 40.5316C50.6448 40.7232 50.4633 40.8776 50.2523 40.9803Z" fill="black"/>
      <path d="M61.7512 35.8646C61.6255 36.6002 61.3403 37.3145 61.3302 38.0615C61.3302 38.3125 61.3503 38.5837 61.2196 38.7996C61.0136 39.1436 60.4996 39.1762 60.1478 38.9854C59.796 38.7946 59.566 38.4418 59.3373 38.1067C59.1086 37.7715 58.8498 37.4388 58.474 37.297C58.0016 37.1187 57.4613 37.297 57.0491 37.5932C56.637 37.8895 56.3077 38.2799 55.9182 38.5975C55.5287 38.9151 55.0323 39.17 54.536 39.0934C54.2156 39.0432 53.9316 38.8636 53.6564 38.6892C53.2794 38.4506 52.8748 38.0828 52.4627 37.9234C52.0505 37.7639 51.7087 38.0489 51.3154 38.0489C51.0025 38.1632 50.662 38.4192 50.7223 38.7469C50.73 38.7823 50.7414 38.8168 50.7563 38.8498C50.8794 38.6356 51.0792 38.4759 51.3154 38.4029C51.7075 38.4029 52.0543 38.1217 52.4627 38.2774C52.871 38.4331 53.2832 38.8046 53.6564 39.0432C53.9291 39.2177 54.2131 39.3972 54.536 39.4461C55.0386 39.524 55.5312 39.2716 55.9182 38.9515C56.3052 38.6314 56.6382 38.236 57.0491 37.9472C57.46 37.6585 58.0016 37.4727 58.474 37.6522C58.851 37.7941 59.1099 38.1318 59.3373 38.4619C59.5647 38.7921 59.796 39.1423 60.1478 39.3407C60.4996 39.539 61.0136 39.4989 61.2196 39.1549C61.3453 38.939 61.3264 38.6691 61.3302 38.4167C61.3403 37.6698 61.6217 36.9555 61.7512 36.2198C61.8175 35.842 61.8444 35.4583 61.8316 35.075C61.8236 35.3397 61.7967 35.6036 61.7512 35.8646Z" fill="black"/>
    </g>
    <path opacity="0.1" d="M56.9398 16.9124C56.9398 16.9124 54.5524 21.2422 57.8194 23.4516C61.0865 25.6611 61.4019 25.4401 61.4019 25.4401C61.4019 25.4401 61.3566 25.9699 61.4019 26.103C61.4471 26.236 62.2815 26.5436 62.2815 26.5436C62.2815 26.5436 63.298 28.1756 64.7569 28.8861C66.2157 29.5966 66.4821 31.2713 66.4821 31.2713C66.4821 31.2713 66.4821 31.8463 67.2361 32.376C67.99 32.9058 68.5705 34.4524 68.5705 34.4524V35.8672C68.5705 36.0881 68.8357 36.746 68.2614 36.8163C67.6872 36.8866 68.1722 38.2085 68.1722 38.2085C68.1722 38.2085 67.554 38.9617 67.6859 39.3132C67.8179 39.6647 67.4208 40.3727 67.4208 40.3727C67.4208 40.3727 66.9345 41.0795 66.9785 41.2126C67.0225 41.3456 66.4482 41.8315 66.5801 42.1403C66.7121 42.4491 65.9179 42.847 66.0499 43.2011C66.1818 43.5551 65.4844 43.7308 65.4844 43.7308L63.5732 48.1497C63.5732 48.1497 67.5942 49.0285 68.6321 51.2417L73.7011 41.9633C73.7011 41.9633 76.5308 35.0274 76.6201 34.5855C76.7093 34.1436 76.0006 32.553 76.0006 32.553L72.5513 26.2762L67.3768 18.9863C67.3768 18.9863 63.2641 10.2414 56.9398 16.9124Z" fill="black"/>
    <path opacity="0.1" d="M62.0452 18.7388C62.0452 18.7388 55.8328 20.9168 59.1049 23.1263C62.3769 25.3357 62.6873 25.1135 62.6873 25.1135C62.6873 25.1135 62.6433 25.6446 62.6873 25.7764C62.7313 25.9082 63.5669 26.2183 63.5669 26.2183C63.5669 26.2183 64.5847 27.8502 66.0436 28.5608C67.5024 29.2713 67.7688 30.946 67.7688 30.946C67.7688 30.946 67.7688 31.5209 68.5228 32.0507C69.2767 32.5805 69.8497 34.1271 69.8497 34.1271V35.5406C69.8497 35.7616 70.1148 36.4194 69.5393 36.4909C68.9638 36.5625 69.4514 37.8831 69.4514 37.8831C69.4514 37.8831 68.8319 38.6363 68.9651 38.9866C69.0983 39.3368 68.7 40.0474 68.7 40.0474C68.7 40.0474 68.2137 40.7541 68.2576 40.8872C68.3016 41.0203 67.7261 41.5061 67.8593 41.8149C67.9925 42.1238 67.1958 42.5217 67.329 42.8757C67.4622 43.2297 66.7623 43.4055 66.7623 43.4055L64.8524 47.8231C64.8524 47.8231 68.1647 47.9939 69.2101 50.2083L74.979 41.6429C74.979 41.6429 77.81 34.707 77.898 34.2652C77.9859 33.8233 77.281 32.2277 77.281 32.2277L73.8317 25.9509L65.9632 21.4165C65.9632 21.4165 68.3695 12.0665 62.0452 18.7388Z" fill="black"/>
    <path d="M57.2941 16.9123C57.2941 16.9123 54.9066 21.2421 58.1737 23.4515C61.4407 25.661 61.7561 25.44 61.7561 25.44C61.7561 25.44 61.7121 25.9698 61.7561 26.1029C61.8001 26.2359 62.6357 26.5435 62.6357 26.5435C62.6357 26.5435 63.6535 28.1755 65.1124 28.886C66.5712 29.5965 66.8376 31.2712 66.8376 31.2712C66.8376 31.2712 66.8376 31.8462 67.5916 32.3759C68.3455 32.9057 68.9248 34.4523 68.9248 34.4523V35.8671C68.9248 36.088 69.1899 36.7459 68.6144 36.8162C68.0389 36.8865 68.5265 38.2084 68.5265 38.2084C68.5265 38.2084 67.907 38.9616 68.0402 39.3131C68.1734 39.6646 67.775 40.3726 67.775 40.3726C67.775 40.3726 67.2887 41.0794 67.3327 41.2125C67.3767 41.3455 66.8012 41.8313 66.9344 42.1402C67.0676 42.449 66.2709 42.8469 66.4041 43.201C66.5373 43.555 65.8374 43.7307 65.8374 43.7307L63.9274 48.1496C63.9274 48.1496 67.9409 49.0284 68.9851 51.2416L74.0541 41.9632C74.0541 41.9632 76.8851 35.0273 76.973 34.5854C77.061 34.1435 76.3536 32.5529 76.3536 32.5529L72.9043 26.2761L67.731 18.9887C67.731 18.9887 63.6171 10.2413 57.2941 16.9123Z" fill="#6C63FF"/>
    <g opacity="0.1">
      <path d="M31.1741 19.0866C31.1276 18.5379 31.0093 17.9977 30.8222 17.4797C30.64 16.9776 30.3912 16.483 30.3322 15.9494C30.3322 15.9331 30.3322 15.9181 30.3322 15.9017C30.319 16.0353 30.319 16.1699 30.3322 16.3035C30.3912 16.837 30.64 17.3278 30.8222 17.8337C31.0093 18.3513 31.1276 18.8911 31.1741 19.4394C31.1916 19.6452 31.1992 19.8536 31.2017 20.067C31.2055 19.7344 31.2017 19.4092 31.1741 19.0866Z" fill="black"/>
      <path d="M35.4992 24.5874C35.2291 25.18 34.4085 25.2741 33.7802 25.0996C33.2439 24.9461 32.7517 24.6675 32.3441 24.2869C31.9365 23.9063 31.6251 23.4345 31.4355 22.9103C31.2608 22.3708 31.1759 21.8063 31.1842 21.2394C31.1767 21.9311 31.203 22.614 31.4355 23.263C31.625 23.7875 31.9363 24.2595 32.344 24.6403C32.7516 25.0211 33.2438 25.2999 33.7802 25.4536C34.4085 25.6269 35.2291 25.534 35.4992 24.9402C35.6136 24.6891 35.6023 24.3979 35.5972 24.1117C35.5949 24.275 35.5617 24.4364 35.4992 24.5874Z" fill="black"/>
      <path d="M47.7078 16.3348C47.6538 16.7365 47.4942 17.1884 47.1109 17.3227C46.8876 17.3851 46.649 17.3627 46.4412 17.26C45.8129 16.9863 45.2537 16.326 44.5827 16.4854C44.0349 16.6109 43.7723 17.2298 43.6278 17.7747C43.5229 18.1189 43.4775 18.4785 43.4933 18.838C43.5173 18.5977 43.5623 18.3599 43.6278 18.1274C43.7723 17.5839 44.0349 16.9687 44.5827 16.8382C45.2537 16.68 45.8079 17.3403 46.4412 17.6127C46.6488 17.7164 46.8875 17.7392 47.1109 17.6768C47.4942 17.5424 47.6538 17.0905 47.7078 16.6875C47.7423 16.4309 47.755 16.1718 47.7455 15.913C47.7392 16.0536 47.7267 16.1954 47.7078 16.3348Z" fill="black"/>
      <path d="M44.2461 21.4491C43.8692 21.7215 43.3577 21.4315 42.9443 21.2144C42.502 20.9821 41.9391 20.8378 41.5181 21.1052C41.3736 21.1955 41.2568 21.3261 41.116 21.4228C40.8264 21.6017 40.4829 21.6728 40.146 21.6236C39.3455 21.542 39.0465 21.0361 38.4371 20.6444C37.9897 20.357 37.0548 20.2339 36.7885 20.824C36.7246 20.9977 36.7068 21.1849 36.7369 21.3675C36.7452 21.3023 36.7625 21.2384 36.7885 21.178C37.0561 20.5867 37.9897 20.7097 38.4371 20.9984C39.0465 21.3901 39.3455 21.896 40.146 21.9776C40.483 22.0258 40.8264 21.9543 41.116 21.7755C41.2568 21.6801 41.3736 21.5496 41.5181 21.4592C41.9429 21.1955 42.502 21.3336 42.9443 21.5684C43.3577 21.7843 43.8667 22.0705 44.2461 21.8019C44.4673 21.6437 44.5201 21.3625 44.4711 21.0851C44.4453 21.2306 44.3648 21.3608 44.2461 21.4491Z" fill="black"/>
      <path d="M36.7042 22.0592C36.5321 22.4534 36.0031 22.5614 35.7593 22.9166C35.5771 23.1803 35.5922 23.5092 35.5984 23.8393C35.5961 23.6383 35.652 23.4408 35.7593 23.2707C36.0031 22.9154 36.5321 22.8062 36.7042 22.412C36.7644 22.2405 36.7808 22.0567 36.752 21.8772C36.7442 21.9397 36.7282 22.0009 36.7042 22.0592Z" fill="black"/>
    </g>
  </g>
  <defs>
    <linearGradient id="paint0_linear_74_6891" x1="56.9663" y1="98.5877" x2="56.9663" y2="9.10516" gradientUnits="userSpaceOnUse">
      <stop stop-color="#808080" stop-opacity="0.25"/>
      <stop offset="0.54" stop-color="#808080" stop-opacity="0.12"/>
      <stop offset="1" stop-color="#808080" stop-opacity="0.1"/>
    </linearGradient>
    <clipPath id="clip0_74_6891">
      <rect width="137.857" height="99.2857" fill="white" transform="translate(-7.85718)"/>
    </clipPath>
  </defs>
</svg>