<svg xmlns="http://www.w3.org/2000/svg" width="100" height="100" viewBox="0 0 100 100" fill="none">
  <path d="M34.9998 67.4894L34.3034 67.0632C34.237 67.0229 34.1717 66.9793 34.1053 66.9378C35.5874 66.6868 36.9387 65.9469 37.9372 64.8398C38.9357 63.7326 39.5221 62.324 39.6 60.8453C39.678 59.3666 39.2428 57.9058 38.3659 56.7029C37.4891 55.4999 36.2228 54.6264 34.7751 54.2257L34.8094 56.9137L33.3092 53.9891H33.2904C31.5349 53.9089 29.8189 54.5184 28.5197 55.6835C27.2205 56.8486 26.4443 58.4741 26.362 60.2024C26.3553 60.3278 26.362 60.4499 26.362 60.573C25.8405 59.9866 25.3656 59.3576 25.0523 58.6687C24.4179 57.2745 24.4057 55.6951 24.4555 53.7744C24.5552 49.9701 24.7223 46.1353 24.9393 42.3136C26.5059 42.1419 27.9589 41.426 29.0376 40.2944C30.1163 39.1629 30.75 37.6897 30.8248 36.1396C30.8337 35.9401 30.8304 35.7439 30.8248 35.5477C30.8248 35.4986 30.8248 35.4507 30.8171 35.4016C30.8038 35.212 30.7861 35.0245 30.7562 34.8392C30.7562 34.8086 30.7451 34.7792 30.7396 34.7498C30.713 34.5928 30.6798 34.438 30.6422 34.2854C30.6278 34.2277 30.6134 34.1764 30.5979 34.1143C30.5514 33.9475 30.5004 33.7873 30.4407 33.6216C30.4207 33.5682 30.3975 33.5126 30.3764 33.4624C30.3299 33.3436 30.279 33.2259 30.2248 33.1104C30.196 33.0493 30.1683 32.9883 30.1384 32.9283C30.1296 32.9131 30.124 32.8967 30.1152 32.8814C29.4154 31.5215 28.254 30.4459 26.8326 29.8414C25.4112 29.2368 23.8196 29.1415 22.3343 29.5721L22.3785 33.0711L20.895 30.1803C19.6761 30.8681 18.7122 31.9212 18.1436 33.186C17.5751 34.4509 17.4316 35.8615 17.7341 37.2122H17.7275C17.7375 37.2591 17.7518 37.3038 17.7629 37.3496C17.784 37.4357 17.8061 37.5207 17.8305 37.6057C17.8615 37.7147 17.8969 37.8237 17.9334 37.9327C17.9611 38.0134 17.9877 38.093 18.0187 38.1725C18.0641 38.2881 18.115 38.4004 18.1659 38.5126C18.1958 38.578 18.2224 38.6456 18.2545 38.7099C18.3386 38.8793 18.4301 39.0438 18.5291 39.2037C18.5634 39.2604 18.6021 39.3127 18.6398 39.3683C18.7106 39.4773 18.7815 39.5863 18.8612 39.6877C18.9088 39.752 18.9597 39.8141 19.0095 39.8763C19.0826 39.9668 19.1568 40.0561 19.231 40.1423C19.2852 40.2044 19.3417 40.2643 19.3981 40.3232C19.4801 40.4082 19.5631 40.49 19.6495 40.5696C19.707 40.623 19.7602 40.6786 19.8233 40.7287C19.9207 40.8148 20.0226 40.8955 20.1255 40.9751C20.1776 41.0154 20.2285 41.0568 20.2816 41.096C20.4389 41.2051 20.6005 41.3141 20.7677 41.4231C20.7987 41.4416 20.833 41.4569 20.864 41.4754C21.0046 41.556 21.1463 41.6334 21.2924 41.7032C21.3556 41.7337 21.4198 41.761 21.484 41.7893C21.6035 41.8416 21.7242 41.8929 21.8482 41.9397L22.0697 42.016C22.1914 42.0564 22.3154 42.0945 22.4405 42.1251C22.5136 42.1447 22.5878 42.1654 22.662 42.1828C22.797 42.2144 22.9354 42.2406 23.0749 42.2646L23.1015 42.27C23.0107 43.8826 22.9295 45.4955 22.8579 47.1088C22.4631 46.3099 21.9066 45.5988 21.2226 45.0193C20.5386 44.4397 19.7416 44.0039 18.8804 43.7385C18.0192 43.4731 17.112 43.3838 16.2145 43.476C15.3169 43.5682 14.448 43.8399 13.661 44.2746L14.8323 47.4358L12.4221 45.1576C11.13 46.3209 10.3598 47.9417 10.2809 49.6638C10.2469 50.2689 10.3005 50.8756 10.4404 51.4657C10.7434 52.7383 11.4279 53.892 12.4049 54.777C13.382 55.6621 14.6066 56.2377 15.9199 56.4292C17.2332 56.6207 18.5747 56.4193 19.7704 55.851C20.966 55.2828 21.9607 54.374 22.6254 53.2425C22.6254 53.406 22.6144 53.5695 22.6099 53.7341C22.5656 55.428 22.5103 57.5362 23.3683 59.4187C23.9496 60.694 24.884 61.7307 25.804 62.6594C26.4052 63.2633 27.0285 63.8486 27.6673 64.4144C28.2962 65.2457 29.1166 65.9181 30.0609 66.3765C31.1105 67.1624 32.2021 67.9145 33.3247 68.6056L34.0267 69.0351C34.6577 69.4199 35.3043 69.8156 35.9376 70.2265C35.8268 70.2156 35.7161 70.2036 35.6054 70.1982C34.2004 70.1337 32.8109 70.5108 31.6379 71.275C30.4649 72.0392 29.5691 73.1509 29.08 74.4494L33.2207 77.7664L28.6659 76.7265C28.6672 77.8299 28.9524 78.915 29.4951 79.8804C30.0377 80.8458 30.8201 81.6601 31.769 82.2471C32.718 82.8341 33.8026 83.1748 34.9215 83.2372C36.0404 83.2996 37.1571 83.0817 38.1673 82.604L37.864 82.9768C37.6603 83.2261 37.4591 83.4739 37.2606 83.7202C34.5658 87.0808 33.8163 90.2703 35.1504 92.7022L36.7734 91.84C35.4748 89.4724 37.4278 86.4421 38.7076 84.8462C38.9025 84.6042 39.1003 84.3608 39.301 84.1159C41.0226 82.0099 42.9734 79.6227 42.9258 76.6949C42.8461 72.2856 38.4961 69.6259 34.9998 67.4894Z" fill="#F2F2F2"/>
  <path d="M79.2583 76.8102L79.679 76.5518L79.7986 76.4755C78.9018 76.3245 78.0839 75.8774 77.4795 75.2079C76.875 74.5383 76.5201 73.6862 76.4729 72.7916C76.4257 71.897 76.6892 71.0133 77.22 70.2857C77.7508 69.5582 78.5173 69.0302 79.3933 68.7885L79.3723 70.4138L80.2802 68.6457H80.2912C81.3531 68.5972 82.3911 68.9658 83.1769 69.6706C83.9627 70.3755 84.4321 71.3587 84.4817 72.4042C84.4817 72.4794 84.4817 72.5535 84.4817 72.6222C84.802 72.2792 85.0688 71.8913 85.2733 71.4711C85.6575 70.6274 85.6652 69.6725 85.6342 68.5116C85.5811 66.2149 85.4704 63.892 85.3431 61.5844C84.3956 61.4809 83.5167 61.0481 82.8643 60.3638C82.2118 59.6794 81.8287 58.7885 81.7836 57.8509C81.7781 57.731 81.7836 57.6111 81.7836 57.4934C81.7836 57.464 81.7836 57.4346 81.7836 57.404C81.7914 57.2896 81.8025 57.1762 81.8202 57.065C81.8202 57.0465 81.8268 57.0291 81.8301 57.0105C81.8467 56.9157 81.8667 56.8219 81.8888 56.7293L81.9154 56.6203C81.9442 56.52 81.9752 56.4208 82.0106 56.3227C82.0228 56.29 82.0372 56.2584 82.0493 56.2268C82.0781 56.1548 82.1091 56.084 82.1412 56.0088C82.159 55.9717 82.1756 55.9357 82.1944 55.8998C82.1944 55.891 82.2021 55.8812 82.2077 55.8714C82.6308 55.0488 83.3333 54.3981 84.1932 54.0327C85.0531 53.6672 86.0158 53.6101 86.9141 53.8712L86.8864 55.987L87.7843 54.2429C88.5213 54.6585 89.1042 55.2952 89.4479 56.0599C89.7917 56.8246 89.8783 57.6775 89.6952 58.4941C89.6885 58.5224 89.6797 58.5486 89.673 58.5769C89.6609 58.6292 89.6476 58.6805 89.6321 58.7317C89.6166 58.7829 89.5922 58.8625 89.5701 58.9268C89.5479 58.9911 89.5369 59.0238 89.5192 59.0718C89.4915 59.1416 89.4605 59.2102 89.4295 59.2778C89.4118 59.3171 89.3952 59.3574 89.3763 59.3966C89.3254 59.4991 89.2656 59.5983 89.2103 59.6953C89.1892 59.7291 89.166 59.7618 89.1438 59.7956C89.1018 59.861 89.0575 59.9253 89.011 59.9885C88.9822 60.0267 88.9512 60.0648 88.9213 60.0975C88.877 60.1531 88.8327 60.2065 88.7862 60.2589C88.7397 60.3112 88.7187 60.3319 88.6844 60.3679C88.6501 60.4038 88.5847 60.4682 88.5327 60.5172C88.4984 60.5499 88.4641 60.5826 88.4275 60.6131C88.3688 60.6655 88.3068 60.7145 88.2448 60.7625L88.1507 60.8355C88.0555 60.9042 87.9581 60.9696 87.8562 61.0306L87.7976 61.0622C87.7134 61.1113 87.6271 61.1571 87.5385 61.2007L87.4278 61.2519C87.3547 61.2835 87.2816 61.3151 87.2064 61.3424L87.0746 61.3892C87.0004 61.4143 86.9263 61.4361 86.8532 61.4568L86.7192 61.4917C86.6373 61.5113 86.5532 61.5266 86.469 61.5419H86.4524C86.5078 62.5164 86.5572 63.4916 86.6008 64.4675C86.8395 63.9845 87.1761 63.5546 87.5897 63.2042C88.0034 62.8539 88.4854 62.5905 89.0062 62.4302C89.527 62.2699 90.0756 62.2162 90.6182 62.2722C91.1609 62.3283 91.6862 62.493 92.1619 62.7562L91.4544 64.667L92.9114 63.2892C93.6926 63.9929 94.1584 64.9729 94.2067 66.0143C94.2256 66.3806 94.1913 66.7476 94.1049 67.1044C93.9216 67.874 93.5077 68.5717 92.9168 69.1069C92.3259 69.6421 91.5854 69.9902 90.7911 70.1061C89.9969 70.2219 89.1856 70.1001 88.4625 69.7565C87.7395 69.413 87.1379 68.8634 86.7358 68.1792C86.7358 68.2773 86.7425 68.3775 86.7447 68.4767C86.7724 69.5003 86.8056 70.7757 86.2863 71.9137C85.9354 72.6854 85.3696 73.3122 84.8105 73.8758C84.4459 74.2391 84.0702 74.593 83.6835 74.9375C83.3032 75.4396 82.8072 75.8457 82.2364 76.1223C81.601 76.6041 80.9437 77.0551 80.2647 77.4751L79.8395 77.7345C79.4587 77.9667 79.0645 78.2065 78.6837 78.455C78.7512 78.4485 78.8187 78.4409 78.8863 78.4376C79.7358 78.3986 80.576 78.6264 81.2855 79.0882C81.9949 79.55 82.5369 80.2219 82.8332 81.0069L80.3289 83.0125L83.0834 82.3836C83.0827 83.0509 82.9101 83.7071 82.582 84.291C82.2538 84.8748 81.7807 85.3672 81.2068 85.7222C80.6329 86.0773 79.977 86.2833 79.3004 86.321C78.6237 86.3588 77.9483 86.2271 77.3374 85.9382L77.5234 86.1661C77.6463 86.3165 77.7692 86.4658 77.8888 86.6152C79.5184 88.647 79.9713 90.5764 79.1642 92.0469L78.1832 91.5247C78.9682 90.0935 77.7869 88.2611 77.013 87.2953C76.8957 87.1493 76.775 87.0021 76.6543 86.8593C75.6136 85.5861 74.4334 84.1429 74.4622 82.3716C74.5098 79.7064 77.1437 78.0997 79.2583 76.8102Z" fill="#F2F2F2"/>
  <path d="M56.9065 100C88.3351 100 113.813 97.8039 113.813 95.0948C113.813 92.3857 88.3351 90.1896 56.9065 90.1896C25.4779 90.1896 0 92.3857 0 95.0948C0 97.8039 25.4779 100 56.9065 100Z" fill="#F2F2F2"/>
  <path d="M12.1119 94.6773C11.7798 94.0767 12.1562 93.3398 12.5869 92.8046C13.0176 92.2694 13.5401 91.7146 13.5291 91.0289C13.5125 90.0479 12.4552 89.4691 11.6104 88.948C10.9832 88.5625 10.4048 88.1048 9.88772 87.5844C9.67099 87.3843 9.49184 87.1482 9.35851 86.8868C9.18358 86.5031 9.18801 86.067 9.19908 85.6474C9.23673 84.2478 9.30721 82.8492 9.41055 81.4518" stroke="#3F3D56" stroke-width="2.85714" stroke-miterlimit="10"/>
  <path d="M7.80411 81.3754C7.81588 81.1192 7.89306 80.87 8.02851 80.6509C8.16397 80.4318 8.35333 80.2499 8.5791 80.1219L8.92674 80.7999L8.91567 79.9791C9.08196 79.9311 9.25515 79.9105 9.42827 79.918C9.73407 79.933 10.0285 80.0367 10.2745 80.2162C10.5205 80.3957 10.7069 80.643 10.8104 80.9267C10.9138 81.2104 10.9296 81.518 10.8557 81.8105C10.7818 82.1031 10.6215 82.3675 10.3952 82.5705C10.1688 82.7735 9.88646 82.9059 9.58374 82.9511C9.28102 82.9962 8.97149 82.9521 8.69421 82.8243C8.41692 82.6964 8.1843 82.4906 8.0257 82.2328C7.86709 81.9749 7.7896 81.6766 7.803 81.3754H7.80411Z" fill="#57B894"/>
  <path d="M10.5753 91.7298C10.7383 92.0408 11.0049 92.2873 11.3304 92.4278C11.656 92.5683 12.0207 92.5944 12.3635 92.5016C12.7062 92.4089 13.0062 92.2029 13.2131 91.9183C13.42 91.6337 13.5213 91.2878 13.4999 90.9384C13.4786 90.5891 13.3359 90.2576 13.0958 89.9995C12.8558 89.7414 12.5329 89.5723 12.1813 89.5207C11.8297 89.4691 11.4708 89.538 11.1647 89.716C10.8586 89.8939 10.6239 90.17 10.5 90.4981L11.4709 91.2753L10.407 91.0344C10.4064 91.276 10.464 91.5144 10.5753 91.7298Z" fill="#57B894"/>
  <path d="M11.3426 88.7594C11.7287 88.7862 12.111 88.6699 12.4144 88.4332C12.7177 88.1966 12.9202 87.8568 12.982 87.4806C13.0437 87.1044 12.9603 86.7191 12.7481 86.4004C12.5359 86.0817 12.2103 85.8527 11.8353 85.7585L11.8442 86.3885L11.4921 85.7029C11.2882 85.6931 11.0844 85.723 10.8923 85.7909C10.7002 85.8589 10.5236 85.9635 10.3727 86.0988C10.2218 86.2341 10.0995 86.3975 10.0129 86.5794C9.92629 86.7614 9.87702 86.9584 9.86793 87.1592C9.85884 87.3357 9.88132 87.5124 9.93436 87.6813C10.0277 87.9819 10.2131 88.2468 10.4652 88.4398C10.7173 88.6328 11.0237 88.7444 11.3426 88.7594Z" fill="#57B894"/>
  <path d="M7.57048 86.2883C7.80899 86.2969 8.04631 86.2512 8.26393 86.1547C8.48154 86.0582 8.67359 85.9135 8.82509 85.7319C8.97659 85.5504 9.08346 85.3368 9.13735 85.1079C9.19125 84.8789 9.19073 84.6409 9.13582 84.4122C9.08091 84.1835 8.97311 83.9704 8.82081 83.7894C8.66851 83.6085 8.47582 83.4647 8.25778 83.3691C8.03974 83.2735 7.80222 83.2288 7.56375 83.2385C7.32528 83.2481 7.09229 83.3119 6.88295 83.4247L7.15752 84.166L6.59288 83.6318C6.2903 83.9047 6.10994 84.2845 6.09135 84.6881C6.08398 84.8298 6.09703 84.9718 6.1301 85.1099C6.2068 85.4342 6.38907 85.7248 6.64911 85.9375C6.90916 86.1502 7.23272 86.2734 7.57048 86.2883Z" fill="#57B894"/>
  <path opacity="0.1" d="M8.01344 81.783C8.37215 81.8212 8.72089 81.9313 9.08071 81.9531C9.44053 81.9749 9.83577 81.891 10.0638 81.6152C10.1856 81.4669 10.2476 81.2794 10.3506 81.117C10.4489 80.9661 10.5835 80.8415 10.7425 80.754C10.8365 80.947 10.8882 81.1573 10.8942 81.3713C10.9002 81.5852 10.8605 81.7981 10.7776 81.9959C10.6946 82.1937 10.5704 82.3722 10.4128 82.5197C10.2553 82.6672 10.068 82.7804 9.86311 82.8519C9.65823 82.9235 9.44036 82.9518 9.22363 82.9351C9.00691 82.9184 8.79619 82.8569 8.60515 82.7548C8.41411 82.6527 8.24703 82.5121 8.11476 82.3422C7.9825 82.1724 7.888 81.977 7.8374 81.7689C7.89571 81.7689 7.95439 81.7736 8.01344 81.783Z" fill="black"/>
  <path opacity="0.1" d="M7.5706 86.2883C7.83858 86.3016 8.1055 86.2463 8.34525 86.1277C8.58499 86.009 8.78934 85.8311 8.93831 85.6114C9.08728 85.3917 9.17576 85.1376 9.1951 84.8741C9.21443 84.6106 9.16396 84.3467 9.04862 84.1082C8.92533 84.1898 8.8193 84.2942 8.73641 84.4155C8.6257 84.5801 8.55816 84.7709 8.42863 84.9213C8.18616 85.2015 7.77321 85.293 7.39789 85.2767C7.02257 85.2603 6.66054 85.1546 6.29076 85.1208C6.23872 85.1208 6.18669 85.1132 6.13354 85.1121C6.21051 85.4354 6.39246 85.7251 6.6518 85.9374C6.91114 86.1496 7.23372 86.2728 7.5706 86.2883Z" fill="black"/>
  <path opacity="0.1" d="M11.3425 88.7593C11.608 88.7725 11.8725 88.7183 12.1105 88.6019C12.3486 88.4854 12.5522 88.3106 12.7019 88.0943C12.8515 87.878 12.9422 87.6274 12.9651 87.3667C12.988 87.1059 12.9424 86.8437 12.8327 86.6053C12.7038 86.6882 12.5912 86.7935 12.5006 86.916C12.3799 87.0839 12.3046 87.2779 12.1684 87.4327C11.906 87.7194 11.4654 87.8208 11.069 87.812C10.6727 87.8033 10.3129 87.7107 9.93091 87.6812C10.0245 87.9824 10.2104 88.2476 10.4631 88.4406C10.7158 88.6336 11.023 88.7449 11.3425 88.7593Z" fill="black"/>
  <path opacity="0.1" d="M10.5754 91.7298C10.7435 92.0997 11.054 92.3887 11.4385 92.5332C11.8231 92.6778 12.2501 92.666 12.6258 92.5005C13.0015 92.335 13.2951 92.0293 13.4419 91.6507C13.5887 91.2721 13.5767 90.8516 13.4086 90.4817C13.2803 90.5643 13.1654 90.6653 13.0676 90.7815C12.9192 90.958 12.8218 91.1597 12.6513 91.3265C12.3336 91.6339 11.821 91.7625 11.3637 91.7723C11.1003 91.7735 10.8371 91.7593 10.5754 91.7298Z" fill="black"/>
  <path d="M14.4558 93.9852C14.4558 93.9852 13.2291 93.9482 12.8593 93.6887C12.4895 93.4293 10.9771 93.1208 10.8819 93.5361C10.7867 93.9514 9.03856 95.6072 10.4225 95.6138C11.8064 95.6203 13.6398 95.4023 14.0096 95.1777C14.3794 94.9532 14.4558 93.9852 14.4558 93.9852Z" fill="#656380"/>
  <path opacity="0.2" d="M10.3981 95.4699C11.7831 95.4808 13.6154 95.2518 13.9841 95.0338C14.2653 94.8649 14.3771 94.261 14.4147 93.9819H14.4557C14.4557 93.9819 14.3782 94.9564 14.0129 95.181C13.6475 95.4055 11.8108 95.6246 10.4258 95.617C10.0261 95.617 9.8888 95.4742 9.89655 95.2671C9.94858 95.3946 10.1003 95.4666 10.3981 95.4699Z" fill="black"/>
  <path d="M69.1204 54.2255C70.3449 55.1477 71.0645 56.6138 71.3048 58.1126C71.3756 58.5486 71.4089 59.0021 71.4808 59.4446C71.7847 61.2648 72.7374 62.9188 74.1678 64.1101C73.9577 64.2122 73.7255 64.2624 73.4913 64.2561C73.257 64.2498 73.0279 64.1873 72.8238 64.0741C73.1362 65.3144 73.7128 66.4751 74.5155 67.4794C73.5953 67.0205 72.7885 66.3686 72.1517 65.5696C72.0323 66.3575 72.0774 67.161 72.2841 67.9311C72.4908 68.7013 72.8549 69.4218 73.3541 70.0486C72.7416 69.7621 72.1985 69.3498 71.7613 68.8396C71.324 68.3293 71.0026 67.7329 70.8188 67.0902L71.875 69.8328C71.2107 69.6464 70.7346 69.0916 70.3527 68.5247C68.9371 66.4251 68.3261 63.8982 68.6289 61.3958C68.7595 60.3461 69.0507 59.3149 69.0983 58.2587C69.1459 57.2024 68.9056 56.0677 68.1373 55.3275C67.5571 54.7672 66.7467 54.51 65.9507 54.4555C65.4503 54.4206 64.1538 54.8141 64.6443 53.9268C65.3949 52.5719 68.2469 53.5682 69.1204 54.2255Z" fill="#3F3D56"/>
  <path d="M65.106 53.4037L65.7392 54.8949C66.016 55.1129 66.1599 54.6856 66.2574 54.7783C66.382 54.9022 66.4933 55.0384 66.5895 55.1848L66.6238 55.1663L65.695 53.1236C65.375 52.8478 65.2167 53.2391 65.106 53.4037Z" fill="#6C63FF"/>
  <path d="M61.6173 65.2961C65.3759 65.2961 68.4228 62.4089 68.4228 58.8474C68.4228 55.2859 65.3759 52.3987 61.6173 52.3987C57.8587 52.3987 54.8118 55.2859 54.8118 58.8474C54.8118 62.4089 57.8587 65.2961 61.6173 65.2961Z" fill="#3F3D56"/>
  <path d="M50.7066 93.2373C49.3415 93.1381 47.9388 93.0421 46.6346 93.464C46.1508 93.621 45.6581 93.851 45.1554 93.767C44.624 93.6787 44.221 93.2602 43.8601 92.8656C43.4682 92.4372 43.0619 91.9826 42.929 91.4202C42.8357 90.9851 42.8934 90.5318 43.0929 90.1328C43.1209 90.0655 43.1628 90.0047 43.2158 89.954C43.3265 89.8581 43.4914 89.8559 43.6398 89.8614C44.9196 89.9148 46.2072 90.2255 47.4682 90.0053C48.2056 89.8766 49.6604 89.3425 50.091 90.2603C50.2726 90.6408 49.9681 93.1839 50.7066 93.2373Z" fill="#575A89"/>
  <path d="M37.2129 84.6107C35.5102 85.0674 33.8816 85.7563 32.2596 86.4431L28.6526 87.9691L29.7188 90.5678C29.8106 90.7858 29.6368 90.7727 29.8583 90.8708C30.104 90.9798 30.6709 91.1303 30.9233 91.0354C33.3535 90.1209 36.149 90.6441 38.5935 89.7666C39.4936 89.4396 40.335 88.9327 41.2816 88.7856C42.3887 88.6101 43.5612 88.9469 44.6329 88.6144C44.7486 88.5881 44.8526 88.5258 44.9296 88.4368C44.9891 88.3297 45.0109 88.2063 44.9916 88.0858C44.9363 87.1887 44.5919 86.3417 44.1447 85.571C43.8513 85.0609 43.3829 84.0449 42.7995 83.7964C42.1408 83.5185 40.8543 83.925 40.1678 84.0253C39.1719 84.1625 38.1852 84.358 37.2129 84.6107Z" fill="#FFC1C7"/>
  <path d="M31.3185 90.9897C29.9789 91.2633 28.5994 91.5543 27.4679 92.3119C27.0461 92.5942 26.6375 92.9485 26.1305 93.0041C25.5946 93.0629 25.0909 92.7708 24.6336 92.4885C24.1365 92.1833 23.6184 91.8563 23.3339 91.3516C23.1227 90.9582 23.0513 90.5065 23.1313 90.0686C23.1396 89.9969 23.1625 89.9275 23.1988 89.8647C23.2956 89.7515 23.4326 89.6786 23.5819 89.6609C24.8274 89.3644 26.5124 88.8325 27.6627 88.2787C28.3359 87.9517 29.2238 87.5288 29.8947 88.294C30.1726 88.6112 30.5911 91.1434 31.3185 90.9897Z" fill="#575A89"/>
  <path d="M59.3423 66.8352C59.2551 67.0912 59.2194 67.3615 59.2371 67.631V69.6432C59.221 69.9325 59.2559 70.2223 59.34 70.5C59.4696 70.8521 59.7508 71.1268 60.0375 71.372C60.9608 72.1592 62.0284 72.7652 63.1829 73.1575C63.825 73.3755 64.5281 73.5303 65.1824 73.3439C65.5581 73.2198 65.9091 73.0324 66.2197 72.7902C67.0817 72.1714 67.8538 71.4398 68.5148 70.6155C69.1791 69.7795 69.7559 68.7003 69.4238 67.6876C68.8028 67.5585 68.2272 67.2708 67.755 66.8533C67.2827 66.4358 66.9304 65.9032 66.7335 65.3092C66.6061 64.9102 66.5441 64.472 66.2773 64.1472C65.706 63.4517 64.5989 63.6468 63.7309 63.9074C62.8884 64.1592 61.4248 64.3052 60.8003 64.9375C60.5535 65.1871 60.4593 65.5969 60.218 65.8694C59.9279 66.2019 59.5194 66.409 59.3423 66.8352Z" fill="#FFC1C7"/>
  <path opacity="0.1" d="M59.3423 66.8352C59.2551 67.0912 59.2194 67.3615 59.2371 67.631V69.6432C59.221 69.9325 59.2559 70.2223 59.34 70.5C59.4696 70.8521 59.7508 71.1268 60.0375 71.372C60.9608 72.1592 62.0284 72.7652 63.1829 73.1575C63.825 73.3755 64.5281 73.5303 65.1824 73.3439C65.5581 73.2198 65.9091 73.0324 66.2197 72.7902C67.0817 72.1714 67.8538 71.4398 68.5148 70.6155C69.1791 69.7795 69.7559 68.7003 69.4238 67.6876C68.8028 67.5585 68.2272 67.2708 67.755 66.8533C67.2827 66.4358 66.9304 65.9032 66.7335 65.3092C66.6061 64.9102 66.5441 64.472 66.2773 64.1472C65.706 63.4517 64.5989 63.6468 63.7309 63.9074C62.8884 64.1592 61.4248 64.3052 60.8003 64.9375C60.5535 65.1871 60.4593 65.5969 60.218 65.8694C59.9279 66.2019 59.5194 66.409 59.3423 66.8352Z" fill="black"/>
  <path d="M63.3367 66.772C66.3676 66.772 68.8247 64.3528 68.8247 61.3686C68.8247 58.3844 66.3676 55.9652 63.3367 55.9652C60.3057 55.9652 57.8486 58.3844 57.8486 61.3686C57.8486 64.3528 60.3057 66.772 63.3367 66.772Z" fill="#FFC1C7"/>
  <path d="M77.808 80.6952C78.0936 81.0964 78.3416 81.5226 78.6394 81.915C79.2517 82.7205 80.0599 83.3593 80.8537 83.9861L85.3841 87.5571C86.6484 88.5545 87.9836 89.5846 89.5768 89.8734C90.1204 89.9726 90.7636 89.9443 91.1124 89.5235C91.5198 89.0297 91.2795 88.2515 90.8046 87.8209C90.3296 87.3903 89.6897 87.1974 89.104 86.9303C86.6285 85.7977 85.1294 83.3331 83.3868 81.2621C81.8556 79.4449 80.0566 77.8666 78.387 76.1726C76.6156 74.3719 75.214 72.2822 73.5234 70.439C72.7152 71.1017 71.794 72.4468 71.6125 73.4911C71.4497 74.4242 71.9922 75.1076 72.6089 75.7562C74.2474 77.497 76.4108 78.7375 77.808 80.6952Z" fill="#FFC1C7"/>
  <path d="M74.8917 67.9471C74.8718 69.4874 73.5421 70.7126 73.2 72.2147C73.1589 72.4629 73.0989 72.7078 73.0207 72.9472C72.8801 73.2971 72.6077 73.5794 72.3276 73.8356C71.8648 74.2596 71.3379 74.6553 70.7179 74.7763C70.6437 74.7905 70.9393 69.7261 71.0434 69.2563C71.3655 67.7346 73.603 68.0834 74.8917 67.9471Z" fill="#FF6584"/>
  <path d="M60.4117 67.1896C60.3995 68.0976 60.4804 69.0252 60.8446 69.8591C61.2089 70.693 61.8886 71.4277 62.7743 71.685C63.2416 71.8212 63.7364 71.8201 64.2236 71.8136C64.6166 71.807 65.0174 71.7972 65.3883 71.6708C66.1334 71.4179 66.6482 70.7355 66.9471 70.0183C67.246 69.301 67.3734 68.5271 67.6191 67.7913C67.7476 67.4043 67.9856 66.9705 68.3941 66.9345C68.6543 66.9127 68.8934 67.0632 69.1093 67.207L71.3236 68.6841C71.7665 71.1748 71.3125 73.7659 70.3947 76.1269C70.119 76.8344 69.7836 77.5287 69.6574 78.2754C69.3994 79.8124 70.0537 81.3363 70.5818 82.8056C70.9671 83.8761 71.2904 84.9672 71.6148 86.0573L72.4307 88.8053C72.62 89.4451 72.8116 90.1133 72.6721 90.7674C72.5326 91.4214 71.9403 92.0307 71.2682 91.9544C71.0811 91.9337 70.8785 91.865 70.7147 91.9544C70.315 92.1724 70.7601 92.7643 70.7235 93.2145C70.677 93.7966 69.8766 93.922 69.2843 93.9089C66.3415 93.8446 63.4364 94.4692 60.5191 94.8496C57.6018 95.23 54.5517 95.3532 51.7972 94.334C50.6181 93.898 49.5264 93.2614 48.4414 92.6302C46.3877 91.4312 44.2166 90.1144 43.208 87.9845C42.7652 87.0525 42.5737 86.0071 42.009 85.1427C41.699 84.6653 41.2706 84.2303 41.1776 83.6711C41.0469 82.8841 41.6603 82.1287 42.3954 81.7973C43.1305 81.466 43.9709 81.454 44.7802 81.4136C45.5895 81.3733 46.4409 81.2839 47.1051 80.8316C47.8281 80.3443 48.2709 79.4799 49.0747 79.1354C49.4179 78.9905 49.7977 78.9567 50.1597 78.8662C50.6528 78.7302 51.1226 78.5227 51.5536 78.2503C54.9049 76.2403 56.839 72.1591 56.25 68.3396C56.1844 67.9576 56.1474 67.5715 56.1393 67.1842C56.133 67.118 56.146 67.0514 56.177 66.9923C56.2177 66.9421 56.2735 66.9059 56.3364 66.8887C56.8479 66.7034 57.428 66.8026 57.9462 66.6359C58.3381 66.5094 58.6658 66.2402 59.0433 66.0767C59.4208 65.9132 59.918 65.8815 60.1958 66.1857C60.4494 66.4571 60.4173 66.8157 60.4117 67.1896Z" fill="#FF6584"/>
  <path d="M59.7584 62.0108C59.3676 60.6373 57.5929 59.8198 57.3316 58.4234C57.1943 57.6866 57.5342 56.9388 58.0612 56.3894C58.5882 55.84 59.2879 55.4618 59.9887 55.1152C61.0161 54.6061 62.1376 54.1341 63.3101 54.2377C64.5191 54.3467 66.0635 54.557 67.0023 55.2885C67.6666 55.8052 67.8504 56.8799 68.0552 57.6517C68.1503 58.0381 68.1226 58.4439 67.9759 58.8143C67.8292 59.1847 67.5705 59.5018 67.2348 59.7228C66.4599 60.2307 65.4125 60.1937 64.4482 60.197C63.4839 60.2002 62.4078 60.3169 61.8132 61.0047C61.4877 61.3808 61.3626 61.8702 61.1268 62.2997C60.891 62.7291 60.4559 63.1346 59.93 63.0921L59.7584 62.0108Z" fill="#3F3D56"/>
  <path d="M50.7198 75.814C50.3667 76.3721 50.0068 76.9411 49.8341 77.5777C49.564 78.5893 49.812 79.7 50.3999 80.571C50.9877 81.4419 51.8945 82.0796 52.8865 82.4524C53.2806 82.6006 53.6891 82.7097 54.0789 82.8688C55.8104 83.5762 57.0958 85.244 58.9403 85.5798C59.1997 85.6426 59.472 85.6297 59.7241 85.5427C60.3131 85.2963 60.4183 84.5333 60.436 83.9076C60.4449 83.5937 60.4515 83.2656 60.3098 82.9843C60.1846 82.767 60.0108 82.5806 59.8016 82.4393C58.4819 81.4441 56.7935 81.0659 55.3476 80.2592C54.669 79.8821 53.9925 79.3229 53.9017 78.5609C53.8032 77.727 54.4298 77.0043 54.928 76.322C56.1525 74.6444 57.1932 71.9302 56.6053 69.8416C55.7772 66.8985 53.7379 71.0538 53.1932 71.9127C52.3702 73.2121 51.5457 74.5125 50.7198 75.814Z" fill="#FFC1C7"/>
  <path d="M54.7664 67.7531C54.4509 68.1107 54.2383 68.5434 53.9693 68.9369C53.5899 69.4915 53.1003 69.9647 52.53 70.3278C53.1677 70.2624 53.8885 70.2188 54.3634 70.645C54.7653 71.0015 54.8583 71.5781 55.1196 72.0446C55.3159 72.4133 55.6412 72.6994 56.0352 72.8502C56.232 72.9229 56.444 72.9464 56.6523 72.9186C56.8606 72.8909 57.0586 72.8127 57.2287 72.691C57.7413 72.2986 57.7978 71.5694 57.811 70.9295L57.8343 69.7784C57.8431 69.35 57.8343 68.8802 57.5553 68.5543C57.3815 68.3537 57.1279 68.2415 56.8999 68.103C56.0208 67.57 55.7551 66.6358 54.7664 67.7531Z" fill="#FF6584"/>
  <path d="M58.5671 64.0208C58.7166 63.4125 58.2981 62.7803 58.4099 62.1677C58.4395 62.0128 58.5015 61.8656 58.5921 61.7355C58.6826 61.6055 58.7997 61.4954 58.9358 61.4123C59.0897 61.3197 59.2679 61.2641 59.424 61.179C59.7264 61.0037 59.955 60.7277 60.0688 60.4008C60.1825 60.074 60.1737 59.7178 60.044 59.3968C59.8159 58.8812 59.3022 58.552 58.7963 58.2937C58.2593 58.0179 57.605 57.7879 57.0691 58.0648C56.4182 58.4016 56.3263 59.2638 56.3174 59.992C56.3097 60.5871 56.3041 61.191 56.4802 61.7622C56.6834 62.3752 57.0111 62.9412 57.4434 63.4256C57.5197 63.5052 58.4663 64.4372 58.5671 64.0208Z" fill="#3F3D56"/>
  <path d="M58.6426 71.6511C58.1432 73.1379 56.4283 73.756 55.2282 74.8122C55.2886 74.6439 55.319 74.4665 55.3178 74.2879C55.3178 73.8519 55.2071 73.4159 55.3333 72.9973C54.6724 73.7773 53.7832 74.3376 52.7869 74.6019L52.302 69.7915C52.0553 70.554 51.6447 71.2552 51.0981 71.8475C50.5516 72.4398 49.8818 72.9093 49.1345 73.224C50.5096 70.7987 50.9281 67.9798 51.3709 65.2372C51.4787 64.466 51.6325 63.7016 51.8315 62.9481C52.1083 61.9734 52.5294 61.0441 53.0814 60.1903C53.4177 59.6639 53.8277 59.1869 54.2993 58.7733C54.7742 58.3808 55.3112 58.1083 55.836 58.2043C56.7416 58.3721 56.3774 58.8092 55.836 59.2104C55.4064 59.5265 54.8639 59.8219 54.7355 59.9483C54.5897 60.0927 54.4808 60.269 54.4177 60.4628C54.2096 61.0874 54.4332 61.8799 54.7056 62.5252C55.4021 64.1823 56.25 65.7738 57.2387 67.28C57.6816 67.9449 58.1443 68.599 58.4566 69.3326C58.7688 70.0662 58.8994 70.899 58.6426 71.6511Z" fill="#3F3D56"/>
  <path d="M54.9579 58.4255L55.104 60.0355C54.9612 60.3516 54.6335 60.0431 54.5914 60.1707C54.5363 60.3375 54.4992 60.5096 54.4807 60.6841H54.4419L54.2947 58.4506C54.4574 58.0571 54.7829 58.3328 54.9579 58.4255Z" fill="#6C63FF"/>
  <path d="M89.073 82.5113C89.6673 82.5113 90.1491 82.0369 90.1491 81.4517C90.1491 80.8666 89.6673 80.3922 89.073 80.3922C88.4786 80.3922 87.9968 80.8666 87.9968 81.4517C87.9968 82.0369 88.4786 82.5113 89.073 82.5113Z" fill="#3F3D56"/>
  <path d="M88.4486 89.6946C88.5593 90.4576 88.4242 91.2446 88.2127 91.9913C88.1787 92.1317 88.1266 92.2672 88.0577 92.3946C87.976 92.5156 87.8881 92.6324 87.7942 92.7445C87.6252 92.9974 87.4954 93.2737 87.409 93.5643C87.1356 94.3548 86.9061 95.1593 86.7214 95.9743C86.7104 96.0076 86.7104 96.0435 86.7214 96.0768C86.7469 96.1357 86.8322 96.1444 86.8919 96.1433H87.7367C87.7677 96.0866 87.7112 96.0245 87.6758 95.97C87.554 95.7858 87.6758 95.547 87.7765 95.3541C88.0356 94.8857 88.2356 94.3878 88.3722 93.8716C88.4201 93.6518 88.4867 93.4363 88.5715 93.2274C88.7014 92.9871 88.8467 92.7552 89.0066 92.5331C89.1675 92.2585 89.3056 91.9716 89.4195 91.6752C89.6059 91.2734 89.7427 90.8511 89.8269 90.4173C89.8761 90.0054 89.8731 89.5891 89.8181 89.1779C89.8181 89.1519 89.8087 89.1268 89.7915 89.107C89.7723 89.0943 89.7494 89.0878 89.7262 89.0885L88.5925 89.0318C88.3589 89.0198 88.3035 88.9697 88.339 89.1953C88.3655 89.3599 88.4242 89.5245 88.4486 89.6946Z" fill="#575A89"/>
  <path opacity="0.1" d="M88.4486 89.6946C88.5593 90.4576 88.4242 91.2446 88.2127 91.9913C88.1787 92.1317 88.1266 92.2672 88.0577 92.3946C87.976 92.5156 87.8881 92.6324 87.7942 92.7445C87.6252 92.9974 87.4954 93.2737 87.409 93.5643C87.1356 94.3548 86.9061 95.1593 86.7214 95.9743C86.7104 96.0076 86.7104 96.0435 86.7214 96.0768C86.7469 96.1357 86.8322 96.1444 86.8919 96.1433H87.7367C87.7677 96.0866 87.7112 96.0245 87.6758 95.97C87.554 95.7858 87.6758 95.547 87.7765 95.3541C88.0356 94.8857 88.2356 94.3878 88.3722 93.8716C88.4201 93.6518 88.4867 93.4363 88.5715 93.2274C88.7014 92.9871 88.8467 92.7552 89.0066 92.5331C89.1675 92.2585 89.3056 91.9716 89.4195 91.6752C89.6059 91.2734 89.7427 90.8511 89.8269 90.4173C89.8761 90.0054 89.8731 89.5891 89.8181 89.1779C89.8181 89.1519 89.8087 89.1268 89.7915 89.107C89.7723 89.0943 89.7494 89.0878 89.7262 89.0885L88.5925 89.0318C88.3589 89.0198 88.3035 88.9697 88.339 89.1953C88.3655 89.3599 88.4242 89.5245 88.4486 89.6946Z" fill="black"/>
  <path d="M88.6722 87.8285C88.4419 88.1555 88.1994 88.5305 88.2769 88.9185C88.3345 89.2139 88.5637 89.4439 88.7807 89.6587C89.6454 90.5133 90.4967 91.4638 90.7912 92.6356C90.8665 92.9386 90.9019 93.2504 90.9684 93.5556C91.1029 94.1063 91.2843 94.6449 91.5109 95.1656L92.0755 96.5707C92.2503 96.5749 92.4222 96.5261 92.5679 96.4309C92.7137 96.3358 92.8262 96.1989 92.8904 96.0387C92.8044 96.021 92.7282 95.9725 92.6767 95.9025C92.4364 95.5755 92.3866 95.1525 92.3246 94.7525C92.2571 94.3099 92.1652 93.8717 92.0733 93.4335L91.6703 91.4965C91.6238 91.272 91.5773 91.0485 91.5164 90.8272C91.2806 89.9737 90.8344 89.1671 90.7658 88.2841C90.7714 88.1526 90.7325 88.023 90.6551 87.9157C90.547 87.8265 90.4084 87.7813 90.2676 87.7892C89.7074 87.7522 89.2202 87.6988 88.6722 87.8285Z" fill="#575A89"/>
  <path d="M87.15 95.9547C87.0887 95.9397 87.0259 95.9316 86.9629 95.9307C86.9024 95.9328 86.8433 95.9488 86.7903 95.9774C86.7372 96.006 86.6917 96.0463 86.6573 96.0953C86.622 96.151 86.5944 96.2111 86.5754 96.2741L86.4934 96.5041C86.4767 96.536 86.4671 96.5711 86.4652 96.607C86.4633 96.6429 86.4691 96.6788 86.4824 96.7123C86.5091 96.7513 86.5479 96.7807 86.5931 96.7962C86.7977 96.8654 87.0122 96.9022 87.2286 96.9052C87.4378 96.9259 87.6448 96.9619 87.8508 97C87.9216 97.0131 87.9925 97.0262 88.0644 97.0338C88.2258 97.0438 88.3878 97.0391 88.5483 97.0197L88.7143 97.0033C88.7697 97.0012 88.8245 96.9913 88.8771 96.9739C88.9036 96.9646 88.928 96.9502 88.9487 96.9315C88.9694 96.9127 88.9861 96.8901 88.9978 96.8649C89.0048 96.8392 89.0063 96.8124 89.0022 96.7861C88.9982 96.7598 88.9886 96.7346 88.9741 96.7122C88.9596 96.6898 88.9406 96.6705 88.9182 96.6557C88.8958 96.6409 88.8704 96.6308 88.8439 96.6261C88.7996 96.6174 88.7542 96.6261 88.7099 96.6163C88.6599 96.6078 88.6112 96.5932 88.5649 96.5727C88.349 96.4995 88.1431 96.4007 87.9515 96.2784C87.8995 96.2424 87.8408 96.1923 87.8508 96.1302C87.8564 96.1038 87.8654 96.0781 87.8773 96.0539C87.9017 95.9899 87.9017 95.9194 87.8773 95.8555C87.8663 95.8282 87.8475 95.7999 87.8187 95.7966C87.739 95.7868 87.7489 95.9002 87.7367 95.9449C87.7246 95.9896 87.6925 96.0103 87.636 96.0048C87.4743 95.9928 87.3116 95.9841 87.15 95.9547Z" fill="#3F3D56"/>
  <path d="M91.9029 96.7496C91.9031 96.8651 91.942 96.9774 92.0136 97.069C92.0362 97.0956 92.0641 97.1175 92.0955 97.1333C92.1424 97.1523 92.1933 97.1601 92.2439 97.1562C92.3873 97.1539 92.5292 97.1258 92.6624 97.0733C92.7093 97.053 92.7574 97.0351 92.8063 97.0199C92.8685 97.0076 92.9313 96.9985 92.9945 96.9926C93.2436 96.9578 93.4617 96.8128 93.7031 96.7398C93.7742 96.7217 93.8441 96.6991 93.9123 96.6722C94.0049 96.6222 94.0887 96.5578 94.1603 96.4814C94.2033 96.442 94.2406 96.3968 94.271 96.3473C94.3084 96.2622 94.3251 96.1696 94.3197 96.077C94.3211 96.0628 94.3185 96.0484 94.312 96.0356C94.3055 96.0261 94.2962 96.0189 94.2854 96.0149C94.2074 95.9897 94.1232 95.9897 94.0452 96.0149C93.7519 96.0561 93.455 96.067 93.1595 96.0476C93.1305 96.0488 93.1016 96.0432 93.0753 96.0312C93.0534 96.0153 93.0352 95.9948 93.0222 95.9713L92.9115 95.7936C92.8794 95.7424 92.8284 95.6846 92.7697 95.7009C92.7473 95.711 92.7289 95.7281 92.7174 95.7497C92.706 95.7712 92.7022 95.7959 92.7066 95.8198C92.7143 95.867 92.7166 95.9149 92.7133 95.9626C92.7068 95.9886 92.6949 96.013 92.6784 96.0342C92.6618 96.0554 92.6409 96.073 92.617 96.0857C92.5697 96.1117 92.519 96.1311 92.4664 96.1435C92.2884 96.1771 92.1211 96.2518 91.9782 96.3615C91.8918 96.4444 91.8973 96.6351 91.9029 96.7496Z" fill="#3F3D56"/>
  <path d="M91.8441 84.9912C91.9093 84.9428 91.9652 84.8834 92.0091 84.8157C92.0466 84.7393 92.0702 84.657 92.0788 84.5726L92.1264 84.2783C92.1372 84.1134 92.1948 83.9548 92.2925 83.8204C92.4032 83.6973 92.6246 83.6526 92.7353 83.7747C92.7805 83.8317 92.8085 83.9 92.8162 83.972C92.8507 84.1833 92.8366 84.3996 92.7749 84.6049C92.7132 84.8101 92.6055 84.9991 92.4597 85.1579C92.3246 85.304 92.1596 85.4195 92.0168 85.558C91.8917 85.6768 91.7843 85.812 91.6692 85.9417C91.3912 86.2527 91.0729 86.5264 90.7226 86.7559C90.7409 86.531 90.7409 86.305 90.7226 86.0801C90.6982 85.921 90.6329 85.8359 90.7879 85.7324C91.1537 85.5048 91.5063 85.2574 91.8441 84.9912Z" fill="#FBBEBE"/>
  <path d="M88.8084 82.8219C88.806 82.9012 88.786 82.9791 88.7499 83.0501C88.7138 83.1211 88.6623 83.1835 88.5991 83.2328C88.9748 83.3614 89.3439 83.5039 89.7063 83.6601C89.6414 83.587 89.6074 83.4922 89.611 83.3952C89.6104 83.1423 89.6826 82.8944 89.8192 82.6802C89.8399 82.653 89.8518 82.6203 89.8535 82.5864C89.8535 82.5167 89.7649 82.4839 89.6952 82.4687C89.459 82.4129 89.2181 82.3786 88.9755 82.3662C88.8715 82.3662 88.7541 82.3303 88.7718 82.4611C88.7994 82.5793 88.8117 82.7006 88.8084 82.8219Z" fill="#FBBEBE"/>
  <path d="M89.5347 82.907C90.0208 82.907 90.4149 82.519 90.4149 82.0404C90.4149 81.5618 90.0208 81.1738 89.5347 81.1738C89.0486 81.1738 88.6545 81.5618 88.6545 82.0404C88.6545 82.519 89.0486 82.907 89.5347 82.907Z" fill="#FBBEBE"/>
  <path d="M90.4048 84.3852C90.3744 84.3202 90.3373 84.2585 90.2941 84.2009C90.142 83.9702 89.9649 83.7564 89.766 83.5633C89.6107 83.4275 89.4428 83.3064 89.2645 83.2014C89.1683 83.1356 89.0622 83.0852 88.9501 83.052C88.8842 83.0375 88.8171 83.0284 88.7497 83.0248L88.5205 83.0073C88.5003 83.0041 88.4798 83.0041 88.4596 83.0073C88.4299 83.0189 88.4056 83.0409 88.3914 83.0691C88.3773 83.0973 88.3744 83.1297 88.3832 83.1599C88.4028 83.2204 88.4379 83.2748 88.4851 83.318C88.495 83.7769 88.288 84.2304 88.2636 84.6882C88.2149 85.4905 88.7065 86.2361 88.7519 87.0383C88.7556 87.075 88.7518 87.1121 88.7408 87.1473C88.7342 87.1637 88.7242 87.179 88.7165 87.1953C88.6973 87.2473 88.6879 87.3024 88.6888 87.3577C88.6702 87.5536 88.5811 87.7365 88.4375 87.8733C88.4743 87.9203 88.5221 87.9577 88.577 87.9823C88.6793 88.0133 88.7836 88.0377 88.8892 88.0554C89.1512 88.1466 89.4272 88.1931 89.7051 88.1927C89.7394 88.119 89.7607 88.0401 89.7682 87.9594C89.807 87.9354 89.8524 87.9867 89.8579 88.0314C89.8634 88.0761 89.8579 88.1295 89.8867 88.1622C89.9025 88.1735 89.9205 88.1813 89.9396 88.185C89.9587 88.1888 89.9785 88.1884 89.9974 88.184C90.1647 88.1545 90.3302 88.1163 90.4934 88.0695C90.6582 88.0243 90.8324 88.0243 90.9971 88.0695C91.0105 88.0473 91.017 88.0217 91.0156 87.9959C91.0142 87.9701 91.0051 87.9453 90.9894 87.9245C90.958 87.8834 90.9316 87.8388 90.9108 87.7916C90.9031 87.7632 90.8997 87.7338 90.9008 87.7044C90.9008 87.4504 90.954 87.1942 90.9008 86.9413C90.8853 86.8683 90.8621 86.7974 90.8466 86.7233C90.8227 86.5792 90.8157 86.433 90.8255 86.2873C90.8255 86.1401 90.8111 85.9854 90.8089 85.8382C90.8082 85.7773 90.8042 85.7166 90.7968 85.6562C90.7868 85.5929 90.7669 85.5319 90.7613 85.4676C90.7447 85.3063 90.8112 85.1406 90.8012 84.9836C90.7934 84.7427 90.5034 84.6086 90.4048 84.3852Z" fill="#6C63FF"/>
  <path d="M88.4199 84.264C88.2062 84.821 88.1021 85.4118 87.9992 85.9983L87.7578 87.375C87.6774 87.762 87.6326 88.1552 87.6239 88.5501C87.6307 88.6596 87.6229 88.7696 87.6006 88.8771C87.5486 89.013 87.4794 89.1419 87.3947 89.2608C87.2473 89.5217 87.1979 89.8255 87.2552 90.1187C87.2806 90.2418 87.3482 90.3814 87.4766 90.3955C87.5292 90.3937 87.5804 90.3785 87.6252 90.3513C87.67 90.3242 87.7069 90.2861 87.7324 90.2408C87.8614 90.0405 87.9526 89.8189 88.0014 89.5867C88.2018 88.8357 88.3417 88.0703 88.4199 87.2976C88.4269 87.2002 88.4405 87.1033 88.4608 87.0077C88.4875 86.9087 88.5215 86.8118 88.5627 86.7177L88.8395 86.043C89.0386 85.5166 89.2792 85.0064 89.5591 84.5169C89.2702 84.4352 88.969 84.3392 88.6801 84.2575C88.5935 84.2463 88.5057 84.2485 88.4199 84.264Z" fill="#FBBEBE"/>
  <path d="M88.9202 84.687C88.7159 84.6563 88.509 84.6446 88.3025 84.6522C88.2731 84.6542 88.2439 84.6465 88.2194 84.6304C88.1774 84.5955 88.1951 84.529 88.2194 84.4788L88.3191 84.2423C88.3356 84.1932 88.3632 84.1485 88.3999 84.1115C88.4549 84.0718 88.521 84.0497 88.5892 84.0483C88.8101 84.0132 89.0359 84.0218 89.2535 84.0733C89.3611 84.099 89.462 84.1467 89.5496 84.2134C89.6371 84.2801 89.7094 84.3642 89.7617 84.4603C89.7851 84.4995 89.7979 84.5439 89.7989 84.5893C89.7999 84.6347 89.789 84.6797 89.7672 84.7197C89.6886 84.8287 89.5126 84.9541 89.3819 84.8931C89.2158 84.8211 89.0963 84.7241 88.9202 84.687Z" fill="#6C63FF"/>
  <path d="M89.9953 80.6952C89.8216 80.6937 89.6513 80.7418 89.5048 80.8336C89.3664 80.7046 89.1956 80.6142 89.0101 80.5715C88.8245 80.5288 88.6307 80.5353 88.4486 80.5905C88.4293 80.4812 88.3799 80.3791 88.3057 80.2956C88.2315 80.212 88.1354 80.15 88.0279 80.1165C87.9205 80.083 87.8057 80.0792 87.6962 80.1055C87.5867 80.1319 87.4866 80.1873 87.4069 80.2658C87.3271 80.3443 87.2708 80.4428 87.2441 80.5506C87.2174 80.6585 87.2212 80.7715 87.2553 80.8773C87.2893 80.9831 87.3522 81.0777 87.4371 81.1507C87.522 81.2238 87.6256 81.2724 87.7367 81.2914C87.705 81.3924 87.6889 81.4975 87.6891 81.6032C87.6887 81.8597 87.7828 82.1077 87.954 82.301C88.1252 82.4944 88.3618 82.6201 88.62 82.6547C88.8782 82.6893 89.1403 82.6305 89.3578 82.4893C89.5753 82.348 89.7333 82.1339 89.8026 81.8866C89.8659 81.8998 89.9305 81.9064 89.9953 81.9062C90.4204 81.9062 90.7702 81.6348 90.7702 81.3002C90.7702 80.9655 90.4204 80.6952 89.9953 80.6952Z" fill="#3F3D56"/>
  <path opacity="0.1" d="M90.1492 81.6032C90.0844 81.6034 90.0199 81.5968 89.9565 81.5836C89.9259 81.6922 89.8776 81.7952 89.8137 81.8888C89.8736 81.9001 89.9343 81.906 89.9953 81.9062C90.3916 81.9062 90.7183 81.6697 90.7592 81.3612C90.6791 81.4397 90.5839 81.5015 90.4791 81.543C90.3743 81.5846 90.2621 81.6051 90.1492 81.6032Z" fill="black"/>
  <path opacity="0.1" d="M88.9192 82.3597C88.7507 82.3597 88.5847 82.3208 88.4343 82.2461C88.2839 82.1714 88.1535 82.063 88.0535 81.9296C87.9534 81.7962 87.8866 81.6416 87.8583 81.4781C87.83 81.3147 87.8411 81.1469 87.8906 80.9885C87.7481 80.9639 87.6189 80.8906 87.5258 80.7816C87.4327 80.6725 87.3815 80.5347 87.3814 80.3922C87.3819 80.3557 87.3852 80.3192 87.3913 80.2832C87.3162 80.3632 87.2645 80.4615 87.2414 80.568C87.2183 80.6745 87.2247 80.7851 87.2601 80.8883C87.2954 80.9915 87.3583 81.0833 87.4422 81.1543C87.5261 81.2252 87.6278 81.2726 87.7367 81.2915C87.705 81.3925 87.6889 81.4976 87.6891 81.6033C87.6889 81.8567 87.781 82.1019 87.9486 82.2942C88.1163 82.4865 88.3484 82.6133 88.6029 82.6516C88.8574 82.6898 89.1174 82.637 89.3357 82.5026C89.554 82.3683 89.7161 82.1614 89.7927 81.9194C89.693 82.0558 89.5618 82.1668 89.4099 82.2434C89.258 82.32 89.0898 82.3599 88.9192 82.3597Z" fill="black"/>
</svg>