<svg xmlns="http://www.w3.org/2000/svg" width="100" height="100" viewBox="0 0 100 100" fill="none">
  <g clip-path="url(#clip0_74_6690)">
    <path d="M100 90.2928H-31.396V100H100V90.2928Z" fill="#E6E6E6"/>
    <path d="M99.8179 90.3009H-31.4285V89.9764H99.8766L99.8179 90.3009Z" fill="#3F3D56"/>
    <path d="M71.6566 37.3652V66.1017H-3.05273V37.3652C-3.05283 27.8287 0.592395 18.653 7.13629 11.7177C13.6802 4.78235 22.6274 0.612278 32.1454 0.0616376C32.8586 0.0200422 33.5775 -0.000500472 34.302 9.25628e-06C34.7148 9.25628e-06 35.1261 0.00616864 35.5343 0.021578C45.0124 0.321594 54.0187 4.22837 60.7152 10.9445C60.917 11.1464 61.1157 11.3498 61.3144 11.5563C67.9546 18.5068 71.6591 27.7513 71.6566 37.3652Z" fill="#E6E6E6"/>
    <path d="M35.5344 0.0215848V66.1017H32.1455V0.0616376C32.8587 0.0200422 33.5776 -0.000500472 34.3021 9.25628e-06C34.7149 9.25628e-06 35.1262 0.00616949 35.5344 0.0215848Z" fill="white"/>
    <path d="M64.1873 14.9461H4.41675C5.30649 13.7603 6.26579 12.6284 7.2896 11.5563H61.3145C62.3383 12.6284 63.2976 13.7603 64.1873 14.9461Z" fill="white"/>
    <path d="M65.9711 24.6533H39.4932V69.4915H65.9711V24.6533Z" fill="white"/>
    <path d="M48.7268 32.2283H44.7217V36.2345H48.7268V32.2283Z" fill="#E6E6E6"/>
    <path d="M55.1794 32.2283H51.1743V36.2345H55.1794V32.2283Z" fill="#E6E6E6"/>
    <path d="M61.6321 32.2283H57.627V36.2345H61.6321V32.2283Z" fill="#E6E6E6"/>
    <path d="M48.8381 41.3536H44.833V45.3599H48.8381V41.3536Z" fill="#E6E6E6"/>
    <path d="M55.2908 41.3536H51.2856V45.3599H55.2908V41.3536Z" fill="#E6E6E6"/>
    <path d="M61.7434 41.3536H57.7383V45.3599H61.7434V41.3536Z" fill="#E6E6E6"/>
    <path d="M48.9492 50.479H44.9441V54.4853H48.9492V50.479Z" fill="#E6E6E6"/>
    <path d="M55.4018 50.479H51.3967V54.4853H55.4018V50.479Z" fill="#E6E6E6"/>
    <path d="M61.8547 50.479H57.8496V54.4853H61.8547V50.479Z" fill="#E6E6E6"/>
    <path d="M49.0605 59.6044H45.0554V63.6106H49.0605V59.6044Z" fill="#E6E6E6"/>
    <path d="M55.5132 59.6044H51.5081V63.6106H55.5132V59.6044Z" fill="#E6E6E6"/>
    <path d="M61.9658 59.6044H57.9607V63.6106H61.9658V59.6044Z" fill="#E6E6E6"/>
    <path d="M49.0605 59.6044H45.0554V63.6106H49.0605V59.6044Z" fill="#E6E6E6"/>
    <path d="M55.5132 59.6044H51.5081V63.6106H55.5132V59.6044Z" fill="#E6E6E6"/>
    <path d="M61.9658 59.6044H57.9607V63.6106H61.9658V59.6044Z" fill="#E6E6E6"/>
    <path d="M5.82792 56.9845C8.87657 56.9845 11.348 54.5124 11.348 51.4629C11.348 48.4134 8.87657 45.9413 5.82792 45.9413C2.77928 45.9413 0.307861 48.4134 0.307861 51.4629C0.307861 54.5124 2.77928 56.9845 5.82792 56.9845Z" fill="white"/>
    <path d="M5.84323 51.4631H5.8584L6.13143 67.1178H5.55518L5.84323 51.4631Z" fill="white"/>
    <path d="M6.84836 59.99L6.72119 59.7484L5.8087 60.229L5.93587 60.4706L6.84836 59.99Z" fill="white"/>
    <path d="M22.0568 51.7086C26.6928 51.7086 30.4511 47.9493 30.4511 43.312C30.4511 38.6747 26.6928 34.9154 22.0568 34.9154C17.4208 34.9154 13.6626 38.6747 13.6626 43.312C13.6626 47.9493 17.4208 51.7086 22.0568 51.7086Z" fill="white"/>
    <path d="M22.0799 43.3119H22.103L22.5181 67.1176H21.6418L22.0799 43.3119Z" fill="white"/>
    <path d="M23.6084 56.2788L23.415 55.9114L22.0274 56.6421L22.2208 57.0095L23.6084 56.2788Z" fill="white"/>
    <path d="M4.74348 35.2942L6.16153 34.1597C5.05991 34.0381 4.60728 34.6391 4.42204 35.1147C3.56141 34.7573 2.62451 35.2258 2.62451 35.2258L5.46176 36.2561C5.31863 35.8737 5.06946 35.54 4.74348 35.2942Z" fill="white"/>
    <path d="M19.6854 26.0492L21.1034 24.9147C20.0018 24.7931 19.5492 25.3941 19.3639 25.8698C18.5033 25.5123 17.5664 25.9808 17.5664 25.9808L20.4036 27.0111C20.2605 26.6287 20.0114 26.295 19.6854 26.0492Z" fill="white"/>
    <path d="M13.9857 34.832L15.4037 33.6975C14.3021 33.576 13.8495 34.1769 13.6642 34.6526C12.8036 34.2951 11.8667 34.7636 11.8667 34.7636L14.7039 35.7939C14.5608 35.4115 14.3116 35.0778 13.9857 34.832Z" fill="white"/>
    <path d="M75.5847 62.7119H-6.98071V69.4916H75.5847V62.7119Z" fill="#E6E6E6"/>
    <path d="M92.4328 80.3597C92.4328 80.3597 75.7316 72.6691 81.5988 67.336C87.4659 62.0029 92.4328 80.3597 92.4328 80.3597Z" fill="#E6E6E6"/>
    <path d="M92.1421 82.1544C92.1421 82.1544 84.4656 56.9248 95.7695 58.1314C107.073 59.338 92.1421 82.1544 92.1421 82.1544Z" fill="#E6E6E6"/>
    <path d="M86.5452 79.9166L86.8674 84.137L86.8725 84.2099C86.8722 84.8689 86.9055 85.5276 86.9722 86.1832C87.4095 90.488 89.2889 92.4498 91.4855 92.4498C93.682 92.4498 95.4796 90.488 95.9169 86.1832C95.9836 85.5276 96.0169 84.8689 96.0166 84.2099L96.0192 84.1511L96.0204 84.137L96.3439 79.9166H86.5452Z" fill="#E6E6E6"/>
    <path d="M96.0205 84.1371L96.0192 84.1511L96.0167 84.21C96.017 84.869 95.9837 85.5277 95.9169 86.1833H86.9723C86.9055 85.5277 86.8722 84.869 86.8725 84.21L86.8674 84.1371H96.0205Z" fill="white"/>
    <path d="M70.2579 95.6383L69.1629 95.7669C68.298 96.2885 67.2829 96.4848 66.1586 96.4449C66.0017 96.4402 65.8487 96.3945 65.7148 96.3125C65.581 96.2304 65.4709 96.1148 65.3954 95.977C65.33 95.8562 65.2933 95.7219 65.2882 95.5845C65.2831 95.4472 65.3098 95.3105 65.3662 95.1852C65.4225 95.0599 65.5071 94.9492 65.6132 94.8619C65.7193 94.7746 65.8441 94.7129 65.9779 94.6818L66.8099 94.4879L68.8175 92.5239L70.0286 90.3313L71.7879 90.5331L72.1542 93.3181C72.2006 93.8753 72.0288 94.4288 71.675 94.8617C71.3212 95.2946 70.813 95.573 70.2579 95.6383Z" fill="#FFB8B8"/>
    <path d="M53.2046 94.2293L52.1314 94.4819C51.3316 95.0987 50.3454 95.4094 49.2239 95.4979C49.0674 95.5111 48.9103 95.4832 48.7679 95.4169C48.6256 95.3506 48.503 95.2483 48.4124 95.1201C48.3336 95.0075 48.2818 94.8782 48.2611 94.7423C48.2405 94.6065 48.2514 94.4676 48.2931 94.3367C48.3349 94.2058 48.4062 94.0862 48.5017 93.9874C48.5972 93.8885 48.7141 93.813 48.8435 93.7668L49.648 93.4794L51.4188 91.2994L52.3723 88.983H54.1431L54.8242 91.7081C54.9339 92.2564 54.8262 92.8259 54.524 93.2963C54.2218 93.7667 53.7487 94.1012 53.2046 94.2293Z" fill="#FFB8B8"/>
    <path d="M52.3248 89.137L54.3273 89.4452L57.4852 73.4976L62.9536 64.1755L69.5773 91.2942L72.0419 91.7564C71.7656 76.4849 73.1145 57.2587 70.0394 54.9305L56.6379 56.4714L50.7844 72.1879L52.3248 89.137Z" fill="#2F2E41"/>
    <path d="M62.0292 31.2018C64.5814 31.2018 66.6504 29.1322 66.6504 26.5793C66.6504 24.0264 64.5814 21.9568 62.0292 21.9568C59.4769 21.9568 57.408 24.0264 57.408 26.5793C57.408 29.1322 59.4769 31.2018 62.0292 31.2018Z" fill="#FFB8B8"/>
    <path d="M68.4989 33.6673L62.9534 34.5918L61.5671 29.661L65.5721 28.4285L68.4989 33.6673Z" fill="#FFB8B8"/>
    <path d="M70.8096 55.547L56.0217 56.9338C57.2073 52.8103 58.2934 48.7013 57.4081 44.6071C56.2838 40.952 57.369 38.7784 60.3348 37.057L62.3374 32.5886L67.7288 31.9723C69.1565 34.2685 69.7405 36.9903 69.3806 39.6703C68.6124 45.4982 68.8198 50.9061 70.8096 55.547Z" fill="#6C63FF"/>
    <path d="M61.9253 21.1199C60.383 21.4724 58.6277 21.9718 58.5292 22.436C56.9427 22.8359 55.7452 23.7937 55.5007 25.2541C55.4803 25.3803 55.4878 25.5094 55.5227 25.6324C55.5576 25.7554 55.619 25.8693 55.7026 25.966C55.7862 26.0627 55.89 26.1399 56.0067 26.1921C56.1234 26.2443 56.2501 26.2703 56.3779 26.2683C57.2407 26.2572 58.5359 26.1745 59.3911 25.8172C61.8756 27.4185 62.2927 31.5833 61.2077 34.4182L62.9151 34.2617L64.6815 29.0893L65.1326 34.0584L69.0289 33.5431L68.527 27.2066C68.3728 25.7131 67.8647 24.278 67.0449 23.0203C66.9598 22.894 66.8666 22.7733 66.766 22.6589C66.1733 21.9891 65.4103 21.4923 64.558 21.2214C63.7057 20.9504 62.7959 20.9153 61.9253 21.1199Z" fill="#2F2E41"/>
    <path d="M52.1393 97.2275C52.1309 97.303 52.1385 97.3793 52.1614 97.4516C52.1843 97.524 52.2222 97.5907 52.2725 97.6475C52.3228 97.7043 52.3844 97.7499 52.4534 97.7814C52.5224 97.8129 52.5973 97.8296 52.6731 97.8303L54.406 97.8482C54.4994 97.8417 54.5867 97.8 54.6505 97.7315C54.7144 97.6631 54.7498 97.573 54.7498 97.4794C54.7498 97.4055 54.7277 97.3334 54.6863 97.2722C54.6449 97.211 54.5861 97.1637 54.5176 97.1362L54.0063 96.9317L53.2627 95.8904H52.6679C52.3758 96.2799 52.1934 96.7407 52.1396 97.2246L52.1393 97.2275Z" fill="#FFB8B8"/>
    <path d="M47.9916 97.2275C48 97.303 47.9925 97.3793 47.9696 97.4516C47.9466 97.524 47.9088 97.5907 47.8585 97.6475C47.8082 97.7043 47.7465 97.7499 47.6775 97.7814C47.6085 97.8129 47.5337 97.8296 47.4578 97.8303L45.7249 97.8482C45.6316 97.8417 45.5442 97.8 45.4804 97.7315C45.4166 97.6631 45.3811 97.573 45.3811 97.4794C45.3811 97.4055 45.4032 97.3334 45.4446 97.2722C45.486 97.211 45.5448 97.1637 45.6134 97.1362L46.1247 96.9317L46.8682 95.8904H47.4631C47.7551 96.2799 47.9376 96.7407 47.9913 97.2246L47.9916 97.2275Z" fill="#FFB8B8"/>
    <path d="M46.7195 95.8904H47.6118L50.7347 82.3539L52.3705 96.0392H53.4115L54.8243 78.4119L47.6118 78.3375L46.7195 95.8904Z" fill="#3F3D56"/>
    <path d="M42.7043 71.0486H43.894V68.2223L44.1647 67.6808C44.219 67.5722 44.2469 67.4522 44.246 67.3308C44.2452 67.2093 44.2157 67.0897 44.1599 66.9818C44.1041 66.8739 44.0237 66.7807 43.925 66.7098C43.8264 66.639 43.7125 66.5924 43.5924 66.5739C43.4826 66.557 43.3704 66.5641 43.2635 66.5946C43.1566 66.6251 43.0576 66.6784 42.9733 66.7508C42.8889 66.8232 42.8212 66.913 42.7748 67.014C42.7284 67.115 42.7043 67.2248 42.7043 67.336V71.0486Z" fill="#FFB8B8"/>
    <path d="M49.768 64.0572C51.2874 64.0572 52.5192 62.8251 52.5192 61.3053C52.5192 59.7854 51.2874 58.5533 49.768 58.5533C48.2486 58.5533 47.0168 59.7854 47.0168 61.3053C47.0168 62.8251 48.2486 64.0572 49.768 64.0572Z" fill="#FFB8B8"/>
    <path d="M48.6528 65.9911H51.4783V62.7185H48.6528V65.9911Z" fill="#FFB8B8"/>
    <path d="M47.3144 78.7839C49.8153 80.3277 52.4595 80.1768 55.1961 78.9326L54.6012 65.0986L51.4783 64.9498L48.2066 65.3961L46.5708 66.7349L47.3144 78.7839Z" fill="#6C63FF"/>
    <path d="M44.34 73.8749L47.6117 71.3461L46.5707 66.7347L44.6374 70.3048L44.0426 69.7098L42.2581 71.0486L44.34 73.8749Z" fill="#6C63FF"/>
    <path d="M58.8627 65.336L57.8221 65.9129L56.4524 63.4409L55.9533 63.0985C55.8532 63.0298 55.7707 62.9384 55.7125 62.8318C55.6544 62.7251 55.6222 62.6063 55.6187 62.4848C55.6152 62.3634 55.6405 62.2429 55.6924 62.1331C55.7443 62.0232 55.8214 61.9272 55.9174 61.8529C56.0053 61.7848 56.1069 61.7366 56.2151 61.7115C56.3234 61.6863 56.4358 61.6849 56.5447 61.7074C56.6535 61.7298 56.7562 61.7755 56.8458 61.8413C56.9354 61.9071 57.0096 61.9916 57.0635 62.0888L57.493 62.864L58.8627 65.336Z" fill="#FFB8B8"/>
    <path d="M53.0398 69.4868L56.9882 67.3901L59.0626 66.2886L59.36 64.5036L58.0216 63.1648L56.3858 64.2061L56.5345 65.3961L54.6013 65.0986L53.0398 69.4868Z" fill="#6C63FF"/>
    <path d="M50.363 63.5366C52.1698 63.5366 53.6346 62.0714 53.6346 60.264C53.6346 58.4566 52.1698 56.9915 50.363 56.9915C48.5561 56.9915 47.0913 58.4566 47.0913 60.264C47.0913 62.0714 48.5561 63.5366 50.363 63.5366Z" fill="#2F2E41"/>
    <path d="M52.1475 58.0326C52.9688 58.0326 53.6346 57.3666 53.6346 56.545C53.6346 55.7235 52.9688 55.0575 52.1475 55.0575C51.3262 55.0575 50.6604 55.7235 50.6604 56.545C50.6604 57.3666 51.3262 58.0326 52.1475 58.0326Z" fill="#2F2E41"/>
    <path d="M52.0753 57.7888C52.3701 57.9427 52.708 57.9934 53.035 57.9326C53.362 57.8718 53.6591 57.7031 53.8789 57.4535C54.0988 57.2039 54.2286 56.8877 54.2476 56.5556C54.2666 56.2235 54.1738 55.8946 53.9839 55.6215C54.1559 55.7509 54.2977 55.916 54.3996 56.1056C54.5014 56.2952 54.5609 56.5047 54.574 56.7195C54.587 56.9343 54.5532 57.1494 54.475 57.35C54.3968 57.5505 54.2759 57.7316 54.1209 57.8808C53.9658 58.03 53.7802 58.1438 53.5769 58.2143C53.3736 58.2847 53.1574 58.3102 52.9433 58.2889C52.7292 58.2675 52.5222 58.2 52.3368 58.0909C52.1513 57.9817 51.9918 57.8336 51.8691 57.6567C51.9341 57.7063 52.0031 57.7505 52.0753 57.7888Z" fill="#2F2E41"/>
    <path d="M61.2592 60.1695L61.3613 63.7467C61.3754 64.2398 61.2022 64.7199 60.8765 65.0904C60.5509 65.4608 60.097 65.6941 59.6063 65.7431C59.292 65.7746 58.9748 65.7292 58.6819 65.6108C58.389 65.4925 58.1293 65.3047 57.925 65.0637C57.7208 64.8228 57.5781 64.5357 57.5093 64.2274C57.4404 63.919 57.4475 63.5985 57.5299 63.2935L58.3324 60.3236L60.643 47.6887L60.489 40.2928L65.4182 40.1387L64.494 48.4592L61.2592 60.1695Z" fill="#FFB8B8"/>
    <path d="M65.7261 40.9091C63.9402 40.2286 61.9666 40.2286 60.1807 40.9091L60.4888 34.7457C60.4888 34.0919 60.7484 33.4648 61.2106 33.0025C61.6728 32.5401 62.2997 32.2804 62.9534 32.2804C63.607 32.2804 64.2339 32.5401 64.6961 33.0025C65.1584 33.4648 65.418 34.0919 65.418 34.7457L65.7261 40.9091Z" fill="#6C63FF"/>
  </g>
  <defs>
    <clipPath id="clip0_74_6690">
      <rect width="131.429" height="100" fill="white" transform="translate(-31.4285)"/>
    </clipPath>
  </defs>
</svg>