<svg xmlns="http://www.w3.org/2000/svg" width="100" height="100" viewBox="0 0 100 100" fill="none">
  <g clip-path="url(#clip0_74_6596)">
    <path d="M21.646 40.4994C16.9318 36.1787 14.9408 31.6711 16.0395 27.8072C17.4495 22.8486 23.7133 19.4201 33.2248 18.4009L33.2599 18.6853C23.8808 19.6903 17.7126 23.0418 16.3367 27.8804C15.2675 31.6408 17.2296 36.0499 21.8617 40.2955L21.646 40.4994Z" fill="#F0F0F0"/>
    <path d="M67.1295 55.8365C61.246 55.8365 54.8525 55.0225 48.5019 53.4572C40.6486 51.5215 33.448 48.5998 27.6785 45.0078L27.8493 44.7699C33.591 48.3445 40.7598 51.2529 48.5806 53.1804C55.6481 54.9225 62.7687 55.7297 69.1698 55.5167L69.181 55.8027C68.5049 55.8253 67.8211 55.8366 67.1295 55.8365Z" fill="#F0F0F0"/>
    <path d="M80.627 54.0364L80.5285 53.7652C85.7905 52.1088 89.0817 49.4405 90.0462 46.0485C91.2723 41.7365 88.6086 36.7327 82.5459 31.9588C76.4522 27.1606 67.6649 23.1794 57.8025 20.7485L57.8812 20.4718C67.7867 22.9133 76.6167 26.9152 82.7443 31.7403C88.9029 36.5895 91.6017 41.6969 90.3435 46.1218C89.3513 49.611 85.9914 52.3478 80.627 54.0364Z" fill="#F0F0F0"/>
    <path d="M32.3093 55.9561C20.7485 51.1823 11.8401 44.9889 7.2251 38.5168L7.48121 38.3584C12.0643 44.7858 20.926 50.9424 32.4339 55.6944L32.3093 55.9561Z" fill="#F0F0F0"/>
    <path d="M72.9563 64.2263C71.7639 64.2263 70.551 64.2015 69.3179 64.1519L69.3311 63.866C78.5339 64.2369 86.6536 63.2115 92.8141 60.9001L92.9291 61.1657C87.5551 63.1818 80.7056 64.2263 72.9563 64.2263Z" fill="#F0F0F0"/>
    <path d="M66.2484 18.6575C64.3376 18.0783 62.3722 17.539 60.4067 17.0545C49.0964 14.2668 37.9783 13.277 28.2538 14.1927L28.2229 13.9078C37.9836 12.9891 49.1398 13.9813 60.4854 16.7778C62.4564 17.2636 64.4274 17.8045 66.3435 18.3854L66.2484 18.6575Z" fill="#F0F0F0"/>
    <path d="M14.4209 40.9287C9.70674 36.608 7.71571 32.1005 8.8144 28.2365C10.2244 23.2779 16.4882 19.8494 25.9997 18.8302L26.0348 19.1146C16.6557 20.1196 10.4875 23.4711 9.11165 28.3097C8.04239 32.0701 10.0045 36.4792 14.6366 40.7248L14.4209 40.9287Z" fill="#F0F0F0"/>
    <path d="M59.9042 56.2658C54.0206 56.2658 47.6271 55.4518 41.2766 53.8865C33.4233 51.9508 26.2226 49.0291 20.4531 45.4371L20.624 45.1992C26.3657 48.7738 33.5344 51.6822 41.3552 53.6098C48.4228 55.3519 55.5434 56.159 61.9445 55.946L61.9556 56.232C61.2796 56.2547 60.5958 56.2659 59.9042 56.2658Z" fill="#F0F0F0"/>
    <path d="M73.4019 54.4657L73.3034 54.1946C78.5654 52.5381 81.8566 49.8698 82.8211 46.4778C84.0472 42.1658 81.3835 37.162 75.3208 32.3881C69.2271 27.59 60.4398 23.6087 50.5774 21.1779L50.6561 20.9011C60.5616 23.3427 69.3916 27.3445 75.5192 32.1696C81.6778 37.0188 84.3766 42.1263 83.1184 46.5511C82.1262 50.0403 78.7663 52.7771 73.4019 54.4657Z" fill="#F0F0F0"/>
    <path d="M25.0842 56.3855C13.5234 51.6117 4.61497 45.4184 0 38.9462L0.256112 38.7878C4.83919 45.2152 13.7009 51.3719 25.2088 56.1238L25.0842 56.3855Z" fill="#F0F0F0"/>
    <path d="M65.731 64.6556C64.5385 64.6556 63.3257 64.6308 62.0925 64.5812L62.1057 64.2953C71.3085 64.6662 79.4283 63.6409 85.5888 61.3295L85.7038 61.595C80.3298 63.6111 73.4802 64.6556 65.731 64.6556Z" fill="#F0F0F0"/>
    <path d="M59.0233 19.0869C57.1125 18.5077 55.1471 17.9684 53.1816 17.484C41.8713 14.6962 30.7532 13.7064 21.0287 14.6221L20.9978 14.3373C30.7585 13.4186 41.9147 14.4107 53.2603 17.2072C55.2313 17.6931 57.2023 18.2339 59.1185 18.8148L59.0233 19.0869Z" fill="#F0F0F0"/>
    <path d="M60.9351 44.8531L63.5484 44.5669L64.4708 52.0094L66.8257 62.287C67.1533 62.4356 67.4205 62.6787 67.5877 62.9801C67.7548 63.2814 67.8129 63.625 67.7534 63.9597C67.6939 64.2943 67.5199 64.6021 67.2572 64.8372C66.9946 65.0723 66.6575 65.2222 66.296 65.2645C65.9346 65.3068 65.5681 65.2393 65.2511 65.072C64.9342 64.9047 64.6838 64.6466 64.5371 64.3361C64.3905 64.0256 64.3555 63.6793 64.4373 63.3487C64.5192 63.0182 64.7135 62.7211 64.9913 62.5017L62.6261 56.4464L60.9351 44.8531Z" fill="#FFB6B6"/>
    <path d="M57.1387 97.9121H59.2918L60.3163 90.1797H57.1384L57.1387 97.9121Z" fill="#FFB6B6"/>
    <path d="M56.5896 99.8548H63.5322V99.7731C63.5322 99.1059 63.2475 98.466 62.7408 97.9942C62.2341 97.5224 61.5468 97.2573 60.8302 97.2572H56.5896V99.8548Z" fill="#2F2E41"/>
    <path d="M40.6145 96.8187L42.7286 97.1987L45.3093 89.7876L42.1887 89.2267L40.6145 96.8187Z" fill="#FFB6B6"/>
    <path d="M39.6802 98.6296L46.4969 99.8552L46.5135 99.7749C46.6494 99.1198 46.5001 98.4412 46.0987 97.8885C45.6972 97.3357 45.0764 96.9541 44.3727 96.8275L40.2093 96.079L39.6802 98.6296Z" fill="#2F2E41"/>
    <path d="M60.5149 32.657L59.2639 34.8917L49.894 32.9677L50.9205 28.6348C51.7329 25.2053 54.99 22.7285 58.6736 23.4849C62.3572 24.2413 64.0759 27.5933 63.2634 31.0229L61.7535 35.4026L60.2258 35.0888L60.5149 32.657Z" fill="#2F2E41"/>
    <path d="M63.856 57.3053C63.856 57.3053 64.7783 61.599 63.5485 67.8966C62.3187 74.1941 62.0113 76.9135 62.0113 76.9135C62.0113 76.9135 62.9336 77.9154 62.3187 78.4879C61.7038 79.0604 62.3187 80.2054 62.3187 80.2054L60.9352 94.0886L56.1696 93.373L56.7845 80.3485C56.7845 80.3485 56.1696 79.2035 56.4771 78.9173C56.7845 78.631 56.1696 76.9135 56.1696 76.9135L55.401 63.3165L50.6354 78.2017C50.6354 78.2017 51.0966 78.7742 50.6354 79.2035C50.1742 79.6329 49.2519 81.7798 49.2519 81.7798L46.1773 91.7986L41.2581 90.9399L44.0251 79.4898C44.0251 79.4898 43.7177 78.7742 44.1789 78.3448C44.3134 78.2134 44.4116 78.0536 44.4652 77.8791C44.5188 77.7046 44.526 77.5206 44.4863 77.3429C44.4863 77.3429 44.0251 76.9135 44.6401 76.341C45.255 75.7685 45.5624 73.4785 45.5624 73.4785C45.5624 73.4785 46.0236 58.164 47.5609 57.3053C49.0982 56.4465 63.856 57.3053 63.856 57.3053Z" fill="#2F2E41"/>
    <path d="M56.905 33.6233C59.2822 33.6233 61.2093 31.8291 61.2093 29.6158C61.2093 27.4025 59.2822 25.6083 56.905 25.6083C54.5277 25.6083 52.6006 27.4025 52.6006 29.6158C52.6006 31.8291 54.5277 33.6233 56.905 33.6233Z" fill="#FFB6B6"/>
    <path d="M50.8387 34.7458C50.8387 34.7458 47.7144 34.405 46.792 35.2638L47.7144 52.582C47.7144 52.582 47.0994 53.0114 47.4069 54.0133C47.5854 54.6709 47.5854 55.3595 47.4069 56.017C47.4069 56.017 46.4845 57.0189 46.9457 57.4483C47.4069 57.8777 64.0095 57.5914 64.0095 57.5914C64.0095 57.5914 64.6244 56.5895 63.702 56.017C62.7796 55.4445 63.2408 53.8702 63.2408 53.8702C63.2408 53.8702 63.5483 53.4408 62.7796 52.7251C62.011 52.0095 61.3961 46.1413 61.3961 46.1413L63.3946 38.985C63.3946 38.985 61.3829 36.8709 59.0836 36.7115L50.8387 34.7458Z" fill="#E6E6E6"/>
    <path d="M61.0127 39.0833L63.3944 38.9849C63.3944 38.9849 64.7779 41.5611 64.9316 43.8511L65.7782 52.3941L60.3198 53.1543L61.0127 39.0833Z" fill="#E6E6E6"/>
    <path d="M60.5928 29.8147L62.1915 27.8994C62.2858 27.4961 62.2048 27.0745 61.9662 26.7267C61.7277 26.3789 61.3509 26.1332 60.9183 26.0432L54.8781 24.8027C54.445 24.7149 53.9921 24.7903 53.6185 25.0124C53.2449 25.2346 52.9809 25.5853 52.8842 25.9881L52.8809 26.0024L53.3135 28.3152L53.3894 28.3026C57.138 27.6802 58.2058 27.8992 60.5314 29.7662L60.5928 29.8147Z" fill="#2F2E41"/>
    <path d="M44.5053 60.4169L44.7936 49.1471L45.101 41.1321L48.7905 41.5615L46.8091 60.7182C47.0175 60.9617 47.1436 61.2573 47.1715 61.5676C47.1994 61.8779 47.1279 62.189 46.9659 62.4614C46.804 62.7339 46.5589 62.9555 46.2617 63.0982C45.9645 63.241 45.6284 63.2985 45.2961 63.2635C44.9638 63.2284 44.6501 63.1024 44.3947 62.9014C44.1393 62.7003 43.9536 62.4333 43.8612 62.134C43.7688 61.8348 43.7738 61.5167 43.8756 61.2201C43.9773 60.9235 44.1713 60.6616 44.4329 60.4676C44.4565 60.45 44.4807 60.4332 44.5053 60.4169Z" fill="#FFB6B6"/>
    <path d="M49.4834 35.5051L46.7921 35.2635C46.7921 35.2635 46.3309 35.2635 45.8697 36.6948C45.4086 38.1261 42.8733 53.2528 42.8733 53.2528L48.4833 53.7268L49.4834 35.5051Z" fill="#E6E6E6"/>
    <path d="M24.007 15.8202C27.8698 15.8202 31.0013 12.9047 31.0013 9.30821C31.0013 5.71176 27.8698 2.79626 24.007 2.79626C20.1441 2.79626 17.0127 5.71176 17.0127 9.30821C17.0127 12.9047 20.1441 15.8202 24.007 15.8202Z" fill="#6C63FF"/>
    <path d="M25.6476 13.3102C24.2338 13.3102 22.8518 12.9199 21.6763 12.1886C20.5008 11.4573 19.5846 10.4179 19.0436 9.20188C18.5026 7.98582 18.3611 6.6477 18.6369 5.35674C18.9127 4.06578 19.5935 2.87996 20.5931 1.94923C21.5928 1.0185 22.8665 0.384666 24.253 0.127878C25.6396 -0.128909 27.0768 0.00288408 28.383 0.506592C29.6891 1.0103 30.8055 1.8633 31.5909 2.95772C32.3763 4.05215 32.7956 5.33884 32.7956 6.65509C32.7934 8.41952 32.0396 10.1111 30.6996 11.3587C29.3595 12.6064 27.5427 13.3082 25.6476 13.3102ZM25.6476 0.286255C24.2946 0.286253 22.9721 0.659778 21.8471 1.35959C20.7222 2.05941 19.8454 3.05408 19.3277 4.21783C18.8099 5.38158 18.6745 6.66215 18.9384 7.89758C19.2024 9.13301 19.8539 10.2678 20.8105 11.1585C21.7672 12.0492 22.9861 12.6558 24.313 12.9015C25.64 13.1473 27.0154 13.0212 28.2653 12.5391C29.5153 12.0571 30.5836 11.2408 31.3353 10.1934C32.0869 9.14607 32.4881 7.91472 32.4881 6.65508C32.4861 4.96655 31.7647 3.34773 30.4823 2.15376C29.1999 0.959787 27.4612 0.288171 25.6476 0.286255Z" fill="#3F3D56"/>
    <path d="M88.367 37.0215C91.0197 37.0215 93.1701 35.0194 93.1701 32.5497C93.1701 30.08 91.0197 28.0779 88.367 28.0779C85.7144 28.0779 83.564 30.08 83.564 32.5497C83.564 35.0194 85.7144 37.0215 88.367 37.0215Z" fill="#6C63FF"/>
    <path d="M89.4939 35.3429C88.5136 35.3429 87.5552 35.0722 86.7401 34.5651C85.9249 34.058 85.2896 33.3372 84.9144 32.494C84.5393 31.6507 84.4411 30.7228 84.6324 29.8276C84.8236 28.9323 85.2957 28.11 85.9889 27.4646C86.6821 26.8192 87.5654 26.3797 88.5269 26.2016C89.4884 26.0235 90.4851 26.1149 91.3908 26.4642C92.2965 26.8135 93.0707 27.405 93.6154 28.1639C94.16 28.9229 94.4507 29.8151 94.4507 30.7279C94.4492 31.9514 93.9265 33.1245 92.9973 33.9896C92.068 34.8548 90.8081 35.3415 89.4939 35.3429ZM89.4939 26.3992C88.5744 26.3992 87.6755 26.653 86.9109 27.1287C86.1463 27.6043 85.5504 28.2804 85.1985 29.0714C84.8466 29.8623 84.7545 30.7327 84.9339 31.5724C85.1133 32.4121 85.5561 33.1834 86.2063 33.7888C86.8566 34.3941 87.685 34.8064 88.5869 34.9734C89.4888 35.1405 90.4236 35.0547 91.2731 34.7271C92.1227 34.3995 92.8488 33.8447 93.3597 33.1328C93.8706 32.4209 94.1433 31.584 94.1433 30.7279C94.1419 29.5802 93.6516 28.48 92.78 27.6684C91.9084 26.8569 90.7266 26.4005 89.4939 26.3992Z" fill="#3F3D56"/>
    <path d="M99.8462 100H7.60978C7.56901 100 7.52991 99.9849 7.50108 99.9581C7.47225 99.9312 7.45605 99.8948 7.45605 99.8569C7.45605 99.8189 7.47225 99.7825 7.50108 99.7557C7.52991 99.7288 7.56901 99.7137 7.60978 99.7137H99.8462C99.887 99.7137 99.9261 99.7288 99.9549 99.7557C99.9837 99.7825 99.9999 99.8189 99.9999 99.8569C99.9999 99.8948 99.9837 99.9312 99.9549 99.9581C99.9261 99.9849 99.887 100 99.8462 100Z" fill="#CACACA"/>
    <path d="M93.4199 94.1786C92.9348 94.3374 92.414 94.3772 91.9076 94.2941C91.4013 94.2111 90.9264 94.008 90.5289 93.7045C89.5162 92.9133 89.1988 91.6095 88.9405 90.4026L88.1765 86.8323L89.7761 87.8578C90.9264 88.5952 92.1026 89.3563 92.8992 90.4244C93.6958 91.4926 94.0434 92.9508 93.4034 94.1066" fill="#FD6584"/>
    <path d="M93.173 98.7495C93.3744 97.3838 93.5815 96.0007 93.4402 94.6203C93.3148 93.3945 92.9131 92.1972 92.0952 91.2155C91.6612 90.6954 91.133 90.2498 90.5344 89.8988C90.3784 89.807 90.2347 90.0373 90.3901 90.1286C91.4258 90.7381 92.2268 91.638 92.6777 92.6986C93.1758 93.8781 93.2557 95.1638 93.1696 96.4167C93.1177 97.1744 93.0078 97.9271 92.8969 98.679C92.8882 98.713 92.8937 98.7488 92.9122 98.7792C92.9308 98.8096 92.961 98.8323 92.9969 98.8427C93.0334 98.8519 93.0724 98.8472 93.1053 98.8298C93.1382 98.8124 93.1625 98.7836 93.1727 98.7497L93.173 98.7495Z" fill="#F2F2F2"/>
    <path d="M91.7237 96.5584C91.5157 96.8528 91.2297 97.0923 90.8934 97.2539C90.5571 97.4155 90.1817 97.4938 89.8035 97.4811C88.8315 97.4382 88.021 96.8066 87.2916 96.2073L85.134 94.4331L86.562 94.3696C87.5889 94.3238 88.6424 94.2811 89.6212 94.5759C90.6 94.8708 91.5014 95.5804 91.6802 96.5225" fill="#E6E6E6"/>
    <path d="M93.7421 99.5346C92.7736 97.9379 91.6487 96.1633 89.6399 95.5961C89.0814 95.4389 88.4957 95.3826 87.9145 95.4302C87.7312 95.4445 87.777 95.7079 87.9606 95.6931C88.9349 95.6178 89.9073 95.8574 90.7142 96.3714C91.4906 96.8635 92.0951 97.5475 92.6067 98.273C92.9202 98.7167 93.2009 99.1805 93.4816 99.6431C93.5706 99.7908 93.8328 99.6842 93.7421 99.5346Z" fill="#F2F2F2"/>
    <path d="M17.3711 96.0375C17.7203 96.1732 18.1013 96.2229 18.4772 96.1818C18.853 96.1407 19.2112 96.0101 19.5172 95.8027C20.2972 95.2611 20.5897 94.3156 20.8346 93.4389L21.5581 90.8453L20.3361 91.5361C19.4573 92.0328 18.5582 92.5459 17.9239 93.2999C17.2895 94.0539 16.9686 95.1106 17.3867 95.9855" fill="#E6E6E6"/>
    <path d="M17.4855 99.5557C17.3294 97.7277 17.1962 95.6708 18.5209 94.1548C18.8895 93.7336 19.3413 93.382 19.8518 93.1188C20.0123 93.0353 20.1325 93.2775 19.9715 93.3608C19.1185 93.8056 18.4562 94.5105 18.0961 95.3567C17.7479 96.1689 17.6576 97.0507 17.6692 97.9185C17.6758 98.4495 17.7217 98.9802 17.7668 99.5099C17.7816 99.6788 17.5 99.7268 17.4855 99.5557Z" fill="#F2F2F2"/>
    <path d="M14.5833 54.2981C18.3965 54.2981 21.4877 51.4201 21.4877 47.8699C21.4877 44.3197 18.3965 41.4417 14.5833 41.4417C10.7701 41.4417 7.67896 44.3197 7.67896 47.8699C7.67896 51.4201 10.7701 54.2981 14.5833 54.2981Z" fill="#E4E4E4"/>
    <path d="M16.2028 51.8225C14.8069 51.8225 13.4422 51.437 12.2816 50.715C11.1209 49.9929 10.2162 48.9666 9.68203 47.7658C9.14783 46.5651 9.00806 45.2438 9.2804 43.9691C9.55275 42.6944 10.225 41.5235 11.2121 40.6045C12.1992 39.6855 13.4568 39.0596 14.8259 38.8061C16.195 38.5525 17.6142 38.6827 18.9039 39.18C20.1936 39.6774 21.2959 40.5197 22.0714 41.6003C22.847 42.681 23.2609 43.9515 23.2609 45.2512C23.2588 46.9934 22.5145 48.6637 21.1913 49.8956C19.8681 51.1276 18.0741 51.8205 16.2028 51.8225ZM16.2028 38.9661C14.8677 38.9661 13.5625 39.3347 12.4524 40.0253C11.3423 40.7159 10.477 41.6975 9.96608 42.846C9.45515 43.9944 9.32147 45.2581 9.58194 46.4773C9.84242 47.6965 10.4854 48.8164 11.4294 49.6954C12.3735 50.5743 13.5764 51.1729 14.8859 51.4154C16.1953 51.658 17.5527 51.5335 18.7862 51.0578C20.0197 50.5821 21.074 49.7765 21.8158 48.743C22.5575 47.7094 22.9534 46.4942 22.9535 45.2512C22.9514 43.5848 22.2396 41.9873 20.974 40.809C19.7084 39.6307 17.9926 38.9679 16.2028 38.9661Z" fill="#2F2E41"/>
    <path d="M10.4151 25.5255C11.0943 25.5255 11.6449 25.0129 11.6449 24.3805C11.6449 23.7481 11.0943 23.2355 10.4151 23.2355C9.73591 23.2355 9.1853 23.7481 9.1853 24.3805C9.1853 25.0129 9.73591 25.5255 10.4151 25.5255Z" fill="#F2F2F2"/>
    <path d="M73.5973 19.8004C74.2765 19.8004 74.8271 19.2878 74.8271 18.6554C74.8271 18.023 74.2765 17.5104 73.5973 17.5104C72.918 17.5104 72.3674 18.023 72.3674 18.6554C72.3674 19.2878 72.918 19.8004 73.5973 19.8004Z" fill="#FD6584"/>
    <path d="M81.7447 60.4482C82.4239 60.4482 82.9745 59.9356 82.9745 59.3032C82.9745 58.6708 82.4239 58.1582 81.7447 58.1582C81.0655 58.1582 80.5149 58.6708 80.5149 59.3032C80.5149 59.9356 81.0655 60.4482 81.7447 60.4482Z" fill="#F2F2F2"/>
    <path d="M26.6685 28.8604L26.7152 28.5774L32.7217 29.4353C32.1096 28.8852 30.0825 27.1838 28.2441 27.0112C26.0478 26.8052 25.0815 27.6805 24.9538 28.8602C24.8261 30.04 25.5853 31.0772 27.7816 31.2834C29.6433 31.4581 32.031 30.1322 32.7155 29.7241L26.6685 28.8604Z" fill="#F2F2F2"/>
    <path d="M84.1453 13.7012L83.96 13.4727L88.8093 10.063C87.9589 10.0878 85.2355 10.2538 83.8206 11.3603C82.1304 12.6821 82.1303 13.9373 82.9494 14.8453C83.7684 15.7532 85.0964 15.97 86.7867 14.6482C88.2196 13.5278 88.8641 11.0099 89.0273 10.2685L84.1453 13.7012Z" fill="#F2F2F2"/>
    <path d="M72.6955 46.5252L72.5622 46.3608L76.051 43.9077C75.4392 43.9255 73.4799 44.045 72.4619 44.841C71.2459 45.792 71.2458 46.6951 71.8351 47.3483C72.4244 48.0015 73.3798 48.1575 74.5959 47.2065C75.6267 46.4004 76.0904 44.5889 76.2078 44.0555L72.6955 46.5252Z" fill="#F2F2F2"/>
    <path d="M45.0775 7.47869C46.0228 5.11254 48.256 3.06802 50.9549 2.82483C49.3323 5.11713 48.6329 7.8699 48.9804 10.5961C49.1185 11.647 49.3897 12.8025 48.7812 13.697C48.4026 14.2535 47.7354 14.5962 47.0476 14.7508C46.3597 14.9054 45.643 14.8934 44.9356 14.8806L44.7772 14.9534C44.2796 12.4717 44.1323 9.84484 45.0775 7.47869Z" fill="#F0F0F0"/>
    <path d="M50.9679 2.87633C49.1281 4.07304 47.74 5.77905 47.0009 7.75206C46.8337 8.17418 46.739 8.61819 46.7203 9.06776C46.7172 9.50625 46.8404 9.9375 47.0769 10.3167C47.2898 10.6744 47.5521 11.0173 47.6679 11.4169C47.7239 11.6223 47.7326 11.8364 47.6936 12.0452C47.6545 12.2539 47.5684 12.4526 47.4411 12.6283C47.136 13.0736 46.6772 13.3902 46.217 13.6854C45.7061 14.0131 45.1698 14.346 44.8572 14.8608C44.8193 14.9232 44.7175 14.8648 44.7554 14.8025C45.2993 13.9068 46.4408 13.5815 47.1392 12.8206C47.465 12.4656 47.6779 12.017 47.5772 11.5442C47.4891 11.1309 47.219 10.777 47 10.4166C46.7635 10.0498 46.627 9.63471 46.6025 9.20751C46.5965 8.7585 46.6727 8.31183 46.8277 7.88662C47.1603 6.92414 47.6534 6.01635 48.2889 5.19649C49.0087 4.25704 49.8957 3.43914 50.9116 2.77818C50.9745 2.73729 51.0304 2.83571 50.9679 2.87633Z" fill="white"/>
    <path d="M47.1987 7.10369C46.86 6.9433 46.5936 6.67602 46.447 6.34961C46.3004 6.02319 46.2832 5.65889 46.3985 5.32176C46.4221 5.25362 46.5369 5.28453 46.5133 5.35276C46.4053 5.66651 46.4214 6.00586 46.5586 6.30955C46.6957 6.61325 46.945 6.86129 47.2613 7.00891C47.33 7.04107 47.2671 7.13566 47.1987 7.10369Z" fill="white"/>
    <path d="M46.9434 10.1485C47.6842 9.93068 48.3095 9.46092 48.6948 8.83289C48.7329 8.77064 48.8347 8.82899 48.7966 8.89117C48.3944 9.54401 47.7425 10.0316 46.9712 10.2567C46.8976 10.2781 46.8703 10.1698 46.9434 10.1485Z" fill="white"/>
    <path d="M49.0906 4.38338C49.2078 4.47087 49.3464 4.52989 49.4941 4.55515C49.6419 4.58041 49.794 4.57111 49.9369 4.5281C50.0101 4.50583 50.0374 4.61421 49.9646 4.63633C49.8065 4.68317 49.6385 4.69325 49.4752 4.66567C49.3119 4.6381 49.1584 4.57372 49.028 4.47816C49.0149 4.47011 49.0056 4.45773 49.0019 4.44351C48.9983 4.4293 49.0006 4.41432 49.0084 4.40163C49.0167 4.38912 49.0301 4.38019 49.0455 4.37677C49.0608 4.37335 49.0771 4.37573 49.0906 4.38338Z" fill="white"/>
    <path d="M57.4601 8.85618C57.4148 8.8713 57.3695 8.88641 57.324 8.90243C56.7162 9.10854 56.1274 9.36029 55.5635 9.65518C55.5195 9.67734 55.4753 9.70041 55.432 9.72369C54.0815 10.4476 52.887 11.3987 51.9093 12.5287C51.5207 12.9786 51.1695 13.4554 50.8586 13.955C50.4293 14.645 50.0227 15.4248 49.3923 15.9277C49.3271 15.9808 49.2585 16.0301 49.1868 16.0754L44.8849 15.1276C44.8762 15.1209 44.8674 15.1151 44.8587 15.1084L44.6851 15.0778C44.6992 15.051 44.7144 15.0235 44.7285 14.9967C44.7366 14.9811 44.7457 14.9657 44.7538 14.9502C44.7595 14.9398 44.7653 14.9295 44.7698 14.9199C44.7717 14.9165 44.7736 14.913 44.7753 14.9105C44.7798 14.9009 44.7851 14.8924 44.7894 14.8837C44.8741 14.7296 44.9602 14.5759 45.0476 14.4224C45.0478 14.4215 45.0478 14.4215 45.049 14.4207C45.7027 13.2453 46.504 12.1462 47.4358 11.1465C47.4641 11.117 47.4925 11.0866 47.5227 11.0576C47.9483 10.6179 48.4118 10.2114 48.9085 9.84205C49.1812 9.64063 49.4647 9.45219 49.7579 9.27745C50.5163 8.82731 51.346 8.49104 52.2167 8.28097C53.9524 7.86243 55.8126 7.96538 57.3438 8.79196C57.3829 8.81313 57.4212 8.8341 57.4601 8.85618Z" fill="#F0F0F0"/>
    <path d="M57.4375 8.90478C55.1946 8.82895 52.9831 9.41303 51.1171 10.574C50.7106 10.8173 50.3479 11.1188 50.0422 11.4672C49.7562 11.8157 49.5757 12.229 49.5193 12.6643C49.458 13.0693 49.4457 13.4901 49.2797 13.8741C49.1916 14.0695 49.0601 14.2453 48.8939 14.3901C48.7277 14.5349 48.5305 14.6453 48.3153 14.7142C47.7837 14.8987 47.2127 14.8944 46.6543 14.8721C46.0345 14.8473 45.391 14.8125 44.8085 15.0483C44.7379 15.0769 44.6944 14.9732 44.7649 14.9447C45.7784 14.5344 46.9002 14.9145 47.9498 14.6985C48.4396 14.5977 48.8997 14.3589 49.125 13.9249C49.3219 13.5455 49.3351 13.1115 49.3933 12.701C49.4416 12.2756 49.6011 11.8676 49.8578 11.5128C50.1434 11.151 50.4931 10.837 50.8918 10.5844C51.7798 10.0024 52.7605 9.55395 53.7981 9.25557C54.9803 8.90891 56.2174 8.75308 57.456 8.79483C57.5327 8.79745 57.5137 8.90737 57.4375 8.90478Z" fill="white"/>
    <path d="M51.6944 10.1673C51.5277 9.84933 51.4878 9.48658 51.5818 9.14378C51.6758 8.80098 51.8977 8.50047 52.2077 8.2959C52.2706 8.25471 52.3423 8.34376 52.2794 8.385C51.9903 8.575 51.7836 8.85495 51.6968 9.17433C51.6099 9.49371 51.6485 9.83148 51.8057 10.1267C51.8397 10.1909 51.7283 10.2311 51.6944 10.1673Z" fill="white"/>
    <path d="M49.5213 12.4553C50.2536 12.6966 51.0567 12.6721 51.7704 12.3866C51.8411 12.3582 51.8846 12.4619 51.814 12.4902C51.0707 12.786 50.2349 12.8099 49.4734 12.5573C49.4009 12.5331 49.4491 12.4313 49.5213 12.4553Z" fill="white"/>
    <path d="M54.964 9.05576C55.0009 9.19129 55.0735 9.31615 55.1751 9.41912C55.2767 9.5221 55.4042 9.59996 55.5461 9.64572C55.619 9.66898 55.5706 9.77079 55.4983 9.74768C55.3417 9.69644 55.201 9.61029 55.0885 9.49675C54.976 9.38321 54.895 9.24574 54.8527 9.09635C54.8474 9.08258 54.848 9.06747 54.8543 9.05407C54.8606 9.04068 54.8721 9.03002 54.8865 9.02426C54.9013 9.01895 54.9177 9.01929 54.9322 9.02519C54.9467 9.03108 54.9581 9.04207 54.964 9.05576Z" fill="white"/>
    <path d="M32.0106 40.1114C32.9559 37.7452 35.1891 35.7007 37.888 35.4575C36.2654 37.7498 35.566 40.5026 35.9135 43.2288C36.0516 44.2797 36.3228 45.4352 35.7143 46.3297C35.3357 46.8862 34.6685 47.2288 33.9807 47.3835C33.2928 47.5381 32.5761 47.5261 31.8687 47.5132L31.7103 47.5861C31.2127 45.1044 31.0654 42.4775 32.0106 40.1114Z" fill="#F0F0F0"/>
    <path d="M37.901 35.509C36.0612 36.7057 34.6731 38.4117 33.934 40.3848C33.7668 40.8069 33.6721 41.2509 33.6533 41.7005C33.6503 42.1389 33.7735 42.5702 34.01 42.9494C34.2229 43.3071 34.4852 43.65 34.601 44.0496C34.657 44.255 34.6657 44.4691 34.6267 44.6779C34.5876 44.8866 34.5015 45.0853 34.3742 45.261C34.0691 45.7062 33.6103 46.0229 33.1501 46.3181C32.6392 46.6458 32.1029 46.9787 31.7903 47.4935C31.7524 47.5559 31.6506 47.4975 31.6885 47.4352C32.2324 46.5395 33.3739 46.2141 34.0723 45.4533C34.3981 45.0983 34.611 44.6497 34.5103 44.1769C34.4222 43.7635 34.1521 43.4097 33.9331 43.0493C33.6966 42.6825 33.5601 42.2674 33.5356 41.8402C33.5296 41.3912 33.6058 40.9445 33.7608 40.5193C34.0934 39.5568 34.5865 38.649 35.222 37.8292C35.9418 36.8897 36.8288 36.0718 37.8447 35.4109C37.9076 35.37 37.9635 35.4684 37.901 35.509Z" fill="white"/>
    <path d="M34.1319 39.7364C33.7931 39.576 33.5267 39.3087 33.3801 38.9823C33.2335 38.6559 33.2163 38.2916 33.3316 37.9545C33.3552 37.8863 33.47 37.9172 33.4464 37.9854C33.3384 38.2992 33.3545 38.6385 33.4917 38.9422C33.6288 39.2459 33.8781 39.494 34.1944 39.6416C34.2632 39.6738 34.2002 39.7684 34.1319 39.7364Z" fill="white"/>
    <path d="M33.8765 42.7813C34.6173 42.5635 35.2426 42.0937 35.6279 41.4657C35.666 41.4035 35.7678 41.4618 35.7297 41.524C35.3275 42.1768 34.6756 42.6645 33.9043 42.8895C33.8307 42.911 33.8034 42.8026 33.8765 42.7813Z" fill="white"/>
    <path d="M36.0237 37.0161C36.1409 37.1036 36.2795 37.1626 36.4272 37.1878C36.575 37.2131 36.7271 37.2038 36.87 37.1608C36.9432 37.1385 36.9705 37.2469 36.8977 37.269C36.7396 37.3159 36.5716 37.3259 36.4083 37.2984C36.245 37.2708 36.0915 37.2064 35.9611 37.1109C35.948 37.1028 35.9387 37.0904 35.935 37.0762C35.9314 37.062 35.9337 37.047 35.9415 37.0343C35.9498 37.0218 35.9632 37.0129 35.9786 37.0095C35.9939 37.006 36.0102 37.0084 36.0237 37.0161Z" fill="white"/>
    <path d="M44.3932 41.4889C44.3479 41.504 44.3026 41.5191 44.2571 41.5351C43.6493 41.7412 43.0605 41.993 42.4966 42.2879C42.4526 42.31 42.4084 42.3331 42.3651 42.3564C41.0146 43.0803 39.8201 44.0314 38.8424 45.1613C38.4538 45.6113 38.1026 46.0881 37.7917 46.5877C37.3624 47.2776 36.9558 48.0575 36.3254 48.5603C36.2602 48.6135 36.1916 48.6628 36.1199 48.7081L31.818 47.7603C31.8093 47.7536 31.8004 47.7478 31.7918 47.741L31.6182 47.7105C31.6323 47.6837 31.6475 47.6562 31.6616 47.6294C31.6697 47.6138 31.6788 47.5984 31.6869 47.5828C31.6926 47.5725 31.6984 47.5622 31.7029 47.5526C31.7048 47.5492 31.7067 47.5457 31.7084 47.5432C31.7129 47.5336 31.7182 47.5251 31.7225 47.5164C31.8072 47.3623 31.8933 47.2085 31.9807 47.0551C31.9809 47.0541 31.9809 47.0541 31.9821 47.0534C32.6358 45.878 33.4371 44.7789 34.3689 43.7792C34.3972 43.7497 34.4256 43.7193 34.4558 43.6902C34.8814 43.2506 35.3449 42.8441 35.8416 42.4747C36.1143 42.2733 36.3978 42.0849 36.691 41.9101C37.4494 41.46 38.2791 41.1237 39.1498 40.9137C40.8855 40.4951 42.7457 40.5981 44.2769 41.4247C44.316 41.4458 44.3543 41.4668 44.3932 41.4889Z" fill="#F0F0F0"/>
    <path d="M44.3706 41.5376C42.1277 41.4618 39.9162 42.0458 38.0502 43.2069C37.6437 43.4502 37.281 43.7516 36.9753 44.1001C36.6893 44.4485 36.5088 44.8618 36.4524 45.2972C36.3911 45.7021 36.3788 46.1229 36.2128 46.5069C36.1247 46.7023 35.9932 46.8782 35.827 47.0229C35.6608 47.1677 35.4636 47.2781 35.2484 47.347C34.7168 47.5315 34.1458 47.5272 33.5874 47.5049C32.9676 47.4802 32.3241 47.4453 31.7416 47.6811C31.671 47.7097 31.6275 47.6061 31.698 47.5775C32.7115 47.1672 33.8333 47.5474 34.8829 47.3313C35.3727 47.2305 35.8328 46.9917 36.0581 46.5577C36.255 46.1783 36.2682 45.7444 36.3264 45.3339C36.3747 44.9084 36.5342 44.5004 36.7909 44.1456C37.0765 43.7838 37.4262 43.4698 37.8249 43.2172C38.7129 42.6352 39.6936 42.1868 40.7312 41.8884C41.9134 41.5417 43.1505 41.3859 44.3891 41.4276C44.4658 41.4303 44.4468 41.5402 44.3706 41.5376Z" fill="white"/>
    <path d="M38.6275 42.8001C38.4608 42.4821 38.4209 42.1194 38.5149 41.7766C38.609 41.4338 38.8308 41.1333 39.1408 40.9287C39.2037 40.8875 39.2754 40.9766 39.2125 41.0178C38.9234 41.2078 38.7167 41.4878 38.6299 41.8071C38.543 42.1265 38.5816 42.4643 38.7388 42.7595C38.7728 42.8237 38.6614 42.8639 38.6275 42.8001Z" fill="white"/>
    <path d="M36.4546 45.088C37.1869 45.3293 37.99 45.3048 38.7038 45.0193C38.7745 44.9909 38.818 45.0945 38.7474 45.1229C38.004 45.4187 37.1682 45.4426 36.4068 45.1899C36.3342 45.1658 36.3825 45.064 36.4546 45.088Z" fill="white"/>
    <path d="M41.8971 41.6885C41.934 41.824 42.0066 41.9488 42.1082 42.0518C42.2098 42.1548 42.3373 42.2327 42.4792 42.2784C42.5521 42.3017 42.5038 42.4035 42.4314 42.3804C42.2748 42.3291 42.1341 42.243 42.0216 42.1294C41.9091 42.0159 41.8281 41.8784 41.7858 41.729C41.7805 41.7153 41.7811 41.7002 41.7874 41.6868C41.7937 41.6734 41.8052 41.6627 41.8196 41.657C41.8344 41.6516 41.8508 41.652 41.8653 41.6579C41.8798 41.6638 41.8912 41.6748 41.8971 41.6885Z" fill="white"/>
    <path d="M85.5607 57.8468C85.0783 56.1679 85.4567 54.1915 86.8675 53.0535C86.938 54.9423 87.7239 56.7471 89.0861 58.1484C89.6135 58.687 90.2604 59.235 90.3017 59.9629C90.3041 60.4216 90.1172 60.8636 89.7797 61.1978C89.4439 61.5271 89.0642 61.815 88.6498 62.0544L88.592 62.154C87.2503 60.9457 86.0431 59.5258 85.5607 57.8468Z" fill="#F0F0F0"/>
    <path d="M86.897 53.0775C86.3765 54.432 86.3277 55.9047 86.7575 57.2865C86.8443 57.5855 86.9812 57.8699 87.1632 58.1292C87.3492 58.3764 87.603 58.5728 87.8981 58.6979C88.182 58.7999 88.4515 58.9336 88.7008 59.0962C88.8202 59.1907 88.9167 59.3076 88.9842 59.4393C89.0516 59.571 89.0884 59.7144 89.0921 59.8603C89.0901 60.2206 89.0103 60.5768 88.8576 60.9079C88.7111 61.2815 88.5525 61.6673 88.5974 62.0723C88.6029 62.1214 88.5208 62.1264 88.5153 62.0774C88.4372 61.3728 88.9387 60.7665 89.005 60.0803C89.0302 59.9221 89.0162 59.7607 88.9641 59.6084C88.912 59.456 88.8232 59.3168 88.7044 59.2013C88.478 59.0019 88.1749 58.9036 87.8977 58.7825C87.6079 58.6644 87.3536 58.482 87.1569 58.2513C86.9614 58.0015 86.8129 57.7225 86.7179 57.4263C86.4925 56.7626 86.3807 56.07 86.3864 55.374C86.3883 54.5796 86.536 53.7913 86.8233 53.0433C86.8411 52.997 86.9146 53.0315 86.897 53.0775Z" fill="white"/>
    <path d="M86.5909 56.8491C86.3321 56.8848 86.0681 56.8337 85.8461 56.7048C85.6241 56.576 85.4585 56.3779 85.3789 56.1459C85.3629 56.0989 85.4406 56.0736 85.4566 56.1207C85.5303 56.3369 85.6846 56.5214 85.8916 56.641C86.0986 56.7605 86.3447 56.8073 86.5855 56.7727C86.6378 56.7653 86.6429 56.8417 86.5909 56.8491Z" fill="white"/>
    <path d="M87.7511 58.6532C88.0736 58.256 88.2236 57.7603 88.171 57.2648C88.1657 57.2157 88.2478 57.2107 88.2531 57.2597C88.3068 57.7754 88.1496 58.291 87.813 58.7036C87.7809 58.7429 87.7192 58.6923 87.7511 58.6532Z" fill="white"/>
    <path d="M86.4884 54.6202C86.5916 54.6258 86.6947 54.6075 86.7884 54.5668C86.8822 54.5262 86.9636 54.4645 87.0254 54.3873C87.0569 54.3477 87.1186 54.3984 87.0873 54.4378C87.0186 54.5228 86.9285 54.5908 86.8251 54.6359C86.7216 54.681 86.6079 54.7018 86.4938 54.6966C86.483 54.6969 86.4725 54.6934 86.4643 54.6868C86.4562 54.6802 86.4511 54.6709 86.45 54.6609C86.4494 54.6508 86.453 54.6408 86.4602 54.6332C86.4674 54.6256 86.4775 54.6209 86.4884 54.6202Z" fill="white"/>
    <path d="M93.1012 54.0249C93.0822 54.0502 93.0633 54.0755 93.0446 54.1014C92.7916 54.4426 92.5689 54.8024 92.3786 55.1772C92.3634 55.206 92.3484 55.2353 92.3342 55.2645C91.886 56.172 91.6226 57.1492 91.5576 58.1462C91.5321 58.543 91.539 58.941 91.5784 59.3368C91.6328 59.8834 91.7385 60.472 91.5998 60.9882C91.586 61.0422 91.5686 61.0954 91.5477 61.1474L88.7272 62.2118C88.7195 62.2112 88.712 62.2113 88.7043 62.2107L88.5937 62.258C88.5902 62.2377 88.587 62.2166 88.5834 62.1963C88.5813 62.1846 88.5798 62.1726 88.5777 62.1608C88.5765 62.1529 88.5753 62.145 88.5737 62.1379C88.5733 62.1353 88.5729 62.1326 88.5727 62.1306C88.5712 62.1235 88.5705 62.1168 88.5692 62.1103C88.5508 61.9924 88.5333 61.8741 88.5166 61.7556C88.5164 61.755 88.5164 61.755 88.5167 61.7541C88.3805 60.8517 88.3597 59.9374 88.4548 59.0305C88.458 59.0034 88.461 58.9758 88.4655 58.9483C88.5162 58.5436 88.6023 58.1434 88.723 57.7517C88.7899 57.5375 88.8683 57.3265 88.9581 57.1196C89.1911 56.5855 89.5129 56.0888 89.9117 55.6478C90.7068 54.7688 91.795 54.1363 93.0084 54.032C93.0394 54.0294 93.0699 54.0269 93.1012 54.0249Z" fill="#F0F0F0"/>
    <path d="M93.1093 54.0607C91.8178 54.8505 90.8265 55.999 90.2761 57.3432C90.152 57.6306 90.0775 57.9344 90.0551 58.2434C90.0437 58.5451 90.1193 58.8442 90.2741 59.1094C90.4348 59.35 90.5635 59.6079 90.6575 59.8774C90.6917 60.0198 90.6931 60.1673 90.6618 60.3102C90.6305 60.4532 90.5671 60.5883 90.4757 60.7069C90.2411 60.9934 89.9471 61.2332 89.611 61.4119C89.2525 61.628 88.8764 61.8472 88.6503 62.1958C88.6229 62.238 88.5542 62.196 88.5815 62.1538C88.9748 61.5474 89.7672 61.3444 90.2639 60.8337C90.3863 60.7215 90.4795 60.5848 90.5365 60.434C90.5934 60.2831 90.6125 60.1222 90.5924 59.9634C90.5405 59.6773 90.3621 59.4288 90.2191 59.1768C90.064 58.92 89.9789 58.6319 89.9711 58.3374C89.9765 58.0284 90.0384 57.7224 90.154 57.4326C90.4033 56.7764 90.7619 56.1607 91.2165 55.6082C91.7317 54.9749 92.3594 54.4283 93.0726 53.9921C93.1167 53.9651 93.1531 54.0339 93.1093 54.0607Z" fill="white"/>
    <path d="M90.426 56.9006C90.1963 56.784 90.0186 56.5952 89.9247 56.3679C89.8307 56.1406 89.8266 55.8896 89.9131 55.6597C89.9307 55.6132 90.0091 55.6366 89.9914 55.6831C89.9105 55.897 89.9143 56.1309 90.0023 56.3424C90.0903 56.5539 90.2565 56.7291 90.4711 56.8365C90.5177 56.8599 90.4724 56.9239 90.426 56.9006Z" fill="white"/>
    <path d="M90.1858 58.9913C90.7002 58.855 91.1405 58.5432 91.4189 58.1181C91.4464 58.0759 91.5152 58.118 91.4877 58.16C91.1971 58.6019 90.7382 58.9255 90.2026 59.0663C90.1516 59.0796 90.135 59.0046 90.1858 58.9913Z" fill="white"/>
    <path d="M91.7853 55.0633C91.8641 55.1257 91.9583 55.1688 92.0594 55.1889C92.1605 55.209 92.2654 55.2054 92.3647 55.1784C92.4155 55.1645 92.432 55.2395 92.3815 55.2534C92.2717 55.2828 92.1558 55.2866 92.044 55.2646C91.9323 55.2427 91.828 55.1955 91.7403 55.1274C91.7314 55.1216 91.7253 55.1129 91.7231 55.1031C91.7209 55.0932 91.7228 55.083 91.7284 55.0744C91.7344 55.0659 91.7438 55.06 91.7544 55.0579C91.7651 55.0559 91.7762 55.0578 91.7853 55.0633Z" fill="white"/>
  </g>
  <defs>
    <clipPath id="clip0_74_6596">
      <rect width="100" height="100" fill="white"/>
    </clipPath>
  </defs>
</svg>