<svg xmlns="http://www.w3.org/2000/svg" width="100" height="96" viewBox="0 0 100 96" fill="none">
  <g clip-path="url(#clip0_74_6753)">
    <g opacity="0.3">
      <path d="M74.438 52.9034H60.8205C60.3382 52.9034 59.9473 53.2929 59.9473 53.7734V56.6607C59.9473 57.1411 60.3382 57.5306 60.8205 57.5306H74.438C74.9202 57.5306 75.3112 57.1411 75.3112 56.6607V53.7734C75.3112 53.2929 74.9202 52.9034 74.438 52.9034Z" fill="#F2F2F2"/>
      <path d="M90.5164 57.5306H76.8988C76.4166 57.5306 76.0256 57.9201 76.0256 58.4006V61.2879C76.0256 61.7683 76.4166 62.1578 76.8988 62.1578H90.5164C90.9986 62.1578 91.3896 61.7683 91.3896 61.2879V58.4006C91.3896 57.9201 90.9986 57.5306 90.5164 57.5306Z" fill="#F2F2F2"/>
      <path d="M106.596 62.1589H92.9787C92.4964 62.1589 92.1055 62.5484 92.1055 63.0289V65.9162C92.1055 66.3966 92.4964 66.7861 92.9787 66.7861H106.596C107.078 66.7861 107.469 66.3966 107.469 65.9162V63.0289C107.469 62.5484 107.078 62.1589 106.596 62.1589Z" fill="#F2F2F2"/>
      <path d="M74.438 45.9614H60.8205C60.3382 45.9614 59.9473 46.3509 59.9473 46.8314V49.7187C59.9473 50.1991 60.3382 50.5886 60.8205 50.5886H74.438C74.9202 50.5886 75.3112 50.1991 75.3112 49.7187V46.8314C75.3112 46.3509 74.9202 45.9614 74.438 45.9614Z" fill="#F2F2F2"/>
      <path d="M90.5164 50.5898H76.8988C76.4166 50.5898 76.0256 50.9793 76.0256 51.4598V54.3471C76.0256 54.8275 76.4166 55.217 76.8988 55.217H90.5164C90.9986 55.217 91.3896 54.8275 91.3896 54.3471V51.4598C91.3896 50.9793 90.9986 50.5898 90.5164 50.5898Z" fill="#F2F2F2"/>
      <path d="M106.596 55.217H92.9787C92.4964 55.217 92.1055 55.6065 92.1055 56.087V58.9743C92.1055 59.4547 92.4964 59.8442 92.9787 59.8442H106.596C107.078 59.8442 107.469 59.4547 107.469 58.9743V56.087C107.469 55.6065 107.078 55.217 106.596 55.217Z" fill="#F2F2F2"/>
      <path d="M74.438 36.7072H60.8205C60.3382 36.7072 59.9473 37.0966 59.9473 37.5771V40.4644C59.9473 40.9448 60.3382 41.3343 60.8205 41.3343H74.438C74.9202 41.3343 75.3112 40.9448 75.3112 40.4644V37.5771C75.3112 37.0966 74.9202 36.7072 74.438 36.7072Z" fill="#F2F2F2"/>
      <path d="M90.5164 41.3344H76.8988C76.4166 41.3344 76.0256 41.7238 76.0256 42.2043V45.0916C76.0256 45.572 76.4166 45.9615 76.8988 45.9615H90.5164C90.9986 45.9615 91.3896 45.572 91.3896 45.0916V42.2043C91.3896 41.7238 90.9986 41.3344 90.5164 41.3344Z" fill="#F2F2F2"/>
      <path d="M106.596 45.9614H92.9787C92.4964 45.9614 92.1055 46.3509 92.1055 46.8314V49.7187C92.1055 50.1991 92.4964 50.5886 92.9787 50.5886H106.596C107.078 50.5886 107.469 50.1991 107.469 49.7187V46.8314C107.469 46.3509 107.078 45.9614 106.596 45.9614Z" fill="#F2F2F2"/>
      <path d="M74.438 29.7653H60.8205C60.3382 29.7653 59.9473 30.1547 59.9473 30.6352V33.5225C59.9473 34.003 60.3382 34.3924 60.8205 34.3924H74.438C74.9202 34.3924 75.3112 34.003 75.3112 33.5225V30.6352C75.3112 30.1547 74.9202 29.7653 74.438 29.7653Z" fill="#F2F2F2"/>
      <path d="M90.5164 34.3923H76.8988C76.4166 34.3923 76.0256 34.7818 76.0256 35.2623V38.1496C76.0256 38.63 76.4166 39.0195 76.8988 39.0195H90.5164C90.9986 39.0195 91.3896 38.63 91.3896 38.1496V35.2623C91.3896 34.7818 90.9986 34.3923 90.5164 34.3923Z" fill="#F2F2F2"/>
      <path d="M106.596 39.0208H92.9787C92.4964 39.0208 92.1055 39.4102 92.1055 39.8907V42.778C92.1055 43.2584 92.4964 43.6479 92.9787 43.6479H106.596C107.078 43.6479 107.469 43.2584 107.469 42.778V39.8907C107.469 39.4102 107.078 39.0208 106.596 39.0208Z" fill="#F2F2F2"/>
      <path opacity="0.1" d="M74.438 52.9034H60.8205C60.3382 52.9034 59.9473 53.2929 59.9473 53.7734V56.6607C59.9473 57.1411 60.3382 57.5306 60.8205 57.5306H74.438C74.9202 57.5306 75.3112 57.1411 75.3112 56.6607V53.7734C75.3112 53.2929 74.9202 52.9034 74.438 52.9034Z" fill="#6C63FF"/>
      <path opacity="0.1" d="M90.5164 57.5306H76.8988C76.4166 57.5306 76.0256 57.9201 76.0256 58.4006V61.2879C76.0256 61.7683 76.4166 62.1578 76.8988 62.1578H90.5164C90.9986 62.1578 91.3896 61.7683 91.3896 61.2879V58.4006C91.3896 57.9201 90.9986 57.5306 90.5164 57.5306Z" fill="#6C63FF"/>
      <path opacity="0.1" d="M106.596 62.1589H92.9787C92.4964 62.1589 92.1055 62.5484 92.1055 63.0289V65.9162C92.1055 66.3966 92.4964 66.7861 92.9787 66.7861H106.596C107.078 66.7861 107.469 66.3966 107.469 65.9162V63.0289C107.469 62.5484 107.078 62.1589 106.596 62.1589Z" fill="#6C63FF"/>
      <path opacity="0.1" d="M74.438 45.9614H60.8205C60.3382 45.9614 59.9473 46.3509 59.9473 46.8314V49.7187C59.9473 50.1991 60.3382 50.5886 60.8205 50.5886H74.438C74.9202 50.5886 75.3112 50.1991 75.3112 49.7187V46.8314C75.3112 46.3509 74.9202 45.9614 74.438 45.9614Z" fill="#6C63FF"/>
      <path opacity="0.1" d="M90.5164 50.5898H76.8988C76.4166 50.5898 76.0256 50.9793 76.0256 51.4598V54.3471C76.0256 54.8275 76.4166 55.217 76.8988 55.217H90.5164C90.9986 55.217 91.3896 54.8275 91.3896 54.3471V51.4598C91.3896 50.9793 90.9986 50.5898 90.5164 50.5898Z" fill="#6C63FF"/>
      <path opacity="0.1" d="M106.596 55.217H92.9787C92.4964 55.217 92.1055 55.6065 92.1055 56.087V58.9743C92.1055 59.4547 92.4964 59.8442 92.9787 59.8442H106.596C107.078 59.8442 107.469 59.4547 107.469 58.9743V56.087C107.469 55.6065 107.078 55.217 106.596 55.217Z" fill="#6C63FF"/>
      <path opacity="0.1" d="M74.438 36.7072H60.8205C60.3382 36.7072 59.9473 37.0966 59.9473 37.5771V40.4644C59.9473 40.9448 60.3382 41.3343 60.8205 41.3343H74.438C74.9202 41.3343 75.3112 40.9448 75.3112 40.4644V37.5771C75.3112 37.0966 74.9202 36.7072 74.438 36.7072Z" fill="#6C63FF"/>
      <path opacity="0.1" d="M90.5164 41.3344H76.8988C76.4166 41.3344 76.0256 41.7238 76.0256 42.2043V45.0916C76.0256 45.572 76.4166 45.9615 76.8988 45.9615H90.5164C90.9986 45.9615 91.3896 45.572 91.3896 45.0916V42.2043C91.3896 41.7238 90.9986 41.3344 90.5164 41.3344Z" fill="#6C63FF"/>
      <path opacity="0.1" d="M106.596 45.9614H92.9787C92.4964 45.9614 92.1055 46.3509 92.1055 46.8314V49.7187C92.1055 50.1991 92.4964 50.5886 92.9787 50.5886H106.596C107.078 50.5886 107.469 50.1991 107.469 49.7187V46.8314C107.469 46.3509 107.078 45.9614 106.596 45.9614Z" fill="#6C63FF"/>
      <path opacity="0.1" d="M74.438 29.7653H60.8205C60.3382 29.7653 59.9473 30.1547 59.9473 30.6352V33.5225C59.9473 34.003 60.3382 34.3924 60.8205 34.3924H74.438C74.9202 34.3924 75.3112 34.003 75.3112 33.5225V30.6352C75.3112 30.1547 74.9202 29.7653 74.438 29.7653Z" fill="#6C63FF"/>
      <path opacity="0.1" d="M90.5164 34.3923H76.8988C76.4166 34.3923 76.0256 34.7818 76.0256 35.2623V38.1496C76.0256 38.63 76.4166 39.0195 76.8988 39.0195H90.5164C90.9986 39.0195 91.3896 38.63 91.3896 38.1496V35.2623C91.3896 34.7818 90.9986 34.3923 90.5164 34.3923Z" fill="#6C63FF"/>
      <path opacity="0.1" d="M106.596 39.0208H92.9787C92.4964 39.0208 92.1055 39.4102 92.1055 39.8907V42.778C92.1055 43.2584 92.4964 43.6479 92.9787 43.6479H106.596C107.078 43.6479 107.469 43.2584 107.469 42.778V39.8907C107.469 39.4102 107.078 39.0208 106.596 39.0208Z" fill="#6C63FF"/>
    </g>
    <g opacity="0.3">
      <path d="M14.2656 23.2811H0.648107C0.165849 23.2811 -0.225098 23.6706 -0.225098 24.1511V27.0384C-0.225098 27.5188 0.165849 27.9083 0.648107 27.9083H14.2656C14.7479 27.9083 15.1388 27.5188 15.1388 27.0384V24.1511C15.1388 23.6706 14.7479 23.2811 14.2656 23.2811Z" fill="#F2F2F2"/>
      <path d="M30.344 27.9083H16.7265C16.2442 27.9083 15.8533 28.2978 15.8533 28.7783V31.6656C15.8533 32.146 16.2442 32.5355 16.7265 32.5355H30.344C30.8263 32.5355 31.2172 32.146 31.2172 31.6656V28.7783C31.2172 28.2978 30.8263 27.9083 30.344 27.9083Z" fill="#F2F2F2"/>
      <path d="M46.4238 32.5366H32.8063C32.3241 32.5366 31.9331 32.9261 31.9331 33.4066V36.2939C31.9331 36.7743 32.3241 37.1638 32.8063 37.1638H46.4238C46.9061 37.1638 47.297 36.7743 47.297 36.2939V33.4066C47.297 32.9261 46.9061 32.5366 46.4238 32.5366Z" fill="#F2F2F2"/>
      <path d="M14.2656 16.3391H0.648107C0.165849 16.3391 -0.225098 16.7286 -0.225098 17.209V20.0964C-0.225098 20.5768 0.165849 20.9663 0.648107 20.9663H14.2656C14.7479 20.9663 15.1388 20.5768 15.1388 20.0964V17.209C15.1388 16.7286 14.7479 16.3391 14.2656 16.3391Z" fill="#F2F2F2"/>
      <path d="M30.344 20.9675H16.7265C16.2442 20.9675 15.8533 21.357 15.8533 21.8375V24.7248C15.8533 25.2052 16.2442 25.5947 16.7265 25.5947H30.344C30.8263 25.5947 31.2172 25.2052 31.2172 24.7248V21.8375C31.2172 21.357 30.8263 20.9675 30.344 20.9675Z" fill="#F2F2F2"/>
      <path d="M46.4238 25.5947H32.8063C32.3241 25.5947 31.9331 25.9842 31.9331 26.4647V29.352C31.9331 29.8324 32.3241 30.2219 32.8063 30.2219H46.4238C46.9061 30.2219 47.297 29.8324 47.297 29.352V26.4647C47.297 25.9842 46.9061 25.5947 46.4238 25.5947Z" fill="#F2F2F2"/>
      <path d="M14.2656 7.08484H0.648107C0.165849 7.08484 -0.225098 7.47432 -0.225098 7.95478V10.8421C-0.225098 11.3225 0.165849 11.712 0.648107 11.712H14.2656C14.7479 11.712 15.1388 11.3225 15.1388 10.8421V7.95478C15.1388 7.47432 14.7479 7.08484 14.2656 7.08484Z" fill="#F2F2F2"/>
      <path d="M30.344 11.712H16.7265C16.2442 11.712 15.8533 12.1015 15.8533 12.582V15.4693C15.8533 15.9497 16.2442 16.3392 16.7265 16.3392H30.344C30.8263 16.3392 31.2172 15.9497 31.2172 15.4693V12.582C31.2172 12.1015 30.8263 11.712 30.344 11.712Z" fill="#F2F2F2"/>
      <path d="M46.4238 16.3391H32.8063C32.3241 16.3391 31.9331 16.7286 31.9331 17.209V20.0964C31.9331 20.5768 32.3241 20.9663 32.8063 20.9663H46.4238C46.9061 20.9663 47.297 20.5768 47.297 20.0964V17.209C47.297 16.7286 46.9061 16.3391 46.4238 16.3391Z" fill="#F2F2F2"/>
      <path d="M14.2656 0.142822H0.648107C0.165849 0.142822 -0.225098 0.532307 -0.225098 1.01276V3.90006C-0.225098 4.38052 0.165849 4.77 0.648107 4.77H14.2656C14.7479 4.77 15.1388 4.38052 15.1388 3.90006V1.01276C15.1388 0.532307 14.7479 0.142822 14.2656 0.142822Z" fill="#F2F2F2"/>
      <path d="M30.344 4.77002H16.7265C16.2442 4.77002 15.8533 5.1595 15.8533 5.63996V8.52726C15.8533 9.00771 16.2442 9.3972 16.7265 9.3972H30.344C30.8263 9.3972 31.2172 9.00771 31.2172 8.52726V5.63996C31.2172 5.1595 30.8263 4.77002 30.344 4.77002Z" fill="#F2F2F2"/>
      <path d="M46.4238 9.39844H32.8063C32.3241 9.39844 31.9331 9.78792 31.9331 10.2684V13.1557C31.9331 13.6361 32.3241 14.0256 32.8063 14.0256H46.4238C46.9061 14.0256 47.297 13.6361 47.297 13.1557V10.2684C47.297 9.78792 46.9061 9.39844 46.4238 9.39844Z" fill="#F2F2F2"/>
      <path opacity="0.1" d="M14.2656 23.2811H0.648107C0.165849 23.2811 -0.225098 23.6706 -0.225098 24.1511V27.0384C-0.225098 27.5188 0.165849 27.9083 0.648107 27.9083H14.2656C14.7479 27.9083 15.1388 27.5188 15.1388 27.0384V24.1511C15.1388 23.6706 14.7479 23.2811 14.2656 23.2811Z" fill="#6C63FF"/>
      <path opacity="0.1" d="M30.344 27.9083H16.7265C16.2442 27.9083 15.8533 28.2978 15.8533 28.7783V31.6656C15.8533 32.146 16.2442 32.5355 16.7265 32.5355H30.344C30.8263 32.5355 31.2172 32.146 31.2172 31.6656V28.7783C31.2172 28.2978 30.8263 27.9083 30.344 27.9083Z" fill="#6C63FF"/>
      <path opacity="0.1" d="M46.4238 32.5366H32.8063C32.3241 32.5366 31.9331 32.9261 31.9331 33.4066V36.2939C31.9331 36.7743 32.3241 37.1638 32.8063 37.1638H46.4238C46.9061 37.1638 47.297 36.7743 47.297 36.2939V33.4066C47.297 32.9261 46.9061 32.5366 46.4238 32.5366Z" fill="#6C63FF"/>
      <path opacity="0.1" d="M14.2656 16.3391H0.648107C0.165849 16.3391 -0.225098 16.7286 -0.225098 17.209V20.0964C-0.225098 20.5768 0.165849 20.9663 0.648107 20.9663H14.2656C14.7479 20.9663 15.1388 20.5768 15.1388 20.0964V17.209C15.1388 16.7286 14.7479 16.3391 14.2656 16.3391Z" fill="#6C63FF"/>
      <path opacity="0.1" d="M30.344 20.9675H16.7265C16.2442 20.9675 15.8533 21.357 15.8533 21.8375V24.7248C15.8533 25.2052 16.2442 25.5947 16.7265 25.5947H30.344C30.8263 25.5947 31.2172 25.2052 31.2172 24.7248V21.8375C31.2172 21.357 30.8263 20.9675 30.344 20.9675Z" fill="#6C63FF"/>
      <path opacity="0.1" d="M46.4238 25.5947H32.8063C32.3241 25.5947 31.9331 25.9842 31.9331 26.4647V29.352C31.9331 29.8324 32.3241 30.2219 32.8063 30.2219H46.4238C46.9061 30.2219 47.297 29.8324 47.297 29.352V26.4647C47.297 25.9842 46.9061 25.5947 46.4238 25.5947Z" fill="#6C63FF"/>
      <path opacity="0.1" d="M14.2656 7.08484H0.648107C0.165849 7.08484 -0.225098 7.47432 -0.225098 7.95478V10.8421C-0.225098 11.3225 0.165849 11.712 0.648107 11.712H14.2656C14.7479 11.712 15.1388 11.3225 15.1388 10.8421V7.95478C15.1388 7.47432 14.7479 7.08484 14.2656 7.08484Z" fill="#6C63FF"/>
      <path opacity="0.1" d="M30.344 11.712H16.7265C16.2442 11.712 15.8533 12.1015 15.8533 12.582V15.4693C15.8533 15.9497 16.2442 16.3392 16.7265 16.3392H30.344C30.8263 16.3392 31.2172 15.9497 31.2172 15.4693V12.582C31.2172 12.1015 30.8263 11.712 30.344 11.712Z" fill="#6C63FF"/>
      <path opacity="0.1" d="M46.4238 16.3391H32.8063C32.3241 16.3391 31.9331 16.7286 31.9331 17.209V20.0964C31.9331 20.5768 32.3241 20.9663 32.8063 20.9663H46.4238C46.9061 20.9663 47.297 20.5768 47.297 20.0964V17.209C47.297 16.7286 46.9061 16.3391 46.4238 16.3391Z" fill="#6C63FF"/>
      <path opacity="0.1" d="M14.2656 0.142822H0.648107C0.165849 0.142822 -0.225098 0.532307 -0.225098 1.01276V3.90006C-0.225098 4.38052 0.165849 4.77 0.648107 4.77H14.2656C14.7479 4.77 15.1388 4.38052 15.1388 3.90006V1.01276C15.1388 0.532307 14.7479 0.142822 14.2656 0.142822Z" fill="#6C63FF"/>
      <path opacity="0.1" d="M30.344 4.77002H16.7265C16.2442 4.77002 15.8533 5.1595 15.8533 5.63996V8.52726C15.8533 9.00771 16.2442 9.3972 16.7265 9.3972H30.344C30.8263 9.3972 31.2172 9.00771 31.2172 8.52726V5.63996C31.2172 5.1595 30.8263 4.77002 30.344 4.77002Z" fill="#6C63FF"/>
      <path opacity="0.1" d="M46.4238 9.39844H32.8063C32.3241 9.39844 31.9331 9.78792 31.9331 10.2684V13.1557C31.9331 13.6361 32.3241 14.0256 32.8063 14.0256H46.4238C46.9061 14.0256 47.297 13.6361 47.297 13.1557V10.2684C47.297 9.78792 46.9061 9.39844 46.4238 9.39844Z" fill="#6C63FF"/>
    </g>
    <g opacity="0.1">
      <path d="M20.4557 64.797C20.4575 65.4608 20.389 66.1229 20.2512 66.7723C20.2254 66.8893 20.1972 67.0146 20.169 67.1317C19.4439 70.0319 17.3954 72.1535 14.9521 72.2834C14.871 72.2834 14.7887 72.2905 14.7041 72.2905C12.1186 72.2905 9.93497 70.0658 9.21455 67.0123C9.1934 66.9303 9.17577 66.8495 9.15814 66.7676C9.02041 66.1182 8.95186 65.4561 8.95365 64.7924C8.95365 60.6487 11.5274 57.299 14.7041 57.299C17.8808 57.299 20.4557 60.6534 20.4557 64.797Z" fill="#3F3D56"/>
      <path opacity="0.1" d="M20.4557 64.7971C20.4575 65.4608 20.3889 66.1229 20.2512 66.7723C20.2253 66.8894 20.1971 67.0147 20.1689 67.1318C20.0819 67.1318 19.9973 67.1317 19.9115 67.1212C19.2788 67.0867 18.6499 67.001 18.0312 66.8648C17.4824 67.0333 16.9218 67.1609 16.3541 67.2465C15.9186 67.3099 15.48 67.349 15.0402 67.3636C14.8921 67.3636 14.744 67.3718 14.5959 67.3718C14.0693 67.3715 13.5432 67.3367 13.0211 67.2676C12.1785 67.1543 11.3509 66.9493 10.5531 66.6564C10.1159 66.7999 9.67046 66.9172 9.21919 67.0076C9.19804 66.9257 9.18041 66.8449 9.16278 66.7629C9.02505 66.1135 8.9565 65.4515 8.95829 64.7877C8.95829 60.6441 11.5321 57.2943 14.7087 57.2943C17.8854 57.2943 20.4557 60.6535 20.4557 64.7971Z" fill="black"/>
      <path d="M32.7241 50.8254C32.7266 49.0025 32.2978 47.2046 31.4725 45.5777L24.709 47.6723L30.6451 44.1949C29.6498 42.7615 28.3439 41.5692 26.824 40.7061C25.304 39.843 23.6089 39.3311 21.8637 39.2083C21.5864 38.7884 21.2822 38.3867 20.9529 38.0058L11.2301 41.0184L19.1971 36.3514C17.6734 35.1883 15.8856 34.417 13.9917 34.1054C12.0978 33.7939 10.1561 33.9517 8.33792 34.5651C6.51978 35.1784 4.88122 36.2284 3.56695 37.6222C2.25268 39.016 1.30315 40.7108 0.80221 42.5569L9.1241 52.1005L0.0841374 45.5999C-2.20188 47.2153 -3.82934 49.5951 -4.50177 52.3058C-5.17419 55.0164 -4.84684 57.8775 -3.57933 60.3679C-2.31182 62.8582 -0.188519 64.8121 2.40377 65.8735C4.99606 66.9349 7.88481 67.0332 10.5438 66.1506C12.9511 67.0312 15.5814 67.1031 18.0336 66.3555C19.7422 66.7318 21.5137 66.7213 23.2176 66.3249C24.9216 65.9285 26.5146 65.1562 27.8792 64.065C29.2438 62.9739 30.3452 61.5915 31.1024 60.0199C31.8595 58.4483 32.2531 56.7275 32.254 54.9843C32.254 54.7255 32.2446 54.4691 32.2282 54.2138C32.5602 53.1149 32.7273 51.9731 32.7241 50.8254Z" fill="#6C63FF"/>
      <path opacity="0.1" d="M32.5232 52.9855C28.9512 52.3109 25.2883 52.2645 21.7004 52.8485C17.6399 53.5182 13.4889 54.99 9.51663 53.914C7.18612 53.2817 5.16823 51.8205 2.89414 51.0103C0.697274 50.2444 -1.67006 50.1021 -3.94341 50.5993C-4.81052 52.6639 -5.0625 54.9336 -4.66921 57.137C-4.27592 59.3405 -3.25402 61.3845 -1.72566 63.0247C-0.197294 64.6649 1.77286 65.8319 3.94929 66.3862C6.12572 66.9405 8.41633 66.8587 10.5473 66.1505C12.9535 67.0303 15.5825 67.1022 18.0336 66.3554C19.7422 66.7316 21.5137 66.7212 23.2176 66.3248C24.9216 65.9284 26.5146 65.1561 27.8792 64.0649C29.2438 62.9737 30.3452 61.5914 31.1024 60.0198C31.8595 58.4482 32.2531 56.7274 32.254 54.9841C32.254 54.7254 32.2446 54.469 32.2282 54.2137C32.3489 53.81 32.4474 53.4 32.5232 52.9855Z" fill="black"/>
    </g>
    <path opacity="0.1" d="M50.0001 93.7051C85.5041 93.7051 114.286 88.4892 114.286 82.0552C114.286 75.6211 85.5041 70.4053 50.0001 70.4053C14.496 70.4053 -14.2856 75.6211 -14.2856 82.0552C-14.2856 88.4892 14.496 93.7051 50.0001 93.7051Z" fill="#6C63FF"/>
    <path d="M71.1168 83.3981C71.2033 83.046 71.3749 82.7203 71.6166 82.4493C71.8583 82.1783 72.1629 81.9702 72.5037 81.8433C72.8446 81.7163 73.2114 81.6743 73.5723 81.7208C73.9332 81.7673 74.2772 81.901 74.5743 82.1102L74.666 82.1769C76.6322 83.6452 75.4652 86.3381 74.666 86.399C73.8668 86.4599 72.3296 86.5255 72.3296 86.5255C72.3296 86.5255 70.5186 85.7808 71.1168 83.3981Z" fill="#192534"/>
    <path d="M88.8558 81.568V82.0574C88.8558 82.0574 80.8642 82.6077 80.011 82.6077H78.4138C78.4138 82.6077 78.3903 82.6323 78.3515 82.6768C78.2857 82.7506 78.1741 82.8805 78.0507 83.0421C77.7992 83.3676 77.4995 83.8219 77.4301 84.1989C77.3126 84.8721 76.8778 85.1169 76.8778 85.1169L75.2806 84.6895L73.7399 82.8536L73.5154 82.6382L72.8761 82.0305L72.3296 81.5095L72.3566 81.2168V81.1723C72.4873 80.5434 72.6544 79.9226 72.8573 79.313C72.8573 79.2966 72.8679 79.279 72.8737 79.2626C73.3168 77.9372 74.056 76.3273 75.1208 75.8485C75.2019 75.8122 75.2865 75.777 75.377 75.7454L75.4851 75.708C77.5277 75.0265 81.3872 75.297 81.3872 75.297C81.3872 75.297 84.3347 76.154 84.5815 76.5217C84.8283 76.8893 87.6218 79.9171 87.6218 79.9171C87.867 80.1013 88.093 80.3096 88.2964 80.5389C88.5585 80.8281 88.8018 81.1922 88.8558 81.568Z" fill="#6C63FF"/>
    <path opacity="0.1" d="M72.0864 85.6075C72.5615 85.6075 72.9466 85.0047 72.9466 84.261C72.9466 83.5174 72.5615 82.9146 72.0864 82.9146C71.6112 82.9146 71.2261 83.5174 71.2261 84.261C71.2261 85.0047 71.6112 85.6075 72.0864 85.6075Z" fill="white"/>
    <path opacity="0.1" d="M75.6498 76.305C75.6498 76.305 74.9446 77.3822 74.1995 78.7638C74.1991 78.7673 74.1991 78.7708 74.1995 78.7743C74.0009 79.142 73.7988 79.5295 73.606 79.9264L73.5978 79.9452C73.5978 79.9452 73.19 79.6232 72.8691 79.3094C72.8691 79.293 72.8797 79.2754 72.8856 79.259C73.3287 77.9336 74.0679 76.3237 75.1326 75.8449C75.2137 75.8086 75.2984 75.7734 75.3889 75.7418L75.6498 76.305Z" fill="black"/>
    <path opacity="0.1" d="M73.5613 79.9161C73.5613 79.9161 77.9226 81.204 78.7817 80.6502C78.7817 80.6502 79.0896 76.7337 77.0623 76.489C77.0623 76.489 75.8953 76.1823 75.652 76.372C75.4088 76.5616 73.5613 79.9161 73.5613 79.9161Z" fill="white"/>
    <path opacity="0.1" d="M79.2119 77.0392C79.2119 77.0392 80.0722 80.2824 80.6868 80.3445C81.3015 80.4066 87.5032 80.2824 87.2588 79.8539C87.0143 79.4254 84.3101 76.6727 84.3101 76.6727L79.2119 77.0392Z" fill="white"/>
    <path d="M78.1565 82.9076C78.1565 82.9076 79.273 81.4453 81.2392 82.9147C83.2053 84.3841 82.0372 87.0758 81.2392 87.1367C80.4412 87.1976 78.911 87.2597 78.911 87.2597C78.911 87.2597 76.4865 86.2668 78.1565 82.9076Z" fill="#192534"/>
    <path d="M89.7525 83.2798C89.6707 83.0487 89.5417 82.837 89.3736 82.6581C89.2055 82.4792 89.002 82.3369 88.7759 82.2403C88.5498 82.1437 88.3061 82.0949 88.0601 82.0969C87.8142 82.0988 87.5713 82.1516 87.3468 82.2518C87.1272 82.355 86.9192 82.4809 86.7263 82.6277C84.9763 83.9343 86.0211 86.3311 86.7263 86.3861C86.9813 86.4048 87.3209 86.4247 87.6512 86.4423C87.9893 86.4602 88.3269 86.3997 88.6376 86.2655C88.9482 86.1313 89.2234 85.9272 89.4414 85.6691C89.6595 85.4111 89.8144 85.1061 89.8941 84.7783C89.9738 84.4504 89.976 84.1086 89.9006 83.7798C89.8608 83.6105 89.8113 83.4436 89.7525 83.2798Z" fill="#192534"/>
    <path opacity="0.1" d="M78.6596 86.3416C79.1347 86.3416 79.5199 85.7388 79.5199 84.9952C79.5199 84.2515 79.1347 83.6487 78.6596 83.6487C78.1845 83.6487 77.7993 84.2515 77.7993 84.9952C77.7993 85.7388 78.1845 86.3416 78.6596 86.3416Z" fill="white"/>
    <path opacity="0.1" d="M81.0546 82.4251C81.0546 82.4251 80.9371 80.6501 82.8363 81.3842C84.7355 82.1183 83.5121 82.9145 83.5121 82.9145L81.0546 82.4251Z" fill="white"/>
    <path opacity="0.1" d="M88.8559 81.5681V81.8128L88.5491 81.9299L87.9227 81.8128C87.9227 81.8128 87.7888 80.8106 88.3023 80.5249C88.5585 80.8282 88.8018 81.1923 88.8559 81.5681Z" fill="white"/>
    <path opacity="0.1" d="M88.8558 81.5799V82.0576C88.8558 82.0576 80.8642 82.6079 80.011 82.6079H80.0039C79.562 82.3737 79.1201 82.2695 78.7488 82.4252C78.6357 82.4718 78.5294 82.5332 78.4326 82.6079C78.4044 82.6301 78.3774 82.6535 78.3515 82.677C78.2344 82.7839 78.1331 82.9069 78.0507 83.0423C77.5007 83.9286 77.6182 85.3008 77.6182 85.3008C76.021 85.7902 74.3628 84.5058 74.3628 84.5058C74.0619 83.6066 73.781 83.02 73.5236 82.6325C73.2886 82.2812 73.0747 82.1091 72.8843 82.0248L72.3296 81.5096L72.3566 81.2169L76.8143 84.4461C76.8143 84.4461 77.2444 81.6923 78.2246 81.8761C79.2048 82.0599 81.1733 82.0599 81.1733 82.0599L88.8558 81.5799Z" fill="black"/>
    <path d="M72.0864 81.2006C72.0864 81.2006 71.7173 82.1185 72.0864 82.1806C72.4554 82.2426 73.2839 81.4781 74.3593 84.6897C74.3593 84.6897 76.0176 85.9776 77.6147 85.4847C77.6147 85.4847 77.4243 83.1594 78.7488 82.6079C80.0733 82.0565 82.2828 84.8115 82.2828 84.8115V85.4238L87.5044 84.8723C87.5044 84.8723 89.1015 83.6488 89.0404 81.752L81.178 82.2414C81.178 82.2414 79.2119 82.2414 78.2294 82.0576C77.2469 81.8738 76.8191 84.6335 76.8191 84.6335L72.0864 81.2006Z" fill="#6C63FF"/>
    <path d="M49.9742 64.4633H49.973C48.1582 64.4633 46.687 65.9289 46.687 67.7369V67.7381C46.687 69.5461 48.1582 71.0118 49.973 71.0118H49.9742C51.789 71.0118 53.2601 69.5461 53.2601 67.7381V67.7369C53.2601 65.9289 51.789 64.4633 49.9742 64.4633Z" fill="#192534"/>
    <path d="M48.2524 76.1634C48.6932 75.7782 49.1409 75.386 49.4582 74.8954C49.7497 74.4458 49.9213 73.9318 50.0823 73.4213C50.5422 71.9624 50.9383 70.4852 51.2705 68.9896C49.4618 68.7145 48.1114 67.1233 46.3427 66.6561C46.3004 66.6444 44.9477 74.742 44.8489 75.482C44.7678 76.0932 44.0674 79.0121 44.8654 79.0285C45.292 79.0378 46.1828 77.9747 46.4978 77.6949L48.2524 76.1634Z" fill="#3F3D56"/>
    <path opacity="0.1" d="M48.2524 76.1634C48.6932 75.7782 49.1409 75.386 49.4582 74.8954C49.7497 74.4458 49.9213 73.9318 50.0823 73.4213C50.5422 71.9624 50.9383 70.4852 51.2705 68.9896C49.4618 68.7145 48.1114 67.1233 46.3427 66.6561C46.3004 66.6444 44.9477 74.742 44.8489 75.482C44.7678 76.0932 44.0674 79.0121 44.8654 79.0285C45.292 79.0378 46.1828 77.9747 46.4978 77.6949L48.2524 76.1634Z" fill="black"/>
    <path d="M25.9006 55.7322C25.7008 55.7626 25.4892 55.7779 25.3247 55.8938C25.0897 56.0577 25.0297 56.3621 24.9181 56.6267C24.7715 56.9664 24.5231 57.2526 24.2071 57.4463C23.9379 57.6102 23.61 57.7203 23.449 57.9896C23.358 58.171 23.3148 58.3724 23.3233 58.575C23.3021 59.1749 23.3292 59.7755 23.4044 60.3711C23.442 60.6697 23.4913 60.9741 23.429 61.268C23.3574 61.611 23.1411 61.9026 22.9354 62.1871C22.4418 62.8673 21.9588 63.6143 21.9189 64.4527C21.8989 64.8742 21.9929 65.3062 21.886 65.7148C21.6967 66.4396 20.9258 66.9126 20.7753 67.6456C20.7307 67.8622 20.7424 68.0916 20.6578 68.2942C20.5097 68.6454 20.1019 68.8375 19.9973 69.1993C19.9186 69.4709 20.0338 69.7577 20.042 70.0399C20.0538 70.4532 19.8363 70.8349 19.6271 71.1909L18.4037 73.2633C18.0065 73.9353 17.5998 74.6378 17.5329 75.4153C17.4729 76.1049 17.688 76.7875 17.9242 77.4385C18.4495 78.8845 19.2299 80.4159 20.6696 80.9721C21.5169 81.2999 22.4606 81.2297 23.3668 81.1548C24.6078 81.0529 25.8571 80.9487 27.0547 80.6103C27.6482 80.4429 28.2299 80.2193 28.8293 80.0998C29.2289 80.0214 29.639 79.9827 30.0245 79.8551C30.441 79.7059 30.8096 79.4478 31.0917 79.108C31.3737 78.7681 31.5588 78.3589 31.6275 77.9232C32.1399 78.1246 32.6147 77.4549 32.5419 76.9116C32.469 76.3683 32.1023 75.9082 31.9543 75.3813C31.7427 74.6542 31.9543 73.8651 32.3068 73.1954C32.6594 72.5256 33.1459 71.9332 33.5302 71.281C33.9584 70.5509 34.2559 69.7522 34.4093 68.9206C34.615 67.7978 34.5527 66.6445 34.4892 65.5052L34.2471 61.1509C34.2025 60.3535 34.152 59.5304 33.7994 58.8092C33.4127 58.0235 32.7076 57.4475 32.0036 56.9241C30.9647 56.1368 29.8753 55.4179 28.7423 54.7721C28.0113 54.3647 28.063 54.5227 27.4813 55.0063C27.0307 55.3873 26.4841 55.6383 25.9006 55.7322Z" fill="#3F3D56"/>
    <path d="M35.7796 67.847C34.9487 68.5003 34.1072 69.163 33.4679 70.0037C32.6957 71.0259 32.2575 72.2599 32.2128 73.5385C32.2053 74.1368 32.2474 74.7348 32.3385 75.3263C32.4643 76.2923 32.6911 77.3683 33.5079 77.9022C34.0226 78.2382 34.7301 78.3225 35.0815 78.826C35.192 78.9841 35.2566 79.1772 35.3859 79.3166C35.621 79.5695 35.9876 79.6245 36.3261 79.6432C36.8319 79.6716 37.3391 79.6559 37.8422 79.5964C38.4169 79.5273 39.0009 79.402 39.5698 79.5098C40.6768 79.717 41.503 80.7579 42.6254 80.8972C43.5574 81.0143 44.4306 80.4745 45.2109 79.9605C46.016 79.4301 46.8563 78.8623 47.2923 78.0041C47.7165 77.1704 47.693 76.1892 47.6601 75.2537C47.6237 74.2152 47.5861 73.1638 47.3076 72.1615C47.221 71.8992 47.1546 71.6307 47.1089 71.3583C47.0255 70.6558 47.344 69.965 47.579 69.293C47.9445 68.2708 48.1044 67.011 47.3781 66.2031C47.0713 65.8612 46.6447 65.6505 46.2122 65.5006C44.3025 64.8168 42.1941 65.0768 40.2349 65.3835C38.3651 65.6657 37.2463 66.696 35.7796 67.847Z" fill="#3F3D56"/>
    <path d="M51.9745 63.8005C51.2177 64.9327 50.4585 66.0731 49.912 67.313C49.5392 68.213 49.2252 69.136 48.9718 70.0762C48.2173 72.6743 47.4687 75.3286 45.962 77.5778C45.7458 77.901 45.506 78.237 45.4837 78.6246C45.4625 78.9875 45.6365 79.3271 45.8045 79.6502C46.1571 80.334 46.5261 81.0248 47.0291 81.6126C47.5321 82.2003 48.1339 82.6453 48.7403 83.0995C49.999 84.0362 51.3975 85.0291 52.9712 84.9589C53.2967 84.9436 53.6446 84.8687 53.862 84.6263C54.0794 84.384 54.11 84.0491 54.0712 83.7377C53.9537 82.7741 53.225 82.0165 52.5645 81.3023C51.904 80.5881 51.24 79.7533 51.2929 78.7791C51.334 77.9748 51.8629 77.2886 52.3694 76.6611C52.9488 75.9422 53.5294 75.2244 54.0759 74.481C56.4393 71.267 58.1457 67.6128 59.4984 63.8626C60.0684 62.2796 60.5867 60.617 60.4093 58.945C59.1165 58.6289 56.531 57.5728 55.4392 58.6628C54.7775 59.3232 54.3098 60.302 53.7938 61.0806L51.9745 63.8005Z" fill="#FBBEBE"/>
    <path d="M62.89 52.8074C62.071 54.2306 61.43 55.7484 60.9814 57.3269C60.8721 57.7086 60.7746 58.1114 60.858 58.4977C60.9485 58.9122 61.2318 59.2529 61.4457 59.6182C61.6596 59.9835 61.81 60.446 61.6161 60.823C60.6994 60.8945 59.7909 60.6451 58.9048 60.398L56.1265 59.6253C55.8962 59.5811 55.6804 59.4814 55.4978 59.3349C55.1757 59.0316 55.2004 58.5223 55.2627 58.0868C55.8068 54.5204 57.5544 51.2326 58.209 47.6862C58.3042 47.1745 58.4041 46.6078 58.8131 46.2811C59.9884 45.3562 62.6491 46.1395 63.2579 47.4789C63.9383 48.9659 63.6598 51.4715 62.89 52.8074Z" fill="#6C63FF"/>
    <path d="M48.0174 40.6189C47.9128 40.6728 47.7953 40.736 47.7636 40.8461C47.7565 40.906 47.7627 40.9667 47.7818 41.024C47.8009 41.0812 47.8324 41.1336 47.874 41.1774L49.0599 42.84C50.2292 44.4792 51.4009 46.1289 52.7536 47.6241C53.7747 48.7521 54.8931 49.7888 56.096 50.7221C56.4345 50.9844 56.7953 51.2572 56.961 51.6518C56.2219 49.4715 56.3532 47.0914 57.3277 45.0049C57.7155 44.1853 58.2279 43.4254 58.631 42.6105C58.669 42.5658 58.6948 42.512 58.7058 42.4544C58.7169 42.3968 58.7128 42.3373 58.694 42.2817C58.6752 42.2261 58.6423 42.1763 58.5986 42.1371C58.5548 42.0979 58.5016 42.0706 58.4442 42.0579C57.417 41.531 56.2935 41.2125 55.271 40.6763C54.4683 40.2548 53.7432 39.7068 53.0228 39.1671C52.3799 38.6859 51.5243 37.8358 50.731 37.6333C49.8743 37.4132 49.9084 38.1918 49.6322 38.8416C49.3146 39.6011 48.7444 40.2286 48.0174 40.6189Z" fill="#FBBEBE"/>
    <path opacity="0.1" d="M48.0174 40.6189C47.9128 40.6728 47.7953 40.736 47.7636 40.8461C47.7565 40.906 47.7627 40.9667 47.7818 41.024C47.8009 41.0812 47.8324 41.1336 47.874 41.1774L49.0599 42.84C50.2292 44.4792 51.4009 46.1289 52.7536 47.6241C53.7747 48.7521 54.8931 49.7888 56.096 50.7221C56.4345 50.9844 56.7953 51.2572 56.961 51.6518C56.2219 49.4715 56.3532 47.0914 57.3277 45.0049C57.7155 44.1853 58.2279 43.4254 58.631 42.6105C58.669 42.5658 58.6948 42.512 58.7058 42.4544C58.7169 42.3968 58.7128 42.3373 58.694 42.2817C58.6752 42.2261 58.6423 42.1763 58.5986 42.1371C58.5548 42.0979 58.5016 42.0706 58.4442 42.0579C57.417 41.531 56.2935 41.2125 55.271 40.6763C54.4683 40.2548 53.7432 39.7068 53.0228 39.1671C52.3799 38.6859 51.5243 37.8358 50.731 37.6333C49.8743 37.4132 49.9084 38.1918 49.6322 38.8416C49.3146 39.6011 48.7444 40.2286 48.0174 40.6189Z" fill="black"/>
    <path d="M55.2886 47.2447C54.7515 46.6405 54.0264 46.2413 53.3906 45.7402C52.4763 45.0189 51.7535 44.0893 51.0554 43.1585C49.7744 41.4455 48.4828 39.3474 49.121 37.3042C48.4429 37.2387 47.8576 37.7936 47.5379 38.3919C47.2182 38.9902 47.0537 39.6717 46.6553 40.2208C46.0501 41.0556 45.0205 41.4443 44.0615 41.826C41.9535 42.6664 39.9169 43.6747 37.9714 44.841C37.1899 45.3093 36.4119 45.8116 35.8149 46.4977C35.1755 47.2295 34.7748 48.1369 34.2318 48.9389C33.1741 50.516 31.5664 51.6998 29.7824 52.3695C29.1947 52.592 28.5648 52.7652 28.0395 53.1188C26.9136 53.8764 26.4447 55.3868 26.7115 56.7145C26.9782 58.0422 27.8867 59.1733 28.9785 59.9765C30.0703 60.7797 31.3137 61.2539 32.5736 61.7222C33.6297 62.1086 34.6925 62.477 35.762 62.8275C36.5489 63.0988 37.3534 63.3163 38.1701 63.4785C39.6732 63.7536 41.2186 63.6857 42.7382 63.8531C44.1274 64.0053 45.4918 64.3554 46.8868 64.4526C48.2818 64.5498 49.7591 64.3648 50.8956 63.5557C51.7993 62.9129 52.4011 61.9423 52.9569 60.9799C54.4 58.4983 55.689 55.9309 56.8164 53.2921C57.149 52.5112 60.2352 48.0877 59.4666 47.5163C55.5965 44.6396 56.8811 49.2106 56.5121 48.8593C56.0185 48.3886 55.7352 47.747 55.2886 47.2447Z" fill="#6C63FF"/>
    <path d="M50.4949 44.5986C49.664 42.9337 49.1022 41.1517 48.544 39.379C48.39 38.8873 48.2349 38.3557 48.4006 37.8686C48.6004 37.2832 49.2397 36.7832 49.0517 36.1967C47.5568 36.665 45.8209 37.3991 45.5259 38.9341C45.4613 39.269 45.4731 39.6261 45.3168 39.9281C45.0124 40.5206 44.2367 40.647 43.5774 40.7477C41.6594 41.0533 39.7532 41.8237 38.4392 43.2487C38.2183 43.4828 38.0103 43.7486 37.7341 43.9242C37.5343 44.0415 37.3218 44.1358 37.1006 44.2052C35.8149 44.6654 34.4928 45.2391 33.6654 46.3221C33.2388 46.8794 32.9661 47.548 32.4902 48.0655C31.8461 48.768 30.8977 49.1193 30.2008 49.7738C29.7307 50.2093 29.3958 50.762 29.0855 51.3205C27.8914 53.4701 27.0159 55.991 27.6493 58.3666C27.9796 59.6089 28.7071 60.7153 29.0984 61.94C29.6379 63.6085 29.585 65.5111 30.5969 66.9454C31.235 67.8469 32.2222 68.4429 33.2329 68.8925C35.4819 69.8893 37.9526 70.2855 40.4019 70.0423C41.3101 69.937 42.2123 69.7854 43.105 69.588C45.2357 69.1501 47.3887 68.6735 49.3243 67.683C52.6256 65.9935 55.0007 62.9739 57.269 60.0468C57.7003 59.4894 58.1351 58.9274 58.4442 58.2905C58.7462 57.6828 58.9284 57.0248 59.1317 56.3785C59.8192 54.1996 60.7865 52.03 60.696 49.7492C60.6996 49.476 60.6455 49.2052 60.5373 48.9542C60.4456 48.7668 60.3023 48.6029 60.2212 48.4144C60.0778 48.0772 60.1424 47.6873 60.0414 47.3349C59.7605 46.3514 58.463 46.1641 57.4358 46.1723L57.1068 51.9433C57.0562 52.8098 56.9634 53.771 56.3158 54.3518C56.0388 54.5892 55.6931 54.7325 55.3287 54.761C54.9644 54.7894 54.6005 54.7014 54.2897 54.5098C53.5987 54.0637 53.5011 53.2851 53.5058 52.5393C53.5129 51.6026 53.4365 50.7444 53.1368 49.8464C52.5163 47.9836 51.3669 46.3491 50.4949 44.5986Z" fill="#192534"/>
    <path d="M50.9038 61.0443C54.996 63.1109 59.1117 65.1926 62.7738 67.9441C63.62 68.5787 64.4426 69.2508 65.337 69.8175C67.9002 71.4403 71.0804 72.2306 73.0583 74.5254C73.4744 75.0066 73.8269 75.5476 74.3064 75.9644C74.7226 76.3049 75.1877 76.5811 75.6862 76.784C77.2752 77.4827 78.9959 77.8344 80.7326 77.8155C81.1875 77.8096 81.6552 77.7757 82.0642 77.5813C83.1654 77.0498 83.4157 75.626 83.5274 74.4119C83.565 74.0009 83.5732 73.5162 83.2488 73.2609C83.0737 73.1239 82.8422 73.0888 82.6224 73.0548C79.0485 72.4928 75.7508 70.7787 72.7645 68.7426C69.7782 66.7065 67.0411 64.3297 64.0959 62.2351C63.0605 61.4986 62.0005 60.7973 60.9404 60.0959L57.5099 57.8268C55.6953 56.6267 53.7844 55.3903 51.6172 55.1643C51.494 55.143 51.3674 55.1514 51.2482 55.1889C51.0578 55.2627 50.952 55.4594 50.8592 55.6397C50.2234 56.8738 49.4489 57.9943 48.6697 59.137C48.2525 59.7482 48.2055 59.9063 48.9247 60.2329C49.5723 60.528 50.2586 60.7188 50.9038 61.0443Z" fill="#FBBEBE"/>
    <path d="M58.9448 95.1429C58.9916 95.1429 59.0364 95.1244 59.0695 95.0914C59.1026 95.0585 59.1211 95.0138 59.1211 94.9673C59.1211 94.9207 59.1026 94.876 59.0695 94.8431C59.0364 94.8101 58.9916 94.7916 58.9448 94.7916C58.8981 94.7916 58.8532 94.8101 58.8202 94.8431C58.7871 94.876 58.7686 94.9207 58.7686 94.9673C58.7686 95.0138 58.7871 95.0585 58.8202 95.0914C58.8532 95.1244 58.8981 95.1429 58.9448 95.1429Z" fill="black"/>
    <path d="M60.2304 48.5222C66.4388 48.5222 71.4716 43.5081 71.4716 37.323C71.4716 31.1379 66.4388 26.1239 60.2304 26.1239C54.0221 26.1239 48.9893 31.1379 48.9893 37.323C48.9893 43.5081 54.0221 48.5222 60.2304 48.5222Z" fill="#FBBEBE"/>
    <path d="M51.395 41.6903C51.5948 40.6846 52.7536 40.1764 53.7795 40.1085C54.8178 40.0529 55.8523 40.2708 56.7791 40.7403C57.7059 41.2098 58.4922 41.9142 59.0587 42.7827C59.2964 42.1549 59.4566 41.5007 59.5359 40.8344L61.4163 40.9738C61.6262 41.0061 61.8408 40.9868 62.0415 40.9176C62.2836 40.8099 62.4329 40.5663 62.5586 40.3322C63.3813 38.8019 63.9313 36.9238 65.4756 36.1171V38.2246C65.8984 38.1427 66.2966 37.965 66.6396 37.7054C66.9825 37.4457 67.261 37.111 67.4535 36.7271C67.5595 37.3105 67.7281 37.8809 67.9565 38.4284C67.9941 38.5197 68.047 38.6204 68.1422 38.6438C68.1887 38.6472 68.2353 38.6407 68.2791 38.6247C68.3228 38.6088 68.3627 38.5837 68.396 38.5513C69.1161 38.0069 69.7676 37.3779 70.3363 36.6779L72.5693 40.5347C73.8594 37.2891 73.9299 33.6885 72.7678 30.3953C71.6057 27.102 69.2891 24.3375 66.2442 22.6102C65.7279 22.3139 65.1892 22.0583 64.6329 21.8457C63.1791 21.3001 61.6125 21.1256 60.0624 21.0202C57.8588 20.8704 55.533 20.8762 53.5986 21.9288C52.5585 22.4943 51.6947 23.328 50.8603 24.1663C49.732 25.2973 48.6038 26.4928 48.0032 27.9715C47.5884 28.9925 47.4462 30.099 47.3204 31.1925C47.244 31.8541 47.1735 32.5378 47.3627 33.176C47.4944 33.6174 47.7423 34.0143 47.9092 34.444C48.1866 35.1582 48.2301 35.938 48.337 36.6967C48.5743 38.3734 49.124 39.9911 49.9577 41.4667C50.134 41.7793 50.3596 42.1118 50.711 42.1915C51.0624 42.2711 51.4843 41.8847 51.2986 41.5803" fill="#192534"/>
    <path d="M51.395 41.6903C51.5948 40.6846 52.7536 40.1764 53.7795 40.1085C54.8178 40.0529 55.8523 40.2708 56.7791 40.7403C57.7059 41.2098 58.4922 41.9142 59.0587 42.7827C59.2964 42.1549 59.4566 41.5007 59.5359 40.8344L61.4163 40.9738C61.6262 41.0061 61.8408 40.9868 62.0415 40.9176C62.2836 40.8099 62.4329 40.5663 62.5586 40.3322C63.3813 38.8019 63.9313 36.9238 65.4756 36.1171V38.2246C65.8984 38.1427 66.2966 37.965 66.6396 37.7054C66.9825 37.4457 67.261 37.111 67.4535 36.7271C67.5595 37.3105 67.7281 37.8809 67.9565 38.4284C67.9941 38.5197 68.047 38.6204 68.1422 38.6438C68.1886 38.6472 68.2353 38.6407 68.2791 38.6247C68.3228 38.6088 68.3627 38.5837 68.396 38.5513C69.1161 38.0069 69.7676 37.3779 70.3363 36.6779L72.5693 40.5347C73.8594 37.2891 73.9299 33.6885 72.7678 30.3953C71.6057 27.102 69.2891 24.3375 66.2442 22.6102C65.7279 22.3139 65.1892 22.0583 64.6329 21.8457C63.1791 21.3001 61.6125 21.1256 60.0624 21.0202C57.8588 20.8704 55.533 20.8762 53.5986 21.9288C52.5585 22.4943 51.6947 23.328 50.8603 24.1663C49.732 25.2973 48.6038 26.4928 48.0032 27.9715C47.5884 28.9925 47.4462 30.099 47.3204 31.1925C47.244 31.8541 47.1735 32.5378 47.3627 33.176C47.4944 33.6174 47.7423 34.0143 47.9092 34.444C48.1866 35.1582 48.2301 35.938 48.337 36.6967C48.5743 38.3734 49.124 39.9911 49.9577 41.4667C50.134 41.7793 50.3596 42.1118 50.711 42.1915C51.0624 42.2711 51.4843 41.8847 51.2986 41.5803" stroke="black" stroke-width="0.714286" stroke-miterlimit="10"/>
    <path d="M38.4934 52.4387C38.947 53.681 40.087 54.524 41.1682 55.292L43.9888 57.2965C44.7386 57.8293 45.5084 58.3819 45.9961 59.1593C45.2827 59.4286 44.9572 60.3419 45.1911 61.0655C45.425 61.7891 46.096 62.3077 46.827 62.5419C47.558 62.7761 48.3337 62.7679 49.0964 62.7246C49.972 62.6766 50.8887 62.5712 51.6114 62.0759L50.0237 61.1018C49.6053 60.843 49.1246 60.4309 49.2774 59.9661L50.9521 59.9497C51.1284 59.9497 51.32 59.9415 51.4598 59.8326C51.5997 59.7237 51.6479 59.5563 51.7066 59.397C51.9556 58.7532 52.3807 58.1916 52.9336 57.7761C53.4866 57.3606 54.1453 57.1076 54.8351 57.046C55.2488 57.0155 55.7248 57.0331 56.0104 56.7263C56.196 56.5226 56.236 56.2299 56.2689 55.9571C56.3312 55.4372 56.3923 54.9033 56.2889 54.394C56.1855 53.8847 55.887 53.3789 55.4075 53.1646C55.0549 53.0054 54.6471 53.0206 54.2616 52.9691C52.4882 52.7349 51.2589 51.1332 50.3069 49.624C49.355 48.1148 48.3337 46.4451 46.6366 45.8831C46.1067 45.7251 45.5573 45.6412 45.0042 45.6337C43.7808 45.5834 42.5209 45.6829 41.4068 46.1887C39.3302 47.1313 37.6848 50.2281 38.4934 52.4387Z" fill="#6C63FF"/>
    <path opacity="0.1" d="M72.5799 38.4506L70.347 34.5938C69.7785 35.294 69.127 35.923 68.4067 36.4672C68.3736 36.5 68.3338 36.5254 68.29 36.5415C68.2462 36.5577 68.1994 36.5643 68.1528 36.5608C68.0576 36.5374 68.0047 36.4367 67.9671 36.3454C67.7388 35.7975 67.5701 35.2267 67.4641 34.643C67.2718 35.0271 66.9934 35.3621 66.6505 35.622C66.3075 35.8818 65.9091 36.0597 65.4862 36.1417V34.0341C63.9419 34.8432 63.3966 36.7212 62.5692 38.2492C62.4435 38.4833 62.2942 38.7234 62.0521 38.8346C61.8514 38.9039 61.6368 38.9231 61.4269 38.8908L59.5465 38.7515C59.4673 39.4178 59.307 40.072 59.0694 40.6998C58.5028 39.8313 57.7165 39.1268 56.7898 38.6573C55.863 38.1879 54.8284 37.9699 53.7902 38.0255C52.7642 38.0935 51.6054 38.6016 51.4056 39.6074L51.3057 39.4973C51.4949 39.8029 51.0707 40.1893 50.7181 40.1097C50.3655 40.03 50.1411 39.6975 49.9648 39.3849C49.1333 37.9077 48.586 36.2888 48.3512 34.6114C48.2442 33.8527 48.2007 33.0729 47.9234 32.3587C47.7565 31.929 47.5085 31.532 47.3769 31.0906C47.3769 31.0754 47.3687 31.0614 47.3651 31.0461C47.3546 31.134 47.344 31.2218 47.3346 31.3096C47.2582 31.9723 47.1877 32.6549 47.3769 33.3C47.5085 33.7414 47.7565 34.1383 47.9234 34.5669C48.2007 35.2823 48.2442 36.0609 48.3512 36.8207C48.5857 38.4978 49.133 40.1164 49.9648 41.5931C50.1411 41.9057 50.3667 42.2394 50.7181 42.319C51.0695 42.3987 51.4914 42.0123 51.3057 41.7067L51.4056 41.8156C51.6054 40.811 52.7642 40.3017 53.7902 40.2349C54.8283 40.1789 55.863 40.3964 56.7898 40.8657C57.7166 41.335 58.5029 42.0394 59.0694 42.908C59.3072 42.2806 59.4674 41.6268 59.5465 40.9609L61.4269 41.099C61.6368 41.1317 61.8515 41.1124 62.0521 41.0428C62.2942 40.9351 62.4435 40.6916 62.5692 40.4574C63.3919 38.9259 63.9419 37.0491 65.4862 36.2424V38.3499C65.9091 38.2679 66.3075 38.0901 66.6505 37.8302C66.9934 37.5703 67.2718 37.2354 67.4641 36.8512C67.5703 37.4349 67.739 38.0056 67.9671 38.5536C68.0047 38.6438 68.0576 38.7456 68.1528 38.7679C68.1993 38.7718 68.2461 38.7655 68.29 38.7495C68.3338 38.7336 68.3737 38.7083 68.4067 38.6754C69.127 38.1313 69.7785 37.5022 70.347 36.802L72.5799 40.6588C73.3852 38.6122 73.7166 36.411 73.5495 34.2191C73.4415 35.6701 73.1146 37.0966 72.5799 38.4506Z" fill="black"/>
  </g>
  <defs>
    <clipPath id="clip0_74_6753">
      <rect width="128.571" height="95" fill="white" transform="translate(-14.2856 0.142822)"/>
    </clipPath>
  </defs>
</svg>